<svg width="508" height="324" viewBox="0 0 508 324" fill="none" xmlns="http://www.w3.org/2000/svg">
  <rect width="768" height="360" rx="8" fill="white"/>
  <path d="M22.9805 27.2881H24.9355L26.8701 31H28.8867L26.7334 27.0215C27.9092 26.5977 28.5928 25.5107 28.5928 24.2051C28.5928 22.3184 27.2939 21.1357 25.2227 21.1357H21.2168V31H22.9805V27.2881ZM22.9805 22.5645H24.9766C26.0977 22.5645 26.7812 23.2002 26.7812 24.2393C26.7812 25.2988 26.1387 25.9072 25.0176 25.9072H22.9805V22.5645ZM35.1963 28.9561C34.9502 29.5166 34.3691 29.8311 33.5283 29.8311C32.4141 29.8311 31.6963 29.0381 31.6553 27.7734V27.6846H36.8779V27.1445C36.8779 24.7998 35.5996 23.3848 33.4668 23.3848C31.2998 23.3848 29.9531 24.8955 29.9531 27.2949C29.9531 29.6875 31.2793 31.1504 33.4805 31.1504C35.2441 31.1504 36.4951 30.3027 36.8027 28.9561H35.1963ZM33.46 24.7041C34.4785 24.7041 35.1484 25.4219 35.1826 26.5566H31.6621C31.7373 25.4355 32.4482 24.7041 33.46 24.7041ZM38.4092 25.6611C38.4092 26.7822 39.0859 27.4385 40.5215 27.7666L41.8477 28.0742C42.5586 28.2383 42.8799 28.5117 42.8799 28.9355C42.8799 29.5029 42.2852 29.8926 41.4307 29.8926C40.583 29.8926 40.0566 29.5508 39.8926 28.9971H38.2178C38.3477 30.3438 39.5234 31.1504 41.3896 31.1504C43.2559 31.1504 44.5752 30.2002 44.5752 28.7715C44.5752 27.6709 43.9121 27.0625 42.4834 26.7344L41.1641 26.4404C40.4121 26.2627 40.0566 25.9961 40.0566 25.5723C40.0566 25.0186 40.6377 24.6426 41.4102 24.6426C42.2031 24.6426 42.7021 24.9844 42.8252 25.5107H44.418C44.2949 24.1641 43.1807 23.3848 41.4033 23.3848C39.6396 23.3848 38.4092 24.3213 38.4092 25.6611ZM50.3652 23.4053C49.3398 23.4053 48.4717 23.918 48.041 24.7656H47.9248V23.5283H46.291V33.4814H47.9863V29.8652H48.1025C48.4854 30.6582 49.3125 31.123 50.3857 31.123C52.2725 31.123 53.4482 29.6396 53.4482 27.2676C53.4482 24.875 52.2588 23.4053 50.3652 23.4053ZM49.832 29.7148C48.6768 29.7148 47.959 28.7783 47.9521 27.2676C47.959 25.7568 48.6836 24.8203 49.8389 24.8203C51.001 24.8203 51.7051 25.7363 51.7051 27.2676C51.7051 28.7988 51.0078 29.7148 49.832 29.7148ZM58.377 31.1504C60.6123 31.1504 61.9727 29.6875 61.9727 27.2607C61.9727 24.8477 60.6055 23.3848 58.377 23.3848C56.1553 23.3848 54.7812 24.8545 54.7812 27.2607C54.7812 29.6875 56.1348 31.1504 58.377 31.1504ZM58.377 29.7627C57.1943 29.7627 56.5176 28.8467 56.5176 27.2676C56.5176 25.6885 57.1943 24.7725 58.377 24.7725C59.5527 24.7725 60.2295 25.6885 60.2295 27.2676C60.2295 28.8467 59.5596 29.7627 58.377 29.7627ZM63.6816 31H65.377V26.6455C65.377 25.5244 66.0127 24.8203 67.0244 24.8203C68.0566 24.8203 68.5352 25.4014 68.5352 26.5635V31H70.2305V26.167C70.2305 24.3896 69.3213 23.3848 67.6533 23.3848C66.5391 23.3848 65.7871 23.8906 65.4316 24.7246H65.3154V23.5283H63.6816V31ZM72.0693 25.6611C72.0693 26.7822 72.7461 27.4385 74.1816 27.7666L75.5078 28.0742C76.2188 28.2383 76.54 28.5117 76.54 28.9355C76.54 29.5029 75.9453 29.8926 75.0908 29.8926C74.2432 29.8926 73.7168 29.5508 73.5527 28.9971H71.8779C72.0078 30.3438 73.1836 31.1504 75.0498 31.1504C76.916 31.1504 78.2354 30.2002 78.2354 28.7715C78.2354 27.6709 77.5723 27.0625 76.1436 26.7344L74.8242 26.4404C74.0723 26.2627 73.7168 25.9961 73.7168 25.5723C73.7168 25.0186 74.2979 24.6426 75.0703 24.6426C75.8633 24.6426 76.3623 24.9844 76.4854 25.5107H78.0781C77.9551 24.1641 76.8408 23.3848 75.0635 23.3848C73.2998 23.3848 72.0693 24.3213 72.0693 25.6611ZM84.8252 28.9561C84.5791 29.5166 83.998 29.8311 83.1572 29.8311C82.043 29.8311 81.3252 29.0381 81.2842 27.7734V27.6846H86.5068V27.1445C86.5068 24.7998 85.2285 23.3848 83.0957 23.3848C80.9287 23.3848 79.582 24.8955 79.582 27.2949C79.582 29.6875 80.9082 31.1504 83.1094 31.1504C84.873 31.1504 86.124 30.3027 86.4316 28.9561H84.8252ZM83.0889 24.7041C84.1074 24.7041 84.7773 25.4219 84.8115 26.5566H81.291C81.3662 25.4355 82.0771 24.7041 83.0889 24.7041ZM92.4814 21.6963V23.5762H91.2988V24.8955H92.4814V29.0176C92.4814 30.46 93.165 31.0342 94.8809 31.0342C95.209 31.0342 95.5234 31.0068 95.7695 30.959V29.6602C95.5645 29.6807 95.4346 29.6943 95.1953 29.6943C94.4844 29.6943 94.1699 29.3594 94.1699 28.6143V24.8955H95.7695V23.5762H94.1699V21.6963H92.4814ZM98.3262 22.2773C98.8867 22.2773 99.3447 21.833 99.3447 21.2725C99.3447 20.7188 98.8867 20.2676 98.3262 20.2676C97.7725 20.2676 97.3145 20.7188 97.3145 21.2725C97.3145 21.833 97.7725 22.2773 98.3262 22.2773ZM97.4854 31H99.1738V23.5283H97.4854V31ZM101.279 31H102.975V26.4541C102.975 25.5244 103.597 24.8203 104.438 24.8203C105.271 24.8203 105.791 25.3262 105.791 26.1533V31H107.438V26.3311C107.438 25.4766 108.02 24.8203 108.901 24.8203C109.811 24.8203 110.269 25.3057 110.269 26.2764V31H111.957V25.8594C111.957 24.3076 111.055 23.3848 109.558 23.3848C108.519 23.3848 107.657 23.918 107.288 24.7314H107.172C106.857 23.9043 106.14 23.3848 105.107 23.3848C104.116 23.3848 103.351 23.8906 103.029 24.7314H102.913V23.5283H101.279V31ZM118.841 28.9561C118.595 29.5166 118.014 29.8311 117.173 29.8311C116.059 29.8311 115.341 29.0381 115.3 27.7734V27.6846H120.522V27.1445C120.522 24.7998 119.244 23.3848 117.111 23.3848C114.944 23.3848 113.598 24.8955 113.598 27.2949C113.598 29.6875 114.924 31.1504 117.125 31.1504C118.889 31.1504 120.14 30.3027 120.447 28.9561H118.841ZM117.104 24.7041C118.123 24.7041 118.793 25.4219 118.827 26.5566H115.307C115.382 25.4355 116.093 24.7041 117.104 24.7041Z" fill="#203053"/>
  <rect y="53" width="768" height="1" fill="#D9DDE7"/>
  <rect y="318" width="768" height="1" fill="#D9DDE7"/>
  <path d="M19.2119 117H20.3545V107.84H19.2183L16.7808 109.592V110.798L19.1104 109.11H19.2119V117ZM23.4712 119.33L24.4678 115.718H23.2554L22.6523 119.33H23.4712ZM29.2603 117.216C31.1328 117.216 32.4087 115.921 32.4087 114.036C32.4087 112.22 31.1392 111.014 29.603 111.014C28.689 111.014 28.0098 111.293 27.5654 111.846H27.4639L27.7495 108.862H31.939V107.84H26.8545L26.3276 113.077H27.4004C27.7622 112.398 28.4478 111.998 29.3174 111.998C30.4727 111.998 31.2661 112.83 31.2661 114.067C31.2661 115.35 30.4727 116.213 29.2729 116.213C28.1938 116.213 27.4067 115.559 27.3052 114.582H26.1816C26.2832 116.149 27.5273 117.216 29.2603 117.216ZM37.7788 112.03C37.7788 113.02 38.3628 113.572 39.645 113.883L40.8193 114.169C41.5493 114.347 41.9048 114.664 41.9048 115.134C41.9048 115.762 41.2446 116.2 40.3242 116.2C39.4482 116.2 38.9023 115.832 38.7183 115.254H37.5947C37.7153 116.391 38.7627 117.121 40.2861 117.121C41.8413 117.121 43.0283 116.276 43.0283 115.051C43.0283 114.067 42.4062 113.509 41.1177 113.198L40.064 112.944C39.2578 112.747 38.877 112.455 38.877 111.985C38.877 111.376 39.5117 110.963 40.3242 110.963C41.1494 110.963 41.6826 111.325 41.8286 111.871H42.9077C42.7617 110.748 41.7651 110.037 40.3306 110.037C38.877 110.037 37.7788 110.894 37.7788 112.03ZM49.2744 115.229C48.9888 115.832 48.3921 116.156 47.5098 116.156C46.3481 116.156 45.5928 115.299 45.5356 113.947V113.896H50.4551V113.477C50.4551 111.351 49.3315 110.037 47.4844 110.037C45.6055 110.037 44.3994 111.433 44.3994 113.585C44.3994 115.75 45.5864 117.121 47.4844 117.121C48.9824 117.121 50.0488 116.397 50.3662 115.229H49.2744ZM47.4717 111.001C48.5571 111.001 49.2808 111.801 49.3062 113.014H45.5356C45.6182 111.801 46.3799 111.001 47.4717 111.001ZM57.8311 112.252C57.6406 111.033 56.625 110.037 54.9619 110.037C53.0449 110.037 51.8262 111.42 51.8262 113.553C51.8262 115.73 53.0513 117.121 54.9683 117.121C56.6123 117.121 57.6343 116.194 57.8311 114.937H56.7266C56.5234 115.711 55.8823 116.137 54.9619 116.137C53.7432 116.137 52.9561 115.134 52.9561 113.553C52.9561 112.004 53.7305 111.021 54.9619 111.021C55.9458 111.021 56.5488 111.573 56.7266 112.252H57.8311Z" fill="#67789D"/>
  <path d="M19.2119 169H20.3545V159.84H19.2183L16.7808 161.592V162.798L19.1104 161.11H19.2119V169ZM26.6069 164.03C26.6069 165.02 27.1909 165.572 28.4731 165.883L29.6475 166.169C30.3774 166.347 30.7329 166.664 30.7329 167.134C30.7329 167.762 30.0728 168.2 29.1523 168.2C28.2764 168.2 27.7305 167.832 27.5464 167.254H26.4229C26.5435 168.391 27.5908 169.121 29.1143 169.121C30.6694 169.121 31.8564 168.276 31.8564 167.051C31.8564 166.067 31.2344 165.509 29.9458 165.198L28.8921 164.944C28.0859 164.747 27.7051 164.455 27.7051 163.985C27.7051 163.376 28.3398 162.963 29.1523 162.963C29.9775 162.963 30.5107 163.325 30.6567 163.871H31.7358C31.5898 162.748 30.5933 162.037 29.1587 162.037C27.7051 162.037 26.6069 162.894 26.6069 164.03ZM38.1025 167.229C37.8169 167.832 37.2202 168.156 36.3379 168.156C35.1763 168.156 34.4209 167.299 34.3638 165.947V165.896H39.2832V165.477C39.2832 163.351 38.1597 162.037 36.3125 162.037C34.4336 162.037 33.2275 163.433 33.2275 165.585C33.2275 167.75 34.4146 169.121 36.3125 169.121C37.8105 169.121 38.877 168.397 39.1943 167.229H38.1025ZM36.2998 163.001C37.3853 163.001 38.1089 163.801 38.1343 165.014H34.3638C34.4463 163.801 35.208 163.001 36.2998 163.001ZM46.6592 164.252C46.4688 163.033 45.4531 162.037 43.79 162.037C41.873 162.037 40.6543 163.42 40.6543 165.553C40.6543 167.73 41.8794 169.121 43.7964 169.121C45.4404 169.121 46.4624 168.194 46.6592 166.937H45.5547C45.3516 167.711 44.7104 168.137 43.79 168.137C42.5713 168.137 41.7842 167.134 41.7842 165.553C41.7842 164.004 42.5586 163.021 43.79 163.021C44.7739 163.021 45.377 163.573 45.5547 164.252H46.6592Z" fill="#67789D"/>
  <path d="M20.0688 221.216C21.9414 221.216 23.2173 219.921 23.2173 218.036C23.2173 216.22 21.9478 215.014 20.4116 215.014C19.4976 215.014 18.8184 215.293 18.374 215.846H18.2725L18.5581 212.862H22.7476V211.84H17.6631L17.1362 217.077H18.209C18.5708 216.398 19.2563 215.998 20.126 215.998C21.2812 215.998 22.0747 216.83 22.0747 218.067C22.0747 219.35 21.2812 220.213 20.0815 220.213C19.0024 220.213 18.2153 219.559 18.1138 218.582H16.9902C17.0918 220.149 18.3359 221.216 20.0688 221.216ZM28.1494 221.216C30.2061 221.216 31.3867 219.477 31.3867 216.436C31.3867 213.402 30.187 211.625 28.1494 211.625C26.0991 211.625 24.8994 213.396 24.8994 216.417C24.8994 219.464 26.0864 221.216 28.1494 221.216ZM28.1494 220.219C26.7974 220.219 26.0483 218.867 26.0483 216.417C26.0483 213.999 26.8101 212.627 28.1494 212.627C29.4888 212.627 30.2378 213.986 30.2378 216.417C30.2378 218.874 29.5015 220.219 28.1494 220.219ZM36.3379 221.216C38.3945 221.216 39.5752 219.477 39.5752 216.436C39.5752 213.402 38.3755 211.625 36.3379 211.625C34.2876 211.625 33.0879 213.396 33.0879 216.417C33.0879 219.464 34.2749 221.216 36.3379 221.216ZM36.3379 220.219C34.9858 220.219 34.2368 218.867 34.2368 216.417C34.2368 213.999 34.9985 212.627 36.3379 212.627C37.6772 212.627 38.4263 213.986 38.4263 216.417C38.4263 218.874 37.6899 220.219 36.3379 220.219ZM45.123 221H46.2148V216.76C46.2148 215.795 46.9067 215.021 47.8018 215.021C48.665 215.021 49.23 215.541 49.23 216.354V221H50.3218V216.601C50.3218 215.731 50.9565 215.021 51.9087 215.021C52.8735 215.021 53.3496 215.516 53.3496 216.525V221H54.4414V216.271C54.4414 214.836 53.6606 214.037 52.2642 214.037C51.3184 214.037 50.5376 214.513 50.1694 215.236H50.0679C49.7505 214.525 49.103 214.037 48.1763 214.037C47.2622 214.037 46.5767 214.475 46.2656 215.236H46.1641V214.157H45.123V221ZM56.2759 216.03C56.2759 217.02 56.8599 217.572 58.1421 217.883L59.3164 218.169C60.0464 218.347 60.4019 218.664 60.4019 219.134C60.4019 219.762 59.7417 220.2 58.8213 220.2C57.9453 220.2 57.3994 219.832 57.2153 219.254H56.0918C56.2124 220.391 57.2598 221.121 58.7832 221.121C60.3384 221.121 61.5254 220.276 61.5254 219.051C61.5254 218.067 60.9033 217.509 59.6147 217.198L58.561 216.944C57.7549 216.747 57.374 216.455 57.374 215.985C57.374 215.376 58.0088 214.963 58.8213 214.963C59.6465 214.963 60.1797 215.325 60.3257 215.871H61.4048C61.2588 214.748 60.2622 214.037 58.8276 214.037C57.374 214.037 56.2759 214.894 56.2759 216.03Z" fill="#67789D"/>
  <path d="M20.1006 273.216C22.1572 273.216 23.3379 271.477 23.3379 268.436C23.3379 265.402 22.1382 263.625 20.1006 263.625C18.0503 263.625 16.8506 265.396 16.8506 268.417C16.8506 271.464 18.0376 273.216 20.1006 273.216ZM20.1006 272.219C18.7485 272.219 17.9995 270.867 17.9995 268.417C17.9995 265.999 18.7612 264.627 20.1006 264.627C21.4399 264.627 22.189 265.986 22.189 268.417C22.189 270.874 21.4526 272.219 20.1006 272.219ZM28.8857 273H29.9775V268.76C29.9775 267.795 30.6694 267.021 31.5645 267.021C32.4277 267.021 32.9927 267.541 32.9927 268.354V273H34.0845V268.601C34.0845 267.731 34.7192 267.021 35.6714 267.021C36.6362 267.021 37.1123 267.516 37.1123 268.525V273H38.2041V268.271C38.2041 266.836 37.4233 266.037 36.0269 266.037C35.0811 266.037 34.3003 266.513 33.9321 267.236H33.8306C33.5132 266.525 32.8657 266.037 31.939 266.037C31.0249 266.037 30.3394 266.475 30.0283 267.236H29.9268V266.157H28.8857V273ZM40.0386 268.03C40.0386 269.02 40.6226 269.572 41.9048 269.883L43.0791 270.169C43.8091 270.347 44.1646 270.664 44.1646 271.134C44.1646 271.762 43.5044 272.2 42.584 272.2C41.708 272.2 41.1621 271.832 40.978 271.254H39.8545C39.9751 272.391 41.0225 273.121 42.5459 273.121C44.1011 273.121 45.2881 272.276 45.2881 271.051C45.2881 270.067 44.666 269.509 43.3774 269.198L42.3237 268.944C41.5176 268.747 41.1367 268.455 41.1367 267.985C41.1367 267.376 41.7715 266.963 42.584 266.963C43.4092 266.963 43.9424 267.325 44.0884 267.871H45.1675C45.0215 266.748 44.0249 266.037 42.5903 266.037C41.1367 266.037 40.0386 266.894 40.0386 268.03Z" fill="#67789D"/>
  <path d="M82.2119 301H83.3545V291.84H82.2183L79.7808 293.592V294.798L82.1104 293.11H82.2119V301ZM88.0137 296.779H89.1499C90.4385 296.779 91.2319 297.439 91.2319 298.499C91.2319 299.527 90.375 300.219 89.1689 300.219C87.9883 300.219 87.1631 299.604 87.0615 298.639H85.957C86.0396 300.194 87.3218 301.216 89.1816 301.216C91.0034 301.216 92.4062 300.067 92.4062 298.531C92.4062 297.255 91.6191 296.449 90.4321 296.258V296.157C91.3716 295.884 92.0571 295.154 92.0635 294.049C92.0698 292.767 91.0288 291.625 89.2197 291.625C87.3662 291.625 86.23 292.723 86.1157 294.214H87.2266C87.3218 293.186 88.0391 292.621 89.1436 292.621C90.248 292.621 90.9019 293.319 90.9019 294.176C90.9019 295.128 90.1528 295.801 89.0991 295.801H88.0137V296.779ZM95.1484 294.786C95.6055 294.786 95.9736 294.411 95.9736 293.96C95.9736 293.503 95.6055 293.135 95.1484 293.135C94.6978 293.135 94.3232 293.503 94.3232 293.96C94.3232 294.411 94.6978 294.786 95.1484 294.786ZM95.1484 299.699C95.6055 299.699 95.9736 299.324 95.9736 298.874C95.9736 298.417 95.6055 298.048 95.1484 298.048C94.6978 298.048 94.3232 298.417 94.3232 298.874C94.3232 299.324 94.6978 299.699 95.1484 299.699ZM101.179 301.216C103.235 301.216 104.416 299.477 104.416 296.436C104.416 293.402 103.216 291.625 101.179 291.625C99.1284 291.625 97.9287 293.396 97.9287 296.417C97.9287 299.464 99.1157 301.216 101.179 301.216ZM101.179 300.219C99.8267 300.219 99.0776 298.867 99.0776 296.417C99.0776 293.999 99.8394 292.627 101.179 292.627C102.518 292.627 103.267 293.986 103.267 296.417C103.267 298.874 102.531 300.219 101.179 300.219ZM109.367 301.216C111.424 301.216 112.604 299.477 112.604 296.436C112.604 293.402 111.405 291.625 109.367 291.625C107.317 291.625 106.117 293.396 106.117 296.417C106.117 299.464 107.304 301.216 109.367 301.216ZM109.367 300.219C108.015 300.219 107.266 298.867 107.266 296.417C107.266 293.999 108.028 292.627 109.367 292.627C110.707 292.627 111.456 293.986 111.456 296.417C111.456 298.874 110.719 300.219 109.367 300.219Z" fill="#67789D"/>
  <path d="M173.212 301H174.354V291.84H173.218L170.781 293.592V294.798L173.11 293.11H173.212V301ZM179.014 296.779H180.15C181.438 296.779 182.232 297.439 182.232 298.499C182.232 299.527 181.375 300.219 180.169 300.219C178.988 300.219 178.163 299.604 178.062 298.639H176.957C177.04 300.194 178.322 301.216 180.182 301.216C182.003 301.216 183.406 300.067 183.406 298.531C183.406 297.255 182.619 296.449 181.432 296.258V296.157C182.372 295.884 183.057 295.154 183.063 294.049C183.07 292.767 182.029 291.625 180.22 291.625C178.366 291.625 177.23 292.723 177.116 294.214H178.227C178.322 293.186 179.039 292.621 180.144 292.621C181.248 292.621 181.902 293.319 181.902 294.176C181.902 295.128 181.153 295.801 180.099 295.801H179.014V296.779ZM186.148 294.786C186.605 294.786 186.974 294.411 186.974 293.96C186.974 293.503 186.605 293.135 186.148 293.135C185.698 293.135 185.323 293.503 185.323 293.96C185.323 294.411 185.698 294.786 186.148 294.786ZM186.148 299.699C186.605 299.699 186.974 299.324 186.974 298.874C186.974 298.417 186.605 298.048 186.148 298.048C185.698 298.048 185.323 298.417 185.323 298.874C185.323 299.324 185.698 299.699 186.148 299.699ZM192.179 301.216C194.235 301.216 195.416 299.477 195.416 296.436C195.416 293.402 194.216 291.625 192.179 291.625C190.128 291.625 188.929 293.396 188.929 296.417C188.929 299.464 190.116 301.216 192.179 301.216ZM192.179 300.219C190.827 300.219 190.078 298.867 190.078 296.417C190.078 293.999 190.839 292.627 192.179 292.627C193.518 292.627 194.267 293.986 194.267 296.417C194.267 298.874 193.531 300.219 192.179 300.219ZM200.335 301.216C202.208 301.216 203.484 299.921 203.484 298.036C203.484 296.22 202.214 295.014 200.678 295.014C199.764 295.014 199.085 295.293 198.641 295.846H198.539L198.825 292.862H203.014V291.84H197.93L197.403 297.077H198.476C198.837 296.398 199.523 295.998 200.393 295.998C201.548 295.998 202.341 296.83 202.341 298.067C202.341 299.35 201.548 300.213 200.348 300.213C199.269 300.213 198.482 299.559 198.38 298.582H197.257C197.358 300.149 198.603 301.216 200.335 301.216Z" fill="#67789D"/>
  <path d="M264.212 301H265.354V291.84H264.218L261.781 293.592V294.798L264.11 293.11H264.212V301ZM270.014 296.779H271.15C272.438 296.779 273.232 297.439 273.232 298.499C273.232 299.527 272.375 300.219 271.169 300.219C269.988 300.219 269.163 299.604 269.062 298.639H267.957C268.04 300.194 269.322 301.216 271.182 301.216C273.003 301.216 274.406 300.067 274.406 298.531C274.406 297.255 273.619 296.449 272.432 296.258V296.157C273.372 295.884 274.057 295.154 274.063 294.049C274.07 292.767 273.029 291.625 271.22 291.625C269.366 291.625 268.23 292.723 268.116 294.214H269.227C269.322 293.186 270.039 292.621 271.144 292.621C272.248 292.621 272.902 293.319 272.902 294.176C272.902 295.128 272.153 295.801 271.099 295.801H270.014V296.779ZM277.148 294.786C277.605 294.786 277.974 294.411 277.974 293.96C277.974 293.503 277.605 293.135 277.148 293.135C276.698 293.135 276.323 293.503 276.323 293.96C276.323 294.411 276.698 294.786 277.148 294.786ZM277.148 299.699C277.605 299.699 277.974 299.324 277.974 298.874C277.974 298.417 277.605 298.048 277.148 298.048C276.698 298.048 276.323 298.417 276.323 298.874C276.323 299.324 276.698 299.699 277.148 299.699ZM282.29 301H283.433V291.84H282.296L279.859 293.592V294.798L282.188 293.11H282.29V301ZM289.247 301.216C291.304 301.216 292.484 299.477 292.484 296.436C292.484 293.402 291.285 291.625 289.247 291.625C287.197 291.625 285.997 293.396 285.997 296.417C285.997 299.464 287.184 301.216 289.247 301.216ZM289.247 300.219C287.895 300.219 287.146 298.867 287.146 296.417C287.146 293.999 287.908 292.627 289.247 292.627C290.586 292.627 291.335 293.986 291.335 296.417C291.335 298.874 290.599 300.219 289.247 300.219Z" fill="#67789D"/>
  <path d="M353.212 301H354.354V291.84H353.218L350.781 293.592V294.798L353.11 293.11H353.212V301ZM359.014 296.779H360.15C361.438 296.779 362.232 297.439 362.232 298.499C362.232 299.527 361.375 300.219 360.169 300.219C358.988 300.219 358.163 299.604 358.062 298.639H356.957C357.04 300.194 358.322 301.216 360.182 301.216C362.003 301.216 363.406 300.067 363.406 298.531C363.406 297.255 362.619 296.449 361.432 296.258V296.157C362.372 295.884 363.057 295.154 363.063 294.049C363.07 292.767 362.029 291.625 360.22 291.625C358.366 291.625 357.23 292.723 357.116 294.214H358.227C358.322 293.186 359.039 292.621 360.144 292.621C361.248 292.621 361.902 293.319 361.902 294.176C361.902 295.128 361.153 295.801 360.099 295.801H359.014V296.779ZM366.148 294.786C366.605 294.786 366.974 294.411 366.974 293.96C366.974 293.503 366.605 293.135 366.148 293.135C365.698 293.135 365.323 293.503 365.323 293.96C365.323 294.411 365.698 294.786 366.148 294.786ZM366.148 299.699C366.605 299.699 366.974 299.324 366.974 298.874C366.974 298.417 366.605 298.048 366.148 298.048C365.698 298.048 365.323 298.417 365.323 298.874C365.323 299.324 365.698 299.699 366.148 299.699ZM371.29 301H372.433V291.84H371.296L368.859 293.592V294.798L371.188 293.11H371.29V301ZM378.215 301.216C380.088 301.216 381.364 299.921 381.364 298.036C381.364 296.22 380.094 295.014 378.558 295.014C377.644 295.014 376.965 295.293 376.521 295.846H376.419L376.705 292.862H380.894V291.84H375.81L375.283 297.077H376.355C376.717 296.398 377.403 295.998 378.272 295.998C379.428 295.998 380.221 296.83 380.221 298.067C380.221 299.35 379.428 300.213 378.228 300.213C377.149 300.213 376.362 299.559 376.26 298.582H375.137C375.238 300.149 376.482 301.216 378.215 301.216Z" fill="#67789D"/>
  <path d="M442.212 301H443.354V291.84H442.218L439.781 293.592V294.798L442.11 293.11H442.212V301ZM448.014 296.779H449.15C450.438 296.779 451.232 297.439 451.232 298.499C451.232 299.527 450.375 300.219 449.169 300.219C447.988 300.219 447.163 299.604 447.062 298.639H445.957C446.04 300.194 447.322 301.216 449.182 301.216C451.003 301.216 452.406 300.067 452.406 298.531C452.406 297.255 451.619 296.449 450.432 296.258V296.157C451.372 295.884 452.057 295.154 452.063 294.049C452.07 292.767 451.029 291.625 449.22 291.625C447.366 291.625 446.23 292.723 446.116 294.214H447.227C447.322 293.186 448.039 292.621 449.144 292.621C450.248 292.621 450.902 293.319 450.902 294.176C450.902 295.128 450.153 295.801 449.099 295.801H448.014V296.779ZM455.148 294.786C455.605 294.786 455.974 294.411 455.974 293.96C455.974 293.503 455.605 293.135 455.148 293.135C454.698 293.135 454.323 293.503 454.323 293.96C454.323 294.411 454.698 294.786 455.148 294.786ZM455.148 299.699C455.605 299.699 455.974 299.324 455.974 298.874C455.974 298.417 455.605 298.048 455.148 298.048C454.698 298.048 454.323 298.417 454.323 298.874C454.323 299.324 454.698 299.699 455.148 299.699ZM458.106 294.424H459.211C459.211 293.338 459.941 292.621 461.039 292.621C462.118 292.621 462.772 293.345 462.772 294.316C462.772 295.122 462.429 295.598 461.261 296.861L458.164 300.213V301H464.092V299.972H459.75V299.87L461.833 297.718C463.483 296.011 463.94 295.249 463.94 294.195C463.94 292.71 462.715 291.625 461.115 291.625C459.363 291.625 458.106 292.792 458.106 294.424ZM469.101 301.216C471.157 301.216 472.338 299.477 472.338 296.436C472.338 293.402 471.138 291.625 469.101 291.625C467.05 291.625 465.851 293.396 465.851 296.417C465.851 299.464 467.038 301.216 469.101 301.216ZM469.101 300.219C467.749 300.219 467 298.867 467 296.417C467 293.999 467.761 292.627 469.101 292.627C470.44 292.627 471.189 293.986 471.189 296.417C471.189 298.874 470.453 300.219 469.101 300.219Z" fill="#67789D"/>
  <rect width="480" height="211" transform="translate(79 67)" fill="white"/>
  <path d="M79 236C84.1667 231 96.6 222.9 105 230.5C113.4 238.1 131.5 238.667 139.5 238C144 238 154.2 238.3 159 239.5C165 241 169 239.5 174 236C179 232.5 179 227 193 232.5C207 238 214.5 245 225 241.5C235.5 238 238.5 239.5 247 239.5C255.5 239.5 258 238.5 262.5 235.5C267 232.5 271.5 230.5 280.5 236C289.5 241.5 305.5 243.5 323 240.5C340.5 237.5 371.5 237 394.5 239.5C417.5 242 425.5 241.5 431.5 238.5C437.5 235.5 442 232.5 448.5 234.5C455 236.5 462 236.5 471.5 236.5C481 236.5 497 238.5 506.5 237.5C516 236.5 530.5 238.5 535.5 240C540.5 241.5 548.5 243.5 555.5 237.5C561.1 232.7 560.5 233.5 559.5 234.5" stroke="#9AAF12"/>
  <path d="M79 246C83.6667 240.833 95.5 232.6 105.5 241C115.5 249.4 131 248.5 139.5 248.5C144.667 248.5 156 248.7 160 249.5C165 250.5 168.5 250 175.5 245C182.5 240 186 240.5 200.5 246C215 251.5 216 252.5 227 250.5C234 249.227 244.5 250.5 247 250.5C253.5 251.5 257.5 251 263.5 245C265.333 242.833 271.1 240.2 279.5 247C290 255.5 310 251.5 311 251.5C312 251.5 341 247 353.5 248C366.459 249.037 380.998 248.969 388.5 248.5C396.5 248 397 251.5 408.5 251.5H421C423.667 251.667 430 251.2 434 248C439 244 446 244 450 245.5C454 247 462.5 248.5 470 247.5C477.5 246.5 483 247.5 486 248.5C489 249.5 505.5 249.5 514 248.5C522.5 247.5 538 249.5 542.5 250C547 250.5 552.5 251.5 559 246.5" stroke="#B08610"/>
  <path d="M79 260C86.5 257 98 254 109.5 259.5C121 265 140 263 144.5 262.5C149 262 154.5 262.5 159 262.5C163.5 262.5 169.5 263 174.5 261C179.5 259 196 259.5 199.5 261C203 262.5 216.5 264 227.5 263C238.5 262 241.5 262.5 246.5 263C251.5 263.5 258 263 261.5 261.5C265 260 271.5 258.5 278.5 261.5C285.5 264.5 302 263.5 306 263.5C310 263.5 319.5 263 326.5 263.5C333.5 264 336.5 261 345.5 261.5C354.5 262 369.5 262.5 376.5 262.5C383.5 262.5 392 261 400 263C408 265 425.5 264.5 429 263.5C432.5 262.5 437.5 259.5 450.5 261.5C463.5 263.5 474 262 477.5 262C481 262 497 263 502.5 263C508 263 522.5 262 528.5 262C534.5 262 539.5 263 546 263C551.2 263 556.833 261.667 559 261" stroke="#AF4714"/>
  <path d="M79 262C89 256.5 92 253 104 257.5C116 262 119.5 258 123 256C126.5 254 133 251 139.5 256.5C146 262 162 258.5 167.5 255C173 251.5 180 244 192.5 251.5C205 259 220.5 258 226 257.5C231.5 257 238.5 256.5 247 257C255.5 257.5 258.5 256 261.5 255C264.5 254 266.5 251.5 280.5 253.5C294.5 255.5 299 255 305.5 255C312 255 322 255 328.5 257C335 259 339 259 345 257C351 255 357 253 369 253.5C381 254 383 254.5 392 254.5C401 254.5 405 254 410.5 254C416 254 424.5 259 432.5 255.5C440.5 252 443 251.5 453.5 253.5C464 255.5 465 255 470 251.5C475 248 484.5 250 489 252.5C493.5 255 512.5 260.5 521 258.5C529.5 256.5 540 256.5 545 257C549 257.4 556 254.833 559 253.5" stroke="#10AE47"/>
  <path d="M79 273C93 273 110.5 273 113 273C115.5 273 119 268.5 123.5 257C128 245.5 131 244 139 243.5C147 243 150.5 245.5 152 221C153.5 196.5 159.5 79 165.5 79C171.5 79 174.5 273 182.5 273C190.5 273 233.5 273 235.5 273C237.5 273 246 204 252 204C258 204 265 273 268.5 273C272 273 354 273 357.5 273C361 273 367 257 373.5 257C380 257 385 273 390 273C395 273 440 273 443.5 273C447 273 454.5 245 460.5 245C466.5 245 471.5 273 477.5 273C482.3 273 533.833 273 559 273" stroke="#8612AF"/>
  <path d="M79 273C88 273 107.8 273 115 273C124 273 142.5 254.5 146.5 246C150.5 237.5 156.5 174 165 174.5C173.5 175 175 273 182.5 273C190 273 233 273 236 273C239 273 244.5 253 252 253C259.5 253 261.5 273 268.5 273C275.5 273 357 273 358.5 273C360 273 367 268 374 268C381 268 383.5 273 390 273C396.5 273 437.5 273 443.5 273C449.5 273 452 254.5 460 255C468 255.5 470 273 477 273C482.6 273 534.333 273 559.5 273" stroke="#121EAF"/>
  <path d="M79 270C83.5 268 91.5 264 105.5 266.5C119.5 269 121.5 268 128.5 268C135.5 268 147 270 154.5 270C162 270 177.5 268 183 268C188.5 268 204.5 270.5 210 270C215.5 269.5 225 269.5 227.5 270.5C230 271.5 241 271 244 269.5C247 268 255.5 266.5 261 268.5C266.5 270.5 273.5 271 278.5 268.5C283.5 266 294.5 268 298 269C301.5 270 315.5 271 320.5 271C325.5 271 335 268 341 269C347 270 353 271 358 271C363 271 374.5 269 381.5 270C388.5 271 399 272 402.5 271C406 270 439 267 445.5 268.5C452 270 462.5 271 470 268.5C477.5 266 483 266.5 486.5 268.5C490 270.5 510.5 271.5 520 270.5C529.5 269.5 536 269 542.5 270C549 271 556 270.5 559 270.5" stroke="#139BAE"/>
  <path d="M79 267C84.5 265 107.5 259 126.5 263.5C145.5 268 170 267 175 266C180 265 199 263 207 265C215 267 233.5 270.5 242 266C250.5 261.5 252.5 258 262 266C271.5 274 276.5 266.5 279.5 264C282.5 261.5 289 259 297.5 266C306 273 319.5 269 324 267.5C328.5 266 342 263.5 349.5 267.5C357 271.5 363.5 267.5 367 266.5C370.5 265.5 377.5 264.5 385.5 268.5C393.5 272.5 399.5 268 403.5 266.5C407.5 265 416 265 421.5 265C427 265 434.5 263 437 262C439.5 261 445 259 451 265C457 271 463 271 470 265C477 259 481 260.5 486.5 264.5C492 268.5 498.5 270 513 268.5C527.5 267 539 268.5 546 269C553 269.5 553.5 269.5 559 269" stroke="#135DAE"/>
  <rect width="508" height="324" fill="url(#paint0_linear)"/>
  <defs>
    <filter id="filter0_dd" x="-3" y="-2" width="774" height="366" filterUnits="userSpaceOnUse" color-interpolation-filters="sRGB">
      <feFlood flood-opacity="0" result="BackgroundImageFix"/>
      <feColorMatrix in="SourceAlpha" type="matrix" values="0 0 0 0 0 0 0 0 0 0 0 0 0 0 0 0 0 0 127 0"/>
      <feOffset dy="1"/>
      <feGaussianBlur stdDeviation="1.5"/>
      <feColorMatrix type="matrix" values="0 0 0 0 0.0392157 0 0 0 0 0.0823529 0 0 0 0 0.188235 0 0 0 0.1 0"/>
      <feBlend mode="normal" in2="BackgroundImageFix" result="effect1_dropShadow"/>
      <feColorMatrix in="SourceAlpha" type="matrix" values="0 0 0 0 0 0 0 0 0 0 0 0 0 0 0 0 0 0 127 0"/>
      <feOffset dy="1"/>
      <feGaussianBlur stdDeviation="1"/>
      <feColorMatrix type="matrix" values="0 0 0 0 0.0392157 0 0 0 0 0.0823529 0 0 0 0 0.188235 0 0 0 0.06 0"/>
      <feBlend mode="normal" in2="effect1_dropShadow" result="effect2_dropShadow"/>
      <feBlend mode="normal" in="SourceGraphic" in2="effect2_dropShadow" result="shape"/>
    </filter>
    <linearGradient id="paint0_linear" x1="254" y1="0" x2="254" y2="324" gradientUnits="userSpaceOnUse">
      <stop offset="0.520833" stop-color="#1A294A" stop-opacity="0"/>
      <stop offset="1" stop-color="#1A294A" stop-opacity="0.16"/>
    </linearGradient>
    <clipPath id="clip0">
      <rect width="508" height="324" fill="white"/>
    </clipPath>
    <clipPath id="clip1">
      <rect width="480" height="211" fill="white" transform="translate(79 67)"/>
    </clipPath>
  </defs>
</svg>
