<svg width="508" height="324" viewBox="0 0 508 324" fill="none" xmlns="http://www.w3.org/2000/svg">
<g clip-path="url(#clip0)">
<rect width="768" height="338" rx="8" fill="white"/>
<path d="M53.9365 204.647C53.9365 205.714 54.5654 206.309 55.9463 206.644L57.2109 206.951C57.9971 207.143 58.3799 207.484 58.3799 207.99C58.3799 208.667 57.6689 209.139 56.6777 209.139C55.7344 209.139 55.1465 208.742 54.9482 208.12H53.7383C53.8682 209.344 54.9961 210.13 56.6367 210.13C58.3115 210.13 59.5898 209.221 59.5898 207.901C59.5898 206.842 58.9199 206.24 57.5322 205.905L56.3975 205.632C55.5293 205.42 55.1191 205.105 55.1191 204.6C55.1191 203.943 55.8027 203.499 56.6777 203.499C57.5664 203.499 58.1406 203.889 58.2979 204.477H59.46C59.3027 203.267 58.2295 202.501 56.6846 202.501C55.1191 202.501 53.9365 203.424 53.9365 204.647ZM64.4639 210.13C66.5625 210.13 67.8613 208.681 67.8613 206.315C67.8613 203.943 66.5625 202.501 64.4639 202.501C62.3652 202.501 61.0664 203.943 61.0664 206.315C61.0664 208.681 62.3652 210.13 64.4639 210.13ZM64.4639 209.07C63.0693 209.07 62.2832 208.059 62.2832 206.315C62.2832 204.565 63.0693 203.561 64.4639 203.561C65.8584 203.561 66.6445 204.565 66.6445 206.315C66.6445 208.059 65.8584 209.07 64.4639 209.07ZM75.668 202.631H74.4922V206.992C74.4922 208.284 73.7812 209.057 72.4824 209.057C71.3066 209.057 70.8145 208.441 70.8145 207.115V202.631H69.6387V207.402C69.6387 209.146 70.5 210.13 72.1543 210.13C73.2822 210.13 74.0684 209.665 74.4375 208.845H74.5469V210H75.668V202.631ZM77.8828 210H79.0586V205.434C79.0586 204.395 79.8721 203.643 80.9932 203.643C81.2256 203.643 81.6494 203.684 81.7451 203.711V202.535C81.5947 202.515 81.3486 202.501 81.1572 202.501C80.1797 202.501 79.332 203.007 79.1133 203.725H79.0039V202.631H77.8828V210ZM89.1074 204.887C88.9023 203.574 87.8086 202.501 86.0176 202.501C83.9531 202.501 82.6406 203.991 82.6406 206.288C82.6406 208.633 83.96 210.13 86.0244 210.13C87.7949 210.13 88.8955 209.132 89.1074 207.778H87.918C87.6992 208.612 87.0088 209.07 86.0176 209.07C84.7051 209.07 83.8574 207.99 83.8574 206.288C83.8574 204.62 84.6914 203.561 86.0176 203.561C87.0771 203.561 87.7266 204.155 87.918 204.887H89.1074ZM93.7832 203.54C94.9521 203.54 95.7314 204.401 95.7588 205.707H91.6982C91.7871 204.401 92.6074 203.54 93.7832 203.54ZM95.7246 208.093C95.417 208.742 94.7744 209.091 93.8242 209.091C92.5732 209.091 91.7598 208.168 91.6982 206.712V206.657H96.9961V206.206C96.9961 203.916 95.7861 202.501 93.7969 202.501C91.7734 202.501 90.4746 204.005 90.4746 206.322C90.4746 208.653 91.7529 210.13 93.7969 210.13C95.4102 210.13 96.5586 209.351 96.9004 208.093H95.7246ZM98.8418 210H100.018V205.434C100.018 204.395 100.763 203.561 101.727 203.561C102.656 203.561 103.265 204.121 103.265 204.996V210H104.44V205.263C104.44 204.326 105.124 203.561 106.149 203.561C107.188 203.561 107.701 204.094 107.701 205.181V210H108.877V204.907C108.877 203.362 108.036 202.501 106.532 202.501C105.514 202.501 104.673 203.014 104.276 203.793H104.167C103.825 203.027 103.128 202.501 102.13 202.501C101.146 202.501 100.407 202.973 100.072 203.793H99.9629V202.631H98.8418V210ZM113.293 209.098C112.438 209.098 111.803 208.66 111.803 207.908C111.803 207.17 112.295 206.78 113.416 206.705L115.398 206.575V207.252C115.398 208.305 114.503 209.098 113.293 209.098ZM113.074 210.13C114.059 210.13 114.865 209.699 115.344 208.913H115.453V210H116.574V204.955C116.574 203.424 115.569 202.501 113.771 202.501C112.199 202.501 111.037 203.28 110.88 204.463H112.069C112.233 203.882 112.849 203.547 113.73 203.547C114.831 203.547 115.398 204.046 115.398 204.955V205.625L113.272 205.755C111.557 205.857 110.586 206.616 110.586 207.936C110.586 209.282 111.646 210.13 113.074 210.13ZM122.337 202.501C121.332 202.501 120.45 203.014 119.979 203.861H119.869V202.631H118.748V212.461H119.924V208.893H120.033C120.437 209.672 121.284 210.13 122.337 210.13C124.21 210.13 125.434 208.619 125.434 206.315C125.434 203.998 124.217 202.501 122.337 202.501ZM122.057 209.07C120.73 209.07 119.89 208.004 119.89 206.315C119.89 204.62 120.73 203.561 122.063 203.561C123.41 203.561 124.217 204.593 124.217 206.315C124.217 208.038 123.41 209.07 122.057 209.07ZM132.297 211.606V210.731H125.898V211.606H132.297ZM137.54 202.501C136.535 202.501 135.653 203.014 135.182 203.861H135.072V202.631H133.951V212.461H135.127V208.893H135.236C135.64 209.672 136.487 210.13 137.54 210.13C139.413 210.13 140.637 208.619 140.637 206.315C140.637 203.998 139.42 202.501 137.54 202.501ZM137.26 209.07C135.934 209.07 135.093 208.004 135.093 206.315C135.093 204.62 135.934 203.561 137.267 203.561C138.613 203.561 139.42 204.593 139.42 206.315C139.42 208.038 138.613 209.07 137.26 209.07ZM142.482 210H143.658V205.434C143.658 204.395 144.472 203.643 145.593 203.643C145.825 203.643 146.249 203.684 146.345 203.711V202.535C146.194 202.515 145.948 202.501 145.757 202.501C144.779 202.501 143.932 203.007 143.713 203.725H143.604V202.631H142.482V210ZM150.638 210.13C152.736 210.13 154.035 208.681 154.035 206.315C154.035 203.943 152.736 202.501 150.638 202.501C148.539 202.501 147.24 203.943 147.24 206.315C147.24 208.681 148.539 210.13 150.638 210.13ZM150.638 209.07C149.243 209.07 148.457 208.059 148.457 206.315C148.457 204.565 149.243 203.561 150.638 203.561C152.032 203.561 152.818 204.565 152.818 206.315C152.818 208.059 152.032 209.07 150.638 209.07ZM161.979 204.887C161.773 203.574 160.68 202.501 158.889 202.501C156.824 202.501 155.512 203.991 155.512 206.288C155.512 208.633 156.831 210.13 158.896 210.13C160.666 210.13 161.767 209.132 161.979 207.778H160.789C160.57 208.612 159.88 209.07 158.889 209.07C157.576 209.07 156.729 207.99 156.729 206.288C156.729 204.62 157.562 203.561 158.889 203.561C159.948 203.561 160.598 204.155 160.789 204.887H161.979ZM166.654 203.54C167.823 203.54 168.603 204.401 168.63 205.707H164.569C164.658 204.401 165.479 203.54 166.654 203.54ZM168.596 208.093C168.288 208.742 167.646 209.091 166.695 209.091C165.444 209.091 164.631 208.168 164.569 206.712V206.657H169.867V206.206C169.867 203.916 168.657 202.501 166.668 202.501C164.645 202.501 163.346 204.005 163.346 206.322C163.346 208.653 164.624 210.13 166.668 210.13C168.281 210.13 169.43 209.351 169.771 208.093H168.596ZM171.542 204.647C171.542 205.714 172.171 206.309 173.552 206.644L174.816 206.951C175.603 207.143 175.985 207.484 175.985 207.99C175.985 208.667 175.274 209.139 174.283 209.139C173.34 209.139 172.752 208.742 172.554 208.12H171.344C171.474 209.344 172.602 210.13 174.242 210.13C175.917 210.13 177.195 209.221 177.195 207.901C177.195 206.842 176.525 206.24 175.138 205.905L174.003 205.632C173.135 205.42 172.725 205.105 172.725 204.6C172.725 203.943 173.408 203.499 174.283 203.499C175.172 203.499 175.746 203.889 175.903 204.477H177.065C176.908 203.267 175.835 202.501 174.29 202.501C172.725 202.501 171.542 203.424 171.542 204.647ZM178.733 204.647C178.733 205.714 179.362 206.309 180.743 206.644L182.008 206.951C182.794 207.143 183.177 207.484 183.177 207.99C183.177 208.667 182.466 209.139 181.475 209.139C180.531 209.139 179.943 208.742 179.745 208.12H178.535C178.665 209.344 179.793 210.13 181.434 210.13C183.108 210.13 184.387 209.221 184.387 207.901C184.387 206.842 183.717 206.24 182.329 205.905L181.194 205.632C180.326 205.42 179.916 205.105 179.916 204.6C179.916 203.943 180.6 203.499 181.475 203.499C182.363 203.499 182.938 203.889 183.095 204.477H184.257C184.1 203.267 183.026 202.501 181.481 202.501C179.916 202.501 178.733 203.424 178.733 204.647ZM189.261 210.13C191.359 210.13 192.658 208.681 192.658 206.315C192.658 203.943 191.359 202.501 189.261 202.501C187.162 202.501 185.863 203.943 185.863 206.315C185.863 208.681 187.162 210.13 189.261 210.13ZM189.261 209.07C187.866 209.07 187.08 208.059 187.08 206.315C187.08 204.565 187.866 203.561 189.261 203.561C190.655 203.561 191.441 204.565 191.441 206.315C191.441 208.059 190.655 209.07 189.261 209.07ZM194.504 210H195.68V205.434C195.68 204.395 196.493 203.643 197.614 203.643C197.847 203.643 198.271 203.684 198.366 203.711V202.535C198.216 202.515 197.97 202.501 197.778 202.501C196.801 202.501 195.953 203.007 195.734 203.725H195.625V202.631H194.504V210ZM203.814 210H204.99V202.631H203.814V210ZM204.402 201.209C204.854 201.209 205.223 200.84 205.223 200.389C205.223 199.938 204.854 199.568 204.402 199.568C203.951 199.568 203.582 199.938 203.582 200.389C203.582 200.84 203.951 201.209 204.402 201.209ZM207.232 210H208.408V205.639C208.408 204.347 209.167 203.561 210.343 203.561C211.519 203.561 212.079 204.189 212.079 205.516V210H213.255V205.229C213.255 203.479 212.332 202.501 210.678 202.501C209.55 202.501 208.832 202.979 208.463 203.793H208.354V202.631H207.232V210Z" fill="#67789D"/>
<rect x="223" y="196.5" width="65" height="17" rx="2" fill="#F5F7F9"/>
<path d="M231.025 203.072C230.164 203.072 229.408 203.512 229.004 204.238H228.91V203.184H227.949V211.609H228.957V208.551H229.051C229.396 209.219 230.123 209.611 231.025 209.611C232.631 209.611 233.68 208.316 233.68 206.342C233.68 204.355 232.637 203.072 231.025 203.072ZM230.785 208.703C229.648 208.703 228.928 207.789 228.928 206.342C228.928 204.889 229.648 203.98 230.791 203.98C231.945 203.98 232.637 204.865 232.637 206.342C232.637 207.818 231.945 208.703 230.785 208.703ZM235.262 209.5H236.27V205.586C236.27 204.695 236.967 204.051 237.928 204.051C238.127 204.051 238.49 204.086 238.572 204.109V203.102C238.443 203.084 238.232 203.072 238.068 203.072C237.23 203.072 236.504 203.506 236.316 204.121H236.223V203.184H235.262V209.5ZM242.252 209.611C244.051 209.611 245.164 208.369 245.164 206.342C245.164 204.309 244.051 203.072 242.252 203.072C240.453 203.072 239.34 204.309 239.34 206.342C239.34 208.369 240.453 209.611 242.252 209.611ZM242.252 208.703C241.057 208.703 240.383 207.836 240.383 206.342C240.383 204.842 241.057 203.98 242.252 203.98C243.447 203.98 244.121 204.842 244.121 206.342C244.121 207.836 243.447 208.703 242.252 208.703ZM251.973 205.117C251.797 203.992 250.859 203.072 249.324 203.072C247.555 203.072 246.43 204.35 246.43 206.318C246.43 208.328 247.561 209.611 249.33 209.611C250.848 209.611 251.791 208.756 251.973 207.596H250.953C250.766 208.311 250.174 208.703 249.324 208.703C248.199 208.703 247.473 207.777 247.473 206.318C247.473 204.889 248.188 203.98 249.324 203.98C250.232 203.98 250.789 204.49 250.953 205.117H251.973ZM255.98 203.963C256.982 203.963 257.65 204.701 257.674 205.82H254.193C254.27 204.701 254.973 203.963 255.98 203.963ZM257.645 207.865C257.381 208.422 256.83 208.721 256.016 208.721C254.943 208.721 254.246 207.93 254.193 206.682V206.635H258.734V206.248C258.734 204.285 257.697 203.072 255.992 203.072C254.258 203.072 253.145 204.361 253.145 206.348C253.145 208.346 254.24 209.611 255.992 209.611C257.375 209.611 258.359 208.943 258.652 207.865H257.645ZM260.17 204.912C260.17 205.826 260.709 206.336 261.893 206.623L262.977 206.887C263.65 207.051 263.979 207.344 263.979 207.777C263.979 208.357 263.369 208.762 262.52 208.762C261.711 208.762 261.207 208.422 261.037 207.889H260C260.111 208.938 261.078 209.611 262.484 209.611C263.92 209.611 265.016 208.832 265.016 207.701C265.016 206.793 264.441 206.277 263.252 205.99L262.279 205.756C261.535 205.574 261.184 205.305 261.184 204.871C261.184 204.309 261.77 203.928 262.52 203.928C263.281 203.928 263.773 204.262 263.908 204.766H264.904C264.77 203.729 263.85 203.072 262.525 203.072C261.184 203.072 260.17 203.863 260.17 204.912ZM266.334 204.912C266.334 205.826 266.873 206.336 268.057 206.623L269.141 206.887C269.814 207.051 270.143 207.344 270.143 207.777C270.143 208.357 269.533 208.762 268.684 208.762C267.875 208.762 267.371 208.422 267.201 207.889H266.164C266.275 208.938 267.242 209.611 268.648 209.611C270.084 209.611 271.18 208.832 271.18 207.701C271.18 206.793 270.605 206.277 269.416 205.99L268.443 205.756C267.699 205.574 267.348 205.305 267.348 204.871C267.348 204.309 267.934 203.928 268.684 203.928C269.445 203.928 269.938 204.262 270.072 204.766H271.068C270.934 203.729 270.014 203.072 268.689 203.072C267.348 203.072 266.334 203.863 266.334 204.912ZM275.357 209.611C277.156 209.611 278.27 208.369 278.27 206.342C278.27 204.309 277.156 203.072 275.357 203.072C273.559 203.072 272.445 204.309 272.445 206.342C272.445 208.369 273.559 209.611 275.357 209.611ZM275.357 208.703C274.162 208.703 273.488 207.836 273.488 206.342C273.488 204.842 274.162 203.98 275.357 203.98C276.553 203.98 277.227 204.842 277.227 206.342C277.227 207.836 276.553 208.703 275.357 208.703ZM279.852 209.5H280.859V205.586C280.859 204.695 281.557 204.051 282.518 204.051C282.717 204.051 283.08 204.086 283.162 204.109V203.102C283.033 203.084 282.822 203.072 282.658 203.072C281.82 203.072 281.094 203.506 280.906 204.121H280.812V203.184H279.852V209.5Z" fill="#67789D"/>
<path d="M53.7861 185.423C53.916 187.125 55.3584 188.232 57.4502 188.232C59.7061 188.232 61.1348 187.077 61.1348 185.266C61.1348 183.816 60.3145 183.023 58.2705 182.511L57.2383 182.237C55.8779 181.889 55.3379 181.444 55.3379 180.672C55.3379 179.674 56.2061 179.018 57.5186 179.018C58.749 179.018 59.583 179.619 59.7539 180.631H60.9912C60.8887 179.038 59.4668 177.903 57.5596 177.903C55.4746 177.903 54.0732 179.038 54.0732 180.713C54.0732 182.114 54.8457 182.921 56.6299 183.372L57.8945 183.7C59.2549 184.042 59.8701 184.575 59.8701 185.416C59.8701 186.394 58.8926 187.111 57.5664 187.111C56.165 187.111 55.1807 186.455 55.0303 185.423H53.7861ZM66.0635 188.13C68.1621 188.13 69.4609 186.681 69.4609 184.315C69.4609 181.943 68.1621 180.501 66.0635 180.501C63.9648 180.501 62.666 181.943 62.666 184.315C62.666 186.681 63.9648 188.13 66.0635 188.13ZM66.0635 187.07C64.6689 187.07 63.8828 186.059 63.8828 184.315C63.8828 182.565 64.6689 181.561 66.0635 181.561C67.458 181.561 68.2441 182.565 68.2441 184.315C68.2441 186.059 67.458 187.07 66.0635 187.07ZM77.2676 180.631H76.0918V184.992C76.0918 186.284 75.3809 187.057 74.082 187.057C72.9062 187.057 72.4141 186.441 72.4141 185.115V180.631H71.2383V185.402C71.2383 187.146 72.0996 188.13 73.7539 188.13C74.8818 188.13 75.668 187.665 76.0371 186.845H76.1465V188H77.2676V180.631ZM79.4824 188H80.6582V183.434C80.6582 182.395 81.4717 181.643 82.5928 181.643C82.8252 181.643 83.249 181.684 83.3447 181.711V180.535C83.1943 180.515 82.9482 180.501 82.7568 180.501C81.7793 180.501 80.9316 181.007 80.7129 181.725H80.6035V180.631H79.4824V188ZM90.707 182.887C90.502 181.574 89.4082 180.501 87.6172 180.501C85.5527 180.501 84.2402 181.991 84.2402 184.288C84.2402 186.633 85.5596 188.13 87.624 188.13C89.3945 188.13 90.4951 187.132 90.707 185.778H89.5176C89.2988 186.612 88.6084 187.07 87.6172 187.07C86.3047 187.07 85.457 185.99 85.457 184.288C85.457 182.62 86.291 181.561 87.6172 181.561C88.6768 181.561 89.3262 182.155 89.5176 182.887H90.707ZM95.3828 181.54C96.5518 181.54 97.3311 182.401 97.3584 183.707H93.2979C93.3867 182.401 94.207 181.54 95.3828 181.54ZM97.3242 186.093C97.0166 186.742 96.374 187.091 95.4238 187.091C94.1729 187.091 93.3594 186.168 93.2979 184.712V184.657H98.5957V184.206C98.5957 181.916 97.3857 180.501 95.3965 180.501C93.373 180.501 92.0742 182.005 92.0742 184.322C92.0742 186.653 93.3525 188.13 95.3965 188.13C97.0098 188.13 98.1582 187.351 98.5 186.093H97.3242ZM100.441 188H101.617V183.434C101.617 182.395 102.362 181.561 103.326 181.561C104.256 181.561 104.864 182.121 104.864 182.996V188H106.04V183.263C106.04 182.326 106.724 181.561 107.749 181.561C108.788 181.561 109.301 182.094 109.301 183.181V188H110.477V182.907C110.477 181.362 109.636 180.501 108.132 180.501C107.113 180.501 106.272 181.014 105.876 181.793H105.767C105.425 181.027 104.728 180.501 103.729 180.501C102.745 180.501 102.007 180.973 101.672 181.793H101.562V180.631H100.441V188ZM114.893 187.098C114.038 187.098 113.402 186.66 113.402 185.908C113.402 185.17 113.895 184.78 115.016 184.705L116.998 184.575V185.252C116.998 186.305 116.103 187.098 114.893 187.098ZM114.674 188.13C115.658 188.13 116.465 187.699 116.943 186.913H117.053V188H118.174V182.955C118.174 181.424 117.169 180.501 115.371 180.501C113.799 180.501 112.637 181.28 112.479 182.463H113.669C113.833 181.882 114.448 181.547 115.33 181.547C116.431 181.547 116.998 182.046 116.998 182.955V183.625L114.872 183.755C113.156 183.857 112.186 184.616 112.186 185.936C112.186 187.282 113.245 188.13 114.674 188.13ZM123.937 180.501C122.932 180.501 122.05 181.014 121.578 181.861H121.469V180.631H120.348V190.461H121.523V186.893H121.633C122.036 187.672 122.884 188.13 123.937 188.13C125.81 188.13 127.033 186.619 127.033 184.315C127.033 181.998 125.816 180.501 123.937 180.501ZM123.656 187.07C122.33 187.07 121.489 186.004 121.489 184.315C121.489 182.62 122.33 181.561 123.663 181.561C125.01 181.561 125.816 182.593 125.816 184.315C125.816 186.038 125.01 187.07 123.656 187.07ZM130.26 188V183.728H134.628V182.634H130.26V179.243H135.018V178.136H129.029V188H130.26ZM136.891 188H138.066V183.434C138.066 182.395 138.88 181.643 140.001 181.643C140.233 181.643 140.657 181.684 140.753 181.711V180.535C140.603 180.515 140.356 180.501 140.165 180.501C139.188 180.501 138.34 181.007 138.121 181.725H138.012V180.631H136.891V188ZM145.046 188.13C147.145 188.13 148.443 186.681 148.443 184.315C148.443 181.943 147.145 180.501 145.046 180.501C142.947 180.501 141.648 181.943 141.648 184.315C141.648 186.681 142.947 188.13 145.046 188.13ZM145.046 187.07C143.651 187.07 142.865 186.059 142.865 184.315C142.865 182.565 143.651 181.561 145.046 181.561C146.44 181.561 147.227 182.565 147.227 184.315C147.227 186.059 146.44 187.07 145.046 187.07ZM150.289 188H151.465V183.434C151.465 182.395 152.21 181.561 153.174 181.561C154.104 181.561 154.712 182.121 154.712 182.996V188H155.888V183.263C155.888 182.326 156.571 181.561 157.597 181.561C158.636 181.561 159.148 182.094 159.148 183.181V188H160.324V182.907C160.324 181.362 159.483 180.501 157.979 180.501C156.961 180.501 156.12 181.014 155.724 181.793H155.614C155.272 181.027 154.575 180.501 153.577 180.501C152.593 180.501 151.854 180.973 151.52 181.793H151.41V180.631H150.289V188ZM162.149 185.423C162.279 187.125 163.722 188.232 165.813 188.232C168.069 188.232 169.498 187.077 169.498 185.266C169.498 183.816 168.678 183.023 166.634 182.511L165.602 182.237C164.241 181.889 163.701 181.444 163.701 180.672C163.701 179.674 164.569 179.018 165.882 179.018C167.112 179.018 167.946 179.619 168.117 180.631H169.354C169.252 179.038 167.83 177.903 165.923 177.903C163.838 177.903 162.437 179.038 162.437 180.713C162.437 182.114 163.209 182.921 164.993 183.372L166.258 183.7C167.618 184.042 168.233 184.575 168.233 185.416C168.233 186.394 167.256 187.111 165.93 187.111C164.528 187.111 163.544 186.455 163.394 185.423H162.149ZM173.463 183.454H174.687C176.074 183.454 176.929 184.165 176.929 185.307C176.929 186.414 176.006 187.159 174.707 187.159C173.436 187.159 172.547 186.496 172.438 185.457H171.248C171.337 187.132 172.718 188.232 174.721 188.232C176.683 188.232 178.193 186.995 178.193 185.341C178.193 183.967 177.346 183.099 176.067 182.894V182.784C177.079 182.49 177.817 181.704 177.824 180.515C177.831 179.134 176.71 177.903 174.762 177.903C172.766 177.903 171.542 179.086 171.419 180.692H172.615C172.718 179.585 173.49 178.977 174.68 178.977C175.869 178.977 176.573 179.729 176.573 180.651C176.573 181.677 175.767 182.401 174.632 182.401H173.463V183.454Z" fill="#336ABC"/>
<path d="M53 190.529H179.068V191.35H53V190.529Z" fill="#336ABC"/>
<path d="M192.532 188H193.51L194.07 185.245H195.861L196.053 184.261H194.269L194.781 181.772H196.497L196.688 180.795H194.986L195.533 178.136H194.556L194.002 180.795H191.773L192.307 178.136H191.336L190.782 180.795H189.094L188.896 181.772H190.584L190.085 184.261H188.465L188.273 185.245H189.873L189.319 188H190.29L190.851 185.245H193.093L192.532 188ZM191.042 184.281L191.555 181.759H193.811L193.298 184.281H191.042ZM200.318 188H201.549V178.136H200.325L197.7 180.022V181.321L200.209 179.503H200.318V188ZM207.776 188.232C209.793 188.232 211.167 186.838 211.167 184.808C211.167 182.853 209.8 181.554 208.146 181.554C207.161 181.554 206.43 181.854 205.951 182.449H205.842L206.149 179.236H210.661V178.136H205.186L204.618 183.775H205.773C206.163 183.044 206.901 182.613 207.838 182.613C209.082 182.613 209.937 183.509 209.937 184.842C209.937 186.223 209.082 187.152 207.79 187.152C206.628 187.152 205.78 186.448 205.671 185.396H204.461C204.57 187.084 205.91 188.232 207.776 188.232ZM215.521 188H216.752V178.136H215.528L212.903 180.022V181.321L215.412 179.503H215.521V188ZM221.77 183.454H222.993C224.381 183.454 225.235 184.165 225.235 185.307C225.235 186.414 224.312 187.159 223.014 187.159C221.742 187.159 220.854 186.496 220.744 185.457H219.555C219.644 187.132 221.024 188.232 223.027 188.232C224.989 188.232 226.5 186.995 226.5 185.341C226.5 183.967 225.652 183.099 224.374 182.894V182.784C225.386 182.49 226.124 181.704 226.131 180.515C226.138 179.134 225.017 177.903 223.068 177.903C221.072 177.903 219.849 179.086 219.726 180.692H220.922C221.024 179.585 221.797 178.977 222.986 178.977C224.176 178.977 224.88 179.729 224.88 180.651C224.88 181.677 224.073 182.401 222.938 182.401H221.77V183.454Z" fill="#67789D"/>
<path d="M331.172 190.454H332.396C333.783 190.454 334.638 191.165 334.638 192.307C334.638 193.414 333.715 194.159 332.416 194.159C331.145 194.159 330.256 193.496 330.146 192.457H328.957C329.046 194.132 330.427 195.232 332.43 195.232C334.392 195.232 335.902 193.995 335.902 192.341C335.902 190.967 335.055 190.099 333.776 189.894V189.784C334.788 189.49 335.526 188.704 335.533 187.515C335.54 186.134 334.419 184.903 332.471 184.903C330.475 184.903 329.251 186.086 329.128 187.692H330.324C330.427 186.585 331.199 185.977 332.389 185.977C333.578 185.977 334.282 186.729 334.282 187.651C334.282 188.677 333.476 189.401 332.341 189.401H331.172V190.454ZM339.238 190.851H339.129V184.705H337.953V195H339.129V192.204L339.833 191.548L342.595 195H344.092L340.708 190.789L343.88 187.631H342.438L339.238 190.851Z" fill="#E05729"/>
<rect x="328" y="205" width="18" height="4" rx="2" fill="#F5C9BB"/>
<path d="M452.382 195.232C454.398 195.232 455.772 193.838 455.772 191.808C455.772 189.853 454.405 188.554 452.751 188.554C451.767 188.554 451.035 188.854 450.557 189.449H450.447L450.755 186.236H455.267V185.136H449.791L449.224 190.775H450.379C450.769 190.044 451.507 189.613 452.443 189.613C453.688 189.613 454.542 190.509 454.542 191.842C454.542 193.223 453.688 194.152 452.396 194.152C451.233 194.152 450.386 193.448 450.276 192.396H449.066C449.176 194.084 450.516 195.232 452.382 195.232ZM467.646 195V185.136H466.218L462.841 193.366H462.731L459.354 185.136H457.926V195H459.074V187.467H459.156L462.267 195H463.306L466.416 187.467H466.498V195H467.646Z" fill="#336ABC"/>
<rect x="448" y="205" width="22" height="4" rx="2" fill="#BECFEA"/>
<path d="M30.9375 186.625H21.3125C20.5742 186.625 20 187.227 20 187.938V197.562C20 198.301 20.5742 198.875 21.3125 198.875H30.9375C31.6484 198.875 32.25 198.301 32.25 197.562V187.938C32.25 187.227 31.6484 186.625 30.9375 186.625ZM30.7734 197.562H21.4766C21.3672 197.562 21.3125 197.508 21.3125 197.398V188.102C21.3125 188.02 21.3672 187.938 21.4766 187.938H30.7734C30.8555 187.938 30.9375 188.02 30.9375 188.102V197.398C30.9375 197.508 30.8555 197.562 30.7734 197.562Z" fill="#8896B3"/>
<path d="M55.4883 283V278.728H59.8564V277.634H55.4883V274.243H60.2461V273.136H54.2578V283H55.4883ZM62.1191 283H63.2949V278.434C63.2949 277.395 64.1084 276.643 65.2295 276.643C65.4619 276.643 65.8857 276.684 65.9814 276.711V275.535C65.8311 275.515 65.585 275.501 65.3936 275.501C64.416 275.501 63.5684 276.007 63.3496 276.725H63.2402V275.631H62.1191V283ZM70.2744 283.13C72.373 283.13 73.6719 281.681 73.6719 279.315C73.6719 276.943 72.373 275.501 70.2744 275.501C68.1758 275.501 66.877 276.943 66.877 279.315C66.877 281.681 68.1758 283.13 70.2744 283.13ZM70.2744 282.07C68.8799 282.07 68.0938 281.059 68.0938 279.315C68.0938 277.565 68.8799 276.561 70.2744 276.561C71.6689 276.561 72.4551 277.565 72.4551 279.315C72.4551 281.059 71.6689 282.07 70.2744 282.07ZM75.5176 283H76.6934V278.639C76.6934 277.347 77.4521 276.561 78.6279 276.561C79.8037 276.561 80.3643 277.189 80.3643 278.516V283H81.54V278.229C81.54 276.479 80.6172 275.501 78.9629 275.501C77.835 275.501 77.1172 275.979 76.748 276.793H76.6387V275.631H75.5176V283ZM84.1855 273.724V275.631H82.9961V276.615H84.1855V281.086C84.1855 282.494 84.7939 283.055 86.3115 283.055C86.5439 283.055 86.7695 283.027 87.002 282.986V281.995C86.7832 282.016 86.667 282.022 86.4551 282.022C85.6895 282.022 85.3613 281.653 85.3613 280.785V276.615H87.002V275.631H85.3613V273.724H84.1855ZM91.6094 276.54C92.7783 276.54 93.5576 277.401 93.585 278.707H89.5244C89.6133 277.401 90.4336 276.54 91.6094 276.54ZM93.5508 281.093C93.2432 281.742 92.6006 282.091 91.6504 282.091C90.3994 282.091 89.5859 281.168 89.5244 279.712V279.657H94.8223V279.206C94.8223 276.916 93.6123 275.501 91.623 275.501C89.5996 275.501 88.3008 277.005 88.3008 279.322C88.3008 281.653 89.5791 283.13 91.623 283.13C93.2363 283.13 94.3848 282.351 94.7266 281.093H93.5508ZM96.668 283H97.8438V278.639C97.8438 277.347 98.6025 276.561 99.7783 276.561C100.954 276.561 101.515 277.189 101.515 278.516V283H102.69V278.229C102.69 276.479 101.768 275.501 100.113 275.501C98.9854 275.501 98.2676 275.979 97.8984 276.793H97.7891V275.631H96.668V283ZM107.571 283.13C108.59 283.13 109.465 282.645 109.93 281.824H110.039V283H111.16V272.705H109.984V276.793H109.882C109.465 275.986 108.597 275.501 107.571 275.501C105.698 275.501 104.475 277.005 104.475 279.315C104.475 281.633 105.685 283.13 107.571 283.13ZM107.845 276.561C109.178 276.561 110.012 277.627 110.012 279.315C110.012 281.018 109.185 282.07 107.845 282.07C106.498 282.07 105.691 281.038 105.691 279.315C105.691 277.6 106.505 276.561 107.845 276.561ZM119.705 281.893H114.824V278.502H119.452V277.408H114.824V274.243H119.705V273.136H113.594V283H119.705V281.893ZM121.783 283H122.959V278.434C122.959 277.395 123.772 276.643 124.894 276.643C125.126 276.643 125.55 276.684 125.646 276.711V275.535C125.495 275.515 125.249 275.501 125.058 275.501C124.08 275.501 123.232 276.007 123.014 276.725H122.904V275.631H121.783V283ZM127.252 283H128.428V278.434C128.428 277.395 129.241 276.643 130.362 276.643C130.595 276.643 131.019 276.684 131.114 276.711V275.535C130.964 275.515 130.718 275.501 130.526 275.501C129.549 275.501 128.701 276.007 128.482 276.725H128.373V275.631H127.252V283ZM135.407 283.13C137.506 283.13 138.805 281.681 138.805 279.315C138.805 276.943 137.506 275.501 135.407 275.501C133.309 275.501 132.01 276.943 132.01 279.315C132.01 281.681 133.309 283.13 135.407 283.13ZM135.407 282.07C134.013 282.07 133.227 281.059 133.227 279.315C133.227 277.565 134.013 276.561 135.407 276.561C136.802 276.561 137.588 277.565 137.588 279.315C137.588 281.059 136.802 282.07 135.407 282.07ZM140.65 283H141.826V278.434C141.826 277.395 142.64 276.643 143.761 276.643C143.993 276.643 144.417 276.684 144.513 276.711V275.535C144.362 275.515 144.116 275.501 143.925 275.501C142.947 275.501 142.1 276.007 141.881 276.725H141.771V275.631H140.65V283ZM151.54 275.214H151.622L153.892 283H155.054L157.74 273.136H156.455L154.493 281.154H154.411L152.203 273.136H150.959L148.751 281.154H148.669L146.707 273.136H145.422L148.108 283H149.271L151.54 275.214ZM161.808 283.13C163.906 283.13 165.205 281.681 165.205 279.315C165.205 276.943 163.906 275.501 161.808 275.501C159.709 275.501 158.41 276.943 158.41 279.315C158.41 281.681 159.709 283.13 161.808 283.13ZM161.808 282.07C160.413 282.07 159.627 281.059 159.627 279.315C159.627 277.565 160.413 276.561 161.808 276.561C163.202 276.561 163.988 277.565 163.988 279.315C163.988 281.059 163.202 282.07 161.808 282.07ZM167.051 283H168.227V278.434C168.227 277.395 169.04 276.643 170.161 276.643C170.394 276.643 170.817 276.684 170.913 276.711V275.535C170.763 275.515 170.517 275.501 170.325 275.501C169.348 275.501 168.5 276.007 168.281 276.725H168.172V275.631H167.051V283ZM173.736 278.851H173.627V272.705H172.451V283H173.627V280.204L174.331 279.548L177.093 283H178.59L175.206 278.789L178.378 275.631H176.936L173.736 278.851ZM182.582 276.54C183.751 276.54 184.53 277.401 184.558 278.707H180.497C180.586 277.401 181.406 276.54 182.582 276.54ZM184.523 281.093C184.216 281.742 183.573 282.091 182.623 282.091C181.372 282.091 180.559 281.168 180.497 279.712V279.657H185.795V279.206C185.795 276.916 184.585 275.501 182.596 275.501C180.572 275.501 179.273 277.005 179.273 279.322C179.273 281.653 180.552 283.13 182.596 283.13C184.209 283.13 185.357 282.351 185.699 281.093H184.523ZM187.641 283H188.816V278.434C188.816 277.395 189.63 276.643 190.751 276.643C190.983 276.643 191.407 276.684 191.503 276.711V275.535C191.353 275.515 191.106 275.501 190.915 275.501C189.938 275.501 189.09 276.007 188.871 276.725H188.762V275.631H187.641V283ZM196.951 283H198.127V275.631H196.951V283ZM197.539 274.209C197.99 274.209 198.359 273.84 198.359 273.389C198.359 272.938 197.99 272.568 197.539 272.568C197.088 272.568 196.719 272.938 196.719 273.389C196.719 273.84 197.088 274.209 197.539 274.209ZM200.369 283H201.545V278.639C201.545 277.347 202.304 276.561 203.479 276.561C204.655 276.561 205.216 277.189 205.216 278.516V283H206.392V278.229C206.392 276.479 205.469 275.501 203.814 275.501C202.687 275.501 201.969 275.979 201.6 276.793H201.49V275.631H200.369V283Z" fill="#67789D"/>
<rect x="216" y="269.5" width="65" height="17" rx="2" fill="#F5F7F9"/>
<path d="M224.025 276.072C223.164 276.072 222.408 276.512 222.004 277.238H221.91V276.184H220.949V284.609H221.957V281.551H222.051C222.396 282.219 223.123 282.611 224.025 282.611C225.631 282.611 226.68 281.316 226.68 279.342C226.68 277.355 225.637 276.072 224.025 276.072ZM223.785 281.703C222.648 281.703 221.928 280.789 221.928 279.342C221.928 277.889 222.648 276.98 223.791 276.98C224.945 276.98 225.637 277.865 225.637 279.342C225.637 280.818 224.945 281.703 223.785 281.703ZM228.262 282.5H229.27V278.586C229.27 277.695 229.967 277.051 230.928 277.051C231.127 277.051 231.49 277.086 231.572 277.109V276.102C231.443 276.084 231.232 276.072 231.068 276.072C230.23 276.072 229.504 276.506 229.316 277.121H229.223V276.184H228.262V282.5ZM235.252 282.611C237.051 282.611 238.164 281.369 238.164 279.342C238.164 277.309 237.051 276.072 235.252 276.072C233.453 276.072 232.34 277.309 232.34 279.342C232.34 281.369 233.453 282.611 235.252 282.611ZM235.252 281.703C234.057 281.703 233.383 280.836 233.383 279.342C233.383 277.842 234.057 276.98 235.252 276.98C236.447 276.98 237.121 277.842 237.121 279.342C237.121 280.836 236.447 281.703 235.252 281.703ZM244.973 278.117C244.797 276.992 243.859 276.072 242.324 276.072C240.555 276.072 239.43 277.35 239.43 279.318C239.43 281.328 240.561 282.611 242.33 282.611C243.848 282.611 244.791 281.756 244.973 280.596H243.953C243.766 281.311 243.174 281.703 242.324 281.703C241.199 281.703 240.473 280.777 240.473 279.318C240.473 277.889 241.188 276.98 242.324 276.98C243.232 276.98 243.789 277.49 243.953 278.117H244.973ZM248.98 276.963C249.982 276.963 250.65 277.701 250.674 278.82H247.193C247.27 277.701 247.973 276.963 248.98 276.963ZM250.645 280.865C250.381 281.422 249.83 281.721 249.016 281.721C247.943 281.721 247.246 280.93 247.193 279.682V279.635H251.734V279.248C251.734 277.285 250.697 276.072 248.992 276.072C247.258 276.072 246.145 277.361 246.145 279.348C246.145 281.346 247.24 282.611 248.992 282.611C250.375 282.611 251.359 281.943 251.652 280.865H250.645ZM253.17 277.912C253.17 278.826 253.709 279.336 254.893 279.623L255.977 279.887C256.65 280.051 256.979 280.344 256.979 280.777C256.979 281.357 256.369 281.762 255.52 281.762C254.711 281.762 254.207 281.422 254.037 280.889H253C253.111 281.938 254.078 282.611 255.484 282.611C256.92 282.611 258.016 281.832 258.016 280.701C258.016 279.793 257.441 279.277 256.252 278.99L255.279 278.756C254.535 278.574 254.184 278.305 254.184 277.871C254.184 277.309 254.77 276.928 255.52 276.928C256.281 276.928 256.773 277.262 256.908 277.766H257.904C257.77 276.729 256.85 276.072 255.525 276.072C254.184 276.072 253.17 276.863 253.17 277.912ZM259.334 277.912C259.334 278.826 259.873 279.336 261.057 279.623L262.141 279.887C262.814 280.051 263.143 280.344 263.143 280.777C263.143 281.357 262.533 281.762 261.684 281.762C260.875 281.762 260.371 281.422 260.201 280.889H259.164C259.275 281.938 260.242 282.611 261.648 282.611C263.084 282.611 264.18 281.832 264.18 280.701C264.18 279.793 263.605 279.277 262.416 278.99L261.443 278.756C260.699 278.574 260.348 278.305 260.348 277.871C260.348 277.309 260.934 276.928 261.684 276.928C262.445 276.928 262.938 277.262 263.072 277.766H264.068C263.934 276.729 263.014 276.072 261.689 276.072C260.348 276.072 259.334 276.863 259.334 277.912ZM268.357 282.611C270.156 282.611 271.27 281.369 271.27 279.342C271.27 277.309 270.156 276.072 268.357 276.072C266.559 276.072 265.445 277.309 265.445 279.342C265.445 281.369 266.559 282.611 268.357 282.611ZM268.357 281.703C267.162 281.703 266.488 280.836 266.488 279.342C266.488 277.842 267.162 276.98 268.357 276.98C269.553 276.98 270.227 277.842 270.227 279.342C270.227 280.836 269.553 281.703 268.357 281.703ZM272.852 282.5H273.859V278.586C273.859 277.695 274.557 277.051 275.518 277.051C275.717 277.051 276.08 277.086 276.162 277.109V276.102C276.033 276.084 275.822 276.072 275.658 276.072C274.82 276.072 274.094 276.506 273.906 277.121H273.812V276.184H272.852V282.5Z" fill="#67789D"/>
<path d="M54.2578 251.136V261H55.4883V257.479H57.9697C59.8223 257.479 61.1416 256.174 61.1416 254.328C61.1416 252.448 59.8496 251.136 57.9834 251.136H54.2578ZM55.4883 252.229H57.6621C59.0908 252.229 59.877 252.975 59.877 254.328C59.877 255.634 59.0635 256.386 57.6621 256.386H55.4883V252.229ZM65.0039 260.098C64.1494 260.098 63.5137 259.66 63.5137 258.908C63.5137 258.17 64.0059 257.78 65.127 257.705L67.1094 257.575V258.252C67.1094 259.305 66.2139 260.098 65.0039 260.098ZM64.7852 261.13C65.7695 261.13 66.5762 260.699 67.0547 259.913H67.1641V261H68.2852V255.955C68.2852 254.424 67.2803 253.501 65.4824 253.501C63.9102 253.501 62.748 254.28 62.5908 255.463H63.7803C63.9443 254.882 64.5596 254.547 65.4414 254.547C66.542 254.547 67.1094 255.046 67.1094 255.955V256.625L64.9834 256.755C63.2676 256.857 62.2969 257.616 62.2969 258.936C62.2969 260.282 63.3564 261.13 64.7852 261.13ZM70.459 261H71.6348V256.434C71.6348 255.395 72.4482 254.643 73.5693 254.643C73.8018 254.643 74.2256 254.684 74.3213 254.711V253.535C74.1709 253.515 73.9248 253.501 73.7334 253.501C72.7559 253.501 71.9082 254.007 71.6895 254.725H71.5801V253.631H70.459V261ZM75.4834 255.647C75.4834 256.714 76.1123 257.309 77.4932 257.644L78.7578 257.951C79.5439 258.143 79.9268 258.484 79.9268 258.99C79.9268 259.667 79.2158 260.139 78.2246 260.139C77.2812 260.139 76.6934 259.742 76.4951 259.12H75.2852C75.415 260.344 76.543 261.13 78.1836 261.13C79.8584 261.13 81.1367 260.221 81.1367 258.901C81.1367 257.842 80.4668 257.24 79.0791 256.905L77.9443 256.632C77.0762 256.42 76.666 256.105 76.666 255.6C76.666 254.943 77.3496 254.499 78.2246 254.499C79.1133 254.499 79.6875 254.889 79.8447 255.477H81.0068C80.8496 254.267 79.7764 253.501 78.2314 253.501C76.666 253.501 75.4834 254.424 75.4834 255.647ZM85.9219 254.54C87.0908 254.54 87.8701 255.401 87.8975 256.707H83.8369C83.9258 255.401 84.7461 254.54 85.9219 254.54ZM87.8633 259.093C87.5557 259.742 86.9131 260.091 85.9629 260.091C84.7119 260.091 83.8984 259.168 83.8369 257.712V257.657H89.1348V257.206C89.1348 254.916 87.9248 253.501 85.9355 253.501C83.9121 253.501 82.6133 255.005 82.6133 257.322C82.6133 259.653 83.8916 261.13 85.9355 261.13C87.5488 261.13 88.6973 260.351 89.0391 259.093H87.8633ZM93.5576 261V252.243H96.7363V251.136H89.1484V252.243H92.3271V261H93.5576ZM97.4609 261H98.6367V256.434C98.6367 255.395 99.4502 254.643 100.571 254.643C100.804 254.643 101.228 254.684 101.323 254.711V253.535C101.173 253.515 100.927 253.501 100.735 253.501C99.7578 253.501 98.9102 254.007 98.6914 254.725H98.582V253.631H97.4609V261ZM105.062 260.098C104.208 260.098 103.572 259.66 103.572 258.908C103.572 258.17 104.064 257.78 105.186 257.705L107.168 257.575V258.252C107.168 259.305 106.272 260.098 105.062 260.098ZM104.844 261.13C105.828 261.13 106.635 260.699 107.113 259.913H107.223V261H108.344V255.955C108.344 254.424 107.339 253.501 105.541 253.501C103.969 253.501 102.807 254.28 102.649 255.463H103.839C104.003 254.882 104.618 254.547 105.5 254.547C106.601 254.547 107.168 255.046 107.168 255.955V256.625L105.042 256.755C103.326 256.857 102.355 257.616 102.355 258.936C102.355 260.282 103.415 261.13 104.844 261.13ZM110.518 261H111.693V256.639C111.693 255.347 112.452 254.561 113.628 254.561C114.804 254.561 115.364 255.189 115.364 256.516V261H116.54V256.229C116.54 254.479 115.617 253.501 113.963 253.501C112.835 253.501 112.117 253.979 111.748 254.793H111.639V253.631H110.518V261ZM118.522 255.647C118.522 256.714 119.151 257.309 120.532 257.644L121.797 257.951C122.583 258.143 122.966 258.484 122.966 258.99C122.966 259.667 122.255 260.139 121.264 260.139C120.32 260.139 119.732 259.742 119.534 259.12H118.324C118.454 260.344 119.582 261.13 121.223 261.13C122.897 261.13 124.176 260.221 124.176 258.901C124.176 257.842 123.506 257.24 122.118 256.905L120.983 256.632C120.115 256.42 119.705 256.105 119.705 255.6C119.705 254.943 120.389 254.499 121.264 254.499C122.152 254.499 122.727 254.889 122.884 255.477H124.046C123.889 254.267 122.815 253.501 121.271 253.501C119.705 253.501 118.522 254.424 118.522 255.647ZM128.291 260.098C127.437 260.098 126.801 259.66 126.801 258.908C126.801 258.17 127.293 257.78 128.414 257.705L130.396 257.575V258.252C130.396 259.305 129.501 260.098 128.291 260.098ZM128.072 261.13C129.057 261.13 129.863 260.699 130.342 259.913H130.451V261H131.572V255.955C131.572 254.424 130.567 253.501 128.77 253.501C127.197 253.501 126.035 254.28 125.878 255.463H127.067C127.231 254.882 127.847 254.547 128.729 254.547C129.829 254.547 130.396 255.046 130.396 255.955V256.625L128.271 256.755C126.555 256.857 125.584 257.616 125.584 258.936C125.584 260.282 126.644 261.13 128.072 261.13ZM139.844 255.887C139.639 254.574 138.545 253.501 136.754 253.501C134.689 253.501 133.377 254.991 133.377 257.288C133.377 259.633 134.696 261.13 136.761 261.13C138.531 261.13 139.632 260.132 139.844 258.778H138.654C138.436 259.612 137.745 260.07 136.754 260.07C135.441 260.07 134.594 258.99 134.594 257.288C134.594 255.62 135.428 254.561 136.754 254.561C137.813 254.561 138.463 255.155 138.654 255.887H139.844ZM142.209 251.724V253.631H141.02V254.615H142.209V259.086C142.209 260.494 142.817 261.055 144.335 261.055C144.567 261.055 144.793 261.027 145.025 260.986V259.995C144.807 260.016 144.69 260.022 144.479 260.022C143.713 260.022 143.385 259.653 143.385 258.785V254.615H145.025V253.631H143.385V251.724H142.209ZM146.83 261H148.006V253.631H146.83V261ZM147.418 252.209C147.869 252.209 148.238 251.84 148.238 251.389C148.238 250.938 147.869 250.568 147.418 250.568C146.967 250.568 146.598 250.938 146.598 251.389C146.598 251.84 146.967 252.209 147.418 252.209ZM153.276 261.13C155.375 261.13 156.674 259.681 156.674 257.315C156.674 254.943 155.375 253.501 153.276 253.501C151.178 253.501 149.879 254.943 149.879 257.315C149.879 259.681 151.178 261.13 153.276 261.13ZM153.276 260.07C151.882 260.07 151.096 259.059 151.096 257.315C151.096 255.565 151.882 254.561 153.276 254.561C154.671 254.561 155.457 255.565 155.457 257.315C155.457 259.059 154.671 260.07 153.276 260.07ZM158.52 261H159.695V256.639C159.695 255.347 160.454 254.561 161.63 254.561C162.806 254.561 163.366 255.189 163.366 256.516V261H164.542V256.229C164.542 254.479 163.619 253.501 161.965 253.501C160.837 253.501 160.119 253.979 159.75 254.793H159.641V253.631H158.52V261ZM172.957 259.893H168.076V256.502H172.704V255.408H168.076V252.243H172.957V251.136H166.846V261H172.957V259.893ZM175.035 261H176.211V256.434C176.211 255.395 177.024 254.643 178.146 254.643C178.378 254.643 178.802 254.684 178.897 254.711V253.535C178.747 253.515 178.501 253.501 178.31 253.501C177.332 253.501 176.484 254.007 176.266 254.725H176.156V253.631H175.035V261ZM180.504 261H181.68V256.434C181.68 255.395 182.493 254.643 183.614 254.643C183.847 254.643 184.271 254.684 184.366 254.711V253.535C184.216 253.515 183.97 253.501 183.778 253.501C182.801 253.501 181.953 254.007 181.734 254.725H181.625V253.631H180.504V261ZM188.659 261.13C190.758 261.13 192.057 259.681 192.057 257.315C192.057 254.943 190.758 253.501 188.659 253.501C186.561 253.501 185.262 254.943 185.262 257.315C185.262 259.681 186.561 261.13 188.659 261.13ZM188.659 260.07C187.265 260.07 186.479 259.059 186.479 257.315C186.479 255.565 187.265 254.561 188.659 254.561C190.054 254.561 190.84 255.565 190.84 257.315C190.84 259.059 190.054 260.07 188.659 260.07ZM193.902 261H195.078V256.434C195.078 255.395 195.892 254.643 197.013 254.643C197.245 254.643 197.669 254.684 197.765 254.711V253.535C197.614 253.515 197.368 253.501 197.177 253.501C196.199 253.501 195.352 254.007 195.133 254.725H195.023V253.631H193.902V261Z" fill="#336ABC"/>
<path d="M53 263.529H198.127V264.35H53V263.529Z" fill="#336ABC"/>
<path d="M211.532 261H212.51L213.07 258.245H214.861L215.053 257.261H213.269L213.781 254.772H215.497L215.688 253.795H213.986L214.533 251.136H213.556L213.002 253.795H210.773L211.307 251.136H210.336L209.782 253.795H208.094L207.896 254.772H209.584L209.085 257.261H207.465L207.273 258.245H208.873L208.319 261H209.29L209.851 258.245H212.093L211.532 261ZM210.042 257.281L210.555 254.759H212.811L212.298 257.281H210.042ZM219.318 261H220.549V251.136H219.325L216.7 253.022V254.321L219.209 252.503H219.318V261ZM228 261H229.203V258.956H230.604V257.855H229.203V251.136H227.419C226.038 253.193 224.527 255.6 223.194 257.835V258.956H228V261ZM224.452 257.78C225.525 255.969 226.817 253.932 227.925 252.277H228.007V257.862H224.452V257.78ZM235.786 261.232C237.803 261.232 239.177 259.838 239.177 257.808C239.177 255.853 237.81 254.554 236.155 254.554C235.171 254.554 234.439 254.854 233.961 255.449H233.852L234.159 252.236H238.671V251.136H233.195L232.628 256.775H233.783C234.173 256.044 234.911 255.613 235.848 255.613C237.092 255.613 237.946 256.509 237.946 257.842C237.946 259.223 237.092 260.152 235.8 260.152C234.638 260.152 233.79 259.448 233.681 258.396H232.471C232.58 260.084 233.92 261.232 235.786 261.232ZM241.111 253.918H242.301C242.301 252.749 243.087 251.977 244.27 251.977C245.432 251.977 246.136 252.756 246.136 253.802C246.136 254.67 245.767 255.183 244.509 256.543L241.173 260.152V261H247.558V259.893H242.882V259.783L245.124 257.466C246.901 255.627 247.394 254.807 247.394 253.672C247.394 252.072 246.074 250.903 244.352 250.903C242.465 250.903 241.111 252.161 241.111 253.918Z" fill="#67789D"/>
<path d="M331.459 268H332.689V258.136H331.466L328.841 260.022V261.321L331.35 259.503H331.459V268ZM336.996 263.851H336.887V257.705H335.711V268H336.887V265.204L337.591 264.548L340.353 268H341.85L338.466 263.789L341.638 260.631H340.195L336.996 263.851Z" fill="#E05729"/>
<rect x="328" y="278" width="8" height="4" rx="2" fill="#F5C9BB"/>
<path d="M451.459 268H452.689V258.136H451.466L448.841 260.022V261.321L451.35 259.503H451.459V268ZM458.951 268.232C461.166 268.232 462.438 266.359 462.438 263.085C462.438 259.817 461.146 257.903 458.951 257.903C456.743 257.903 455.451 259.811 455.451 263.064C455.451 266.346 456.729 268.232 458.951 268.232ZM458.951 267.159C457.495 267.159 456.688 265.703 456.688 263.064C456.688 260.46 457.509 258.983 458.951 258.983C460.394 258.983 461.2 260.446 461.2 263.064C461.2 265.71 460.407 267.159 458.951 267.159ZM467.735 268.232C469.752 268.232 471.126 266.838 471.126 264.808C471.126 262.853 469.759 261.554 468.104 261.554C467.12 261.554 466.389 261.854 465.91 262.449H465.801L466.108 259.236H470.62V258.136H465.145L464.577 263.775H465.732C466.122 263.044 466.86 262.613 467.797 262.613C469.041 262.613 469.896 263.509 469.896 264.842C469.896 266.223 469.041 267.152 467.749 267.152C466.587 267.152 465.739 266.448 465.63 265.396H464.42C464.529 267.084 465.869 268.232 467.735 268.232ZM474.482 263.851H474.373V257.705H473.197V268H474.373V265.204L475.077 264.548L477.839 268H479.336L475.952 263.789L479.124 260.631H477.682L474.482 263.851Z" fill="#336ABC"/>
<rect x="448" y="278" width="6" height="4" rx="2" fill="#BECFEA"/>
<path d="M30.9375 259.625H21.3125C20.5742 259.625 20 260.227 20 260.938V270.562C20 271.301 20.5742 271.875 21.3125 271.875H30.9375C31.6484 271.875 32.25 271.301 32.25 270.562V260.938C32.25 260.227 31.6484 259.625 30.9375 259.625ZM30.7734 270.562H21.4766C21.3672 270.562 21.3125 270.508 21.3125 270.398V261.102C21.3125 261.02 21.3672 260.938 21.4766 260.938H30.7734C30.8555 260.938 30.9375 261.02 30.9375 261.102V270.398C30.9375 270.508 30.8555 270.562 30.7734 270.562Z" fill="#8896B3"/>
<path d="M54.2578 324.136V334H55.4883V330.479H57.9697C59.8223 330.479 61.1416 329.174 61.1416 327.328C61.1416 325.448 59.8496 324.136 57.9834 324.136H54.2578ZM55.4883 325.229H57.6621C59.0908 325.229 59.877 325.975 59.877 327.328C59.877 328.634 59.0635 329.386 57.6621 329.386H55.4883V325.229ZM65.0039 333.098C64.1494 333.098 63.5137 332.66 63.5137 331.908C63.5137 331.17 64.0059 330.78 65.127 330.705L67.1094 330.575V331.252C67.1094 332.305 66.2139 333.098 65.0039 333.098ZM64.7852 334.13C65.7695 334.13 66.5762 333.699 67.0547 332.913H67.1641V334H68.2852V328.955C68.2852 327.424 67.2803 326.501 65.4824 326.501C63.9102 326.501 62.748 327.28 62.5908 328.463H63.7803C63.9443 327.882 64.5596 327.547 65.4414 327.547C66.542 327.547 67.1094 328.046 67.1094 328.955V329.625L64.9834 329.755C63.2676 329.857 62.2969 330.616 62.2969 331.936C62.2969 333.282 63.3564 334.13 64.7852 334.13ZM70.459 334H71.6348V329.434C71.6348 328.395 72.4482 327.643 73.5693 327.643C73.8018 327.643 74.2256 327.684 74.3213 327.711V326.535C74.1709 326.515 73.9248 326.501 73.7334 326.501C72.7559 326.501 71.9082 327.007 71.6895 327.725H71.5801V326.631H70.459V334ZM75.4834 328.647C75.4834 329.714 76.1123 330.309 77.4932 330.644L78.7578 330.951C79.5439 331.143 79.9268 331.484 79.9268 331.99C79.9268 332.667 79.2158 333.139 78.2246 333.139C77.2812 333.139 76.6934 332.742 76.4951 332.12H75.2852C75.415 333.344 76.543 334.13 78.1836 334.13C79.8584 334.13 81.1367 333.221 81.1367 331.901C81.1367 330.842 80.4668 330.24 79.0791 329.905L77.9443 329.632C77.0762 329.42 76.666 329.105 76.666 328.6C76.666 327.943 77.3496 327.499 78.2246 327.499C79.1133 327.499 79.6875 327.889 79.8447 328.477H81.0068C80.8496 327.267 79.7764 326.501 78.2314 326.501C76.666 326.501 75.4834 327.424 75.4834 328.647ZM85.9219 327.54C87.0908 327.54 87.8701 328.401 87.8975 329.707H83.8369C83.9258 328.401 84.7461 327.54 85.9219 327.54ZM87.8633 332.093C87.5557 332.742 86.9131 333.091 85.9629 333.091C84.7119 333.091 83.8984 332.168 83.8369 330.712V330.657H89.1348V330.206C89.1348 327.916 87.9248 326.501 85.9355 326.501C83.9121 326.501 82.6133 328.005 82.6133 330.322C82.6133 332.653 83.8916 334.13 85.9355 334.13C87.5488 334.13 88.6973 333.351 89.0391 332.093H87.8633ZM93.5576 334V325.243H96.7363V324.136H89.1484V325.243H92.3271V334H93.5576ZM97.4609 334H98.6367V329.434C98.6367 328.395 99.4502 327.643 100.571 327.643C100.804 327.643 101.228 327.684 101.323 327.711V326.535C101.173 326.515 100.927 326.501 100.735 326.501C99.7578 326.501 98.9102 327.007 98.6914 327.725H98.582V326.631H97.4609V334ZM105.062 333.098C104.208 333.098 103.572 332.66 103.572 331.908C103.572 331.17 104.064 330.78 105.186 330.705L107.168 330.575V331.252C107.168 332.305 106.272 333.098 105.062 333.098ZM104.844 334.13C105.828 334.13 106.635 333.699 107.113 332.913H107.223V334H108.344V328.955C108.344 327.424 107.339 326.501 105.541 326.501C103.969 326.501 102.807 327.28 102.649 328.463H103.839C104.003 327.882 104.618 327.547 105.5 327.547C106.601 327.547 107.168 328.046 107.168 328.955V329.625L105.042 329.755C103.326 329.857 102.355 330.616 102.355 331.936C102.355 333.282 103.415 334.13 104.844 334.13ZM110.518 334H111.693V329.639C111.693 328.347 112.452 327.561 113.628 327.561C114.804 327.561 115.364 328.189 115.364 329.516V334H116.54V329.229C116.54 327.479 115.617 326.501 113.963 326.501C112.835 326.501 112.117 326.979 111.748 327.793H111.639V326.631H110.518V334ZM118.522 328.647C118.522 329.714 119.151 330.309 120.532 330.644L121.797 330.951C122.583 331.143 122.966 331.484 122.966 331.99C122.966 332.667 122.255 333.139 121.264 333.139C120.32 333.139 119.732 332.742 119.534 332.12H118.324C118.454 333.344 119.582 334.13 121.223 334.13C122.897 334.13 124.176 333.221 124.176 331.901C124.176 330.842 123.506 330.24 122.118 329.905L120.983 329.632C120.115 329.42 119.705 329.105 119.705 328.6C119.705 327.943 120.389 327.499 121.264 327.499C122.152 327.499 122.727 327.889 122.884 328.477H124.046C123.889 327.267 122.815 326.501 121.271 326.501C119.705 326.501 118.522 327.424 118.522 328.647ZM128.291 333.098C127.437 333.098 126.801 332.66 126.801 331.908C126.801 331.17 127.293 330.78 128.414 330.705L130.396 330.575V331.252C130.396 332.305 129.501 333.098 128.291 333.098ZM128.072 334.13C129.057 334.13 129.863 333.699 130.342 332.913H130.451V334H131.572V328.955C131.572 327.424 130.567 326.501 128.77 326.501C127.197 326.501 126.035 327.28 125.878 328.463H127.067C127.231 327.882 127.847 327.547 128.729 327.547C129.829 327.547 130.396 328.046 130.396 328.955V329.625L128.271 329.755C126.555 329.857 125.584 330.616 125.584 331.936C125.584 333.282 126.644 334.13 128.072 334.13ZM139.844 328.887C139.639 327.574 138.545 326.501 136.754 326.501C134.689 326.501 133.377 327.991 133.377 330.288C133.377 332.633 134.696 334.13 136.761 334.13C138.531 334.13 139.632 333.132 139.844 331.778H138.654C138.436 332.612 137.745 333.07 136.754 333.07C135.441 333.07 134.594 331.99 134.594 330.288C134.594 328.62 135.428 327.561 136.754 327.561C137.813 327.561 138.463 328.155 138.654 328.887H139.844ZM142.209 324.724V326.631H141.02V327.615H142.209V332.086C142.209 333.494 142.817 334.055 144.335 334.055C144.567 334.055 144.793 334.027 145.025 333.986V332.995C144.807 333.016 144.69 333.022 144.479 333.022C143.713 333.022 143.385 332.653 143.385 331.785V327.615H145.025V326.631H143.385V324.724H142.209ZM146.83 334H148.006V326.631H146.83V334ZM147.418 325.209C147.869 325.209 148.238 324.84 148.238 324.389C148.238 323.938 147.869 323.568 147.418 323.568C146.967 323.568 146.598 323.938 146.598 324.389C146.598 324.84 146.967 325.209 147.418 325.209ZM153.276 334.13C155.375 334.13 156.674 332.681 156.674 330.315C156.674 327.943 155.375 326.501 153.276 326.501C151.178 326.501 149.879 327.943 149.879 330.315C149.879 332.681 151.178 334.13 153.276 334.13ZM153.276 333.07C151.882 333.07 151.096 332.059 151.096 330.315C151.096 328.565 151.882 327.561 153.276 327.561C154.671 327.561 155.457 328.565 155.457 330.315C155.457 332.059 154.671 333.07 153.276 333.07ZM158.52 334H159.695V329.639C159.695 328.347 160.454 327.561 161.63 327.561C162.806 327.561 163.366 328.189 163.366 329.516V334H164.542V329.229C164.542 327.479 163.619 326.501 161.965 326.501C160.837 326.501 160.119 326.979 159.75 327.793H159.641V326.631H158.52V334ZM172.957 332.893H168.076V329.502H172.704V328.408H168.076V325.243H172.957V324.136H166.846V334H172.957V332.893ZM175.035 334H176.211V329.434C176.211 328.395 177.024 327.643 178.146 327.643C178.378 327.643 178.802 327.684 178.897 327.711V326.535C178.747 326.515 178.501 326.501 178.31 326.501C177.332 326.501 176.484 327.007 176.266 327.725H176.156V326.631H175.035V334ZM180.504 334H181.68V329.434C181.68 328.395 182.493 327.643 183.614 327.643C183.847 327.643 184.271 327.684 184.366 327.711V326.535C184.216 326.515 183.97 326.501 183.778 326.501C182.801 326.501 181.953 327.007 181.734 327.725H181.625V326.631H180.504V334ZM188.659 334.13C190.758 334.13 192.057 332.681 192.057 330.315C192.057 327.943 190.758 326.501 188.659 326.501C186.561 326.501 185.262 327.943 185.262 330.315C185.262 332.681 186.561 334.13 188.659 334.13ZM188.659 333.07C187.265 333.07 186.479 332.059 186.479 330.315C186.479 328.565 187.265 327.561 188.659 327.561C190.054 327.561 190.84 328.565 190.84 330.315C190.84 332.059 190.054 333.07 188.659 333.07ZM193.902 334H195.078V329.434C195.078 328.395 195.892 327.643 197.013 327.643C197.245 327.643 197.669 327.684 197.765 327.711V326.535C197.614 326.515 197.368 326.501 197.177 326.501C196.199 326.501 195.352 327.007 195.133 327.725H195.023V326.631H193.902V334Z" fill="#336ABC"/>
<path d="M53 336.529H198.127V337.35H53V336.529Z" fill="#336ABC"/>
<path d="M211.532 334H212.51L213.07 331.245H214.861L215.053 330.261H213.269L213.781 327.772H215.497L215.688 326.795H213.986L214.533 324.136H213.556L213.002 326.795H210.773L211.307 324.136H210.336L209.782 326.795H208.094L207.896 327.772H209.584L209.085 330.261H207.465L207.273 331.245H208.873L208.319 334H209.29L209.851 331.245H212.093L211.532 334ZM210.042 330.281L210.555 327.759H212.811L212.298 330.281H210.042ZM219.318 334H220.549V324.136H219.325L216.7 326.022V327.321L219.209 325.503H219.318V334ZM228 334H229.203V331.956H230.604V330.855H229.203V324.136H227.419C226.038 326.193 224.527 328.6 223.194 330.835V331.956H228V334ZM224.452 330.78C225.525 328.969 226.817 326.932 227.925 325.277H228.007V330.862H224.452V330.78ZM235.786 334.232C237.803 334.232 239.177 332.838 239.177 330.808C239.177 328.853 237.81 327.554 236.155 327.554C235.171 327.554 234.439 327.854 233.961 328.449H233.852L234.159 325.236H238.671V324.136H233.195L232.628 329.775H233.783C234.173 329.044 234.911 328.613 235.848 328.613C237.092 328.613 237.946 329.509 237.946 330.842C237.946 332.223 237.092 333.152 235.8 333.152C234.638 333.152 233.79 332.448 233.681 331.396H232.471C232.58 333.084 233.92 334.232 235.786 334.232ZM241.111 326.918H242.301C242.301 325.749 243.087 324.977 244.27 324.977C245.432 324.977 246.136 325.756 246.136 326.802C246.136 327.67 245.767 328.183 244.509 329.543L241.173 333.152V334H247.558V332.893H242.882V332.783L245.124 330.466C246.901 328.627 247.394 327.807 247.394 326.672C247.394 325.072 246.074 323.903 244.352 323.903C242.465 323.903 241.111 325.161 241.111 326.918Z" fill="#67789D"/>
<rect y="157" width="768" height="1" fill="#D9DDE7"/>
<rect y="230" width="768" height="1" fill="#D9DDE7"/>
<rect y="303" width="768" height="1" fill="#D9DDE7"/>
<path d="M333.605 121H334.809V118.956H336.21V117.855H334.809V111.136H333.024C331.644 113.193 330.133 115.6 328.8 117.835V118.956H333.605V121ZM330.058 117.78C331.131 115.969 332.423 113.932 333.53 112.277H333.612V117.862H330.058V117.78ZM339.471 116.851H339.361V110.705H338.186V121H339.361V118.204L340.065 117.548L342.827 121H344.324L340.94 116.789L344.112 113.631H342.67L339.471 116.851Z" fill="#E05729"/>
<rect x="328" y="131" width="22" height="4" rx="2" fill="#F5C9BB"/>
<path d="M449.039 113.918H450.229C450.229 112.749 451.015 111.977 452.197 111.977C453.359 111.977 454.063 112.756 454.063 113.802C454.063 114.67 453.694 115.183 452.437 116.543L449.101 120.152V121H455.485V119.893H450.81V119.783L453.052 117.466C454.829 115.627 455.321 114.807 455.321 113.672C455.321 112.072 454.002 110.903 452.279 110.903C450.393 110.903 449.039 112.161 449.039 113.918ZM460.715 121.226C463.128 121.226 464.509 119.284 464.509 115.894C464.509 112.537 462.923 110.903 460.797 110.903C458.773 110.903 457.338 112.318 457.338 114.301C457.338 116.215 458.698 117.603 460.578 117.603C461.754 117.603 462.718 117.042 463.203 116.085H463.312C463.244 118.71 462.335 120.132 460.729 120.132C459.758 120.132 459.006 119.592 458.746 118.703H457.481C457.789 120.255 459.04 121.226 460.715 121.226ZM460.797 116.536C459.491 116.536 458.582 115.606 458.582 114.26C458.582 112.968 459.546 111.983 460.811 111.983C462.075 111.983 463.039 112.981 463.039 114.301C463.039 115.606 462.103 116.536 460.797 116.536ZM476.369 121V111.136H474.94L471.563 119.366H471.454L468.077 111.136H466.648V121H467.797V113.467H467.879L470.989 121H472.028L475.139 113.467H475.221V121H476.369Z" fill="#336ABC"/>
<rect x="448" y="131" width="72" height="4" rx="2" fill="#BECFEA"/>
<path d="M57.6963 129.501C56.6914 129.501 55.8096 130.014 55.3379 130.861H55.2285V129.631H54.1074V139.461H55.2832V135.893H55.3926C55.7959 136.672 56.6436 137.13 57.6963 137.13C59.5693 137.13 60.793 135.619 60.793 133.315C60.793 130.998 59.5762 129.501 57.6963 129.501ZM57.416 136.07C56.0898 136.07 55.249 135.004 55.249 133.315C55.249 131.62 56.0898 130.561 57.4229 130.561C58.7695 130.561 59.5762 131.593 59.5762 133.315C59.5762 135.038 58.7695 136.07 57.416 136.07ZM68.5996 129.631H67.4238V133.992C67.4238 135.284 66.7129 136.057 65.4141 136.057C64.2383 136.057 63.7461 135.441 63.7461 134.115V129.631H62.5703V134.402C62.5703 136.146 63.4316 137.13 65.0859 137.13C66.2139 137.13 67 136.665 67.3691 135.845H67.4785V137H68.5996V129.631ZM70.6436 131.647C70.6436 132.714 71.2725 133.309 72.6533 133.644L73.918 133.951C74.7041 134.143 75.0869 134.484 75.0869 134.99C75.0869 135.667 74.376 136.139 73.3848 136.139C72.4414 136.139 71.8535 135.742 71.6553 135.12H70.4453C70.5752 136.344 71.7031 137.13 73.3438 137.13C75.0186 137.13 76.2969 136.221 76.2969 134.901C76.2969 133.842 75.627 133.24 74.2393 132.905L73.1045 132.632C72.2363 132.42 71.8262 132.105 71.8262 131.6C71.8262 130.943 72.5098 130.499 73.3848 130.499C74.2734 130.499 74.8477 130.889 75.0049 131.477H76.167C76.0098 130.267 74.9365 129.501 73.3916 129.501C71.8262 129.501 70.6436 130.424 70.6436 131.647ZM78.2109 137H79.3867V132.639C79.3867 131.395 80.1113 130.561 81.4307 130.561C82.5449 130.561 83.1328 131.21 83.1328 132.516V137H84.3086V132.229C84.3086 130.499 83.3242 129.501 81.7656 129.501C80.6377 129.501 79.8652 129.979 79.4961 130.793H79.3867V126.705H78.2109V137ZM91.6777 138.606V137.731H85.2793V138.606H91.6777ZM93.209 137H94.3848V130.615H96.0732V129.631H94.3848V128.845C94.3848 128.038 94.7402 127.628 95.5879 127.628C95.7998 127.628 95.998 127.635 96.1416 127.662V126.705C95.8955 126.657 95.6357 126.637 95.3486 126.637C93.9473 126.637 93.209 127.341 93.209 128.811V129.631H91.9854V130.615H93.209V137ZM97.8574 137H99.0332V126.705H97.8574V137ZM107.277 129.631H106.102V133.992C106.102 135.284 105.391 136.057 104.092 136.057C102.916 136.057 102.424 135.441 102.424 134.115V129.631H101.248V134.402C101.248 136.146 102.109 137.13 103.764 137.13C104.892 137.13 105.678 136.665 106.047 135.845H106.156V137H107.277V129.631ZM109.321 131.647C109.321 132.714 109.95 133.309 111.331 133.644L112.596 133.951C113.382 134.143 113.765 134.484 113.765 134.99C113.765 135.667 113.054 136.139 112.062 136.139C111.119 136.139 110.531 135.742 110.333 135.12H109.123C109.253 136.344 110.381 137.13 112.021 137.13C113.696 137.13 114.975 136.221 114.975 134.901C114.975 133.842 114.305 133.24 112.917 132.905L111.782 132.632C110.914 132.42 110.504 132.105 110.504 131.6C110.504 130.943 111.188 130.499 112.062 130.499C112.951 130.499 113.525 130.889 113.683 131.477H114.845C114.688 130.267 113.614 129.501 112.069 129.501C110.504 129.501 109.321 130.424 109.321 131.647ZM116.889 137H118.064V132.639C118.064 131.395 118.789 130.561 120.108 130.561C121.223 130.561 121.811 131.21 121.811 132.516V137H122.986V132.229C122.986 130.499 122.002 129.501 120.443 129.501C119.315 129.501 118.543 129.979 118.174 130.793H118.064V126.705H116.889V137ZM128.072 130.54C129.241 130.54 130.021 131.401 130.048 132.707H125.987C126.076 131.401 126.896 130.54 128.072 130.54ZM130.014 135.093C129.706 135.742 129.063 136.091 128.113 136.091C126.862 136.091 126.049 135.168 125.987 133.712V133.657H131.285V133.206C131.285 130.916 130.075 129.501 128.086 129.501C126.062 129.501 124.764 131.005 124.764 133.322C124.764 135.653 126.042 137.13 128.086 137.13C129.699 137.13 130.848 136.351 131.189 135.093H130.014ZM133.131 137H134.307V132.434C134.307 131.395 135.12 130.643 136.241 130.643C136.474 130.643 136.897 130.684 136.993 130.711V129.535C136.843 129.515 136.597 129.501 136.405 129.501C135.428 129.501 134.58 130.007 134.361 130.725H134.252V129.631H133.131V137ZM142.441 137H143.617V129.631H142.441V137ZM143.029 128.209C143.48 128.209 143.85 127.84 143.85 127.389C143.85 126.938 143.48 126.568 143.029 126.568C142.578 126.568 142.209 126.938 142.209 127.389C142.209 127.84 142.578 128.209 143.029 128.209ZM145.859 137H147.035V132.639C147.035 131.347 147.794 130.561 148.97 130.561C150.146 130.561 150.706 131.189 150.706 132.516V137H151.882V132.229C151.882 130.479 150.959 129.501 149.305 129.501C148.177 129.501 147.459 129.979 147.09 130.793H146.98V129.631H145.859V137Z" fill="#67789D"/>
<rect x="161" y="123.5" width="65" height="17" rx="2" fill="#F5F7F9"/>
<path d="M169.025 130.072C168.164 130.072 167.408 130.512 167.004 131.238H166.91V130.184H165.949V138.609H166.957V135.551H167.051C167.396 136.219 168.123 136.611 169.025 136.611C170.631 136.611 171.68 135.316 171.68 133.342C171.68 131.355 170.637 130.072 169.025 130.072ZM168.785 135.703C167.648 135.703 166.928 134.789 166.928 133.342C166.928 131.889 167.648 130.98 168.791 130.98C169.945 130.98 170.637 131.865 170.637 133.342C170.637 134.818 169.945 135.703 168.785 135.703ZM173.262 136.5H174.27V132.586C174.27 131.695 174.967 131.051 175.928 131.051C176.127 131.051 176.49 131.086 176.572 131.109V130.102C176.443 130.084 176.232 130.072 176.068 130.072C175.23 130.072 174.504 130.506 174.316 131.121H174.223V130.184H173.262V136.5ZM180.252 136.611C182.051 136.611 183.164 135.369 183.164 133.342C183.164 131.309 182.051 130.072 180.252 130.072C178.453 130.072 177.34 131.309 177.34 133.342C177.34 135.369 178.453 136.611 180.252 136.611ZM180.252 135.703C179.057 135.703 178.383 134.836 178.383 133.342C178.383 131.842 179.057 130.98 180.252 130.98C181.447 130.98 182.121 131.842 182.121 133.342C182.121 134.836 181.447 135.703 180.252 135.703ZM189.973 132.117C189.797 130.992 188.859 130.072 187.324 130.072C185.555 130.072 184.43 131.35 184.43 133.318C184.43 135.328 185.561 136.611 187.33 136.611C188.848 136.611 189.791 135.756 189.973 134.596H188.953C188.766 135.311 188.174 135.703 187.324 135.703C186.199 135.703 185.473 134.777 185.473 133.318C185.473 131.889 186.188 130.98 187.324 130.98C188.232 130.98 188.789 131.49 188.953 132.117H189.973ZM193.98 130.963C194.982 130.963 195.65 131.701 195.674 132.82H192.193C192.27 131.701 192.973 130.963 193.98 130.963ZM195.645 134.865C195.381 135.422 194.83 135.721 194.016 135.721C192.943 135.721 192.246 134.93 192.193 133.682V133.635H196.734V133.248C196.734 131.285 195.697 130.072 193.992 130.072C192.258 130.072 191.145 131.361 191.145 133.348C191.145 135.346 192.24 136.611 193.992 136.611C195.375 136.611 196.359 135.943 196.652 134.865H195.645ZM198.17 131.912C198.17 132.826 198.709 133.336 199.893 133.623L200.977 133.887C201.65 134.051 201.979 134.344 201.979 134.777C201.979 135.357 201.369 135.762 200.52 135.762C199.711 135.762 199.207 135.422 199.037 134.889H198C198.111 135.938 199.078 136.611 200.484 136.611C201.92 136.611 203.016 135.832 203.016 134.701C203.016 133.793 202.441 133.277 201.252 132.99L200.279 132.756C199.535 132.574 199.184 132.305 199.184 131.871C199.184 131.309 199.77 130.928 200.52 130.928C201.281 130.928 201.773 131.262 201.908 131.766H202.904C202.77 130.729 201.85 130.072 200.525 130.072C199.184 130.072 198.17 130.863 198.17 131.912ZM204.334 131.912C204.334 132.826 204.873 133.336 206.057 133.623L207.141 133.887C207.814 134.051 208.143 134.344 208.143 134.777C208.143 135.357 207.533 135.762 206.684 135.762C205.875 135.762 205.371 135.422 205.201 134.889H204.164C204.275 135.938 205.242 136.611 206.648 136.611C208.084 136.611 209.18 135.832 209.18 134.701C209.18 133.793 208.605 133.277 207.416 132.99L206.443 132.756C205.699 132.574 205.348 132.305 205.348 131.871C205.348 131.309 205.934 130.928 206.684 130.928C207.445 130.928 207.938 131.262 208.072 131.766H209.068C208.934 130.729 208.014 130.072 206.689 130.072C205.348 130.072 204.334 130.863 204.334 131.912ZM213.357 136.611C215.156 136.611 216.27 135.369 216.27 133.342C216.27 131.309 215.156 130.072 213.357 130.072C211.559 130.072 210.445 131.309 210.445 133.342C210.445 135.369 211.559 136.611 213.357 136.611ZM213.357 135.703C212.162 135.703 211.488 134.836 211.488 133.342C211.488 131.842 212.162 130.98 213.357 130.98C214.553 130.98 215.227 131.842 215.227 133.342C215.227 134.836 214.553 135.703 213.357 135.703ZM217.852 136.5H218.859V132.586C218.859 131.695 219.557 131.051 220.518 131.051C220.717 131.051 221.08 131.086 221.162 131.109V130.102C221.033 130.084 220.822 130.072 220.658 130.072C219.82 130.072 219.094 130.506 218.906 131.121H218.812V130.184H217.852V136.5Z" fill="#67789D"/>
<path d="M55.4883 115V110.728H59.8564V109.634H55.4883V106.243H60.2461V105.136H54.2578V115H55.4883ZM62.1875 115H63.3633V104.705H62.1875V115ZM71.6074 107.631H70.4316V111.992C70.4316 113.284 69.7207 114.057 68.4219 114.057C67.2461 114.057 66.7539 113.441 66.7539 112.115V107.631H65.5781V112.402C65.5781 114.146 66.4395 115.13 68.0938 115.13C69.2217 115.13 70.0078 114.665 70.377 113.845H70.4863V115H71.6074V107.631ZM73.6514 109.647C73.6514 110.714 74.2803 111.309 75.6611 111.644L76.9258 111.951C77.7119 112.143 78.0947 112.484 78.0947 112.99C78.0947 113.667 77.3838 114.139 76.3926 114.139C75.4492 114.139 74.8613 113.742 74.6631 113.12H73.4531C73.583 114.344 74.7109 115.13 76.3516 115.13C78.0264 115.13 79.3047 114.221 79.3047 112.901C79.3047 111.842 78.6348 111.24 77.2471 110.905L76.1123 110.632C75.2441 110.42 74.834 110.105 74.834 109.6C74.834 108.943 75.5176 108.499 76.3926 108.499C77.2812 108.499 77.8555 108.889 78.0127 109.477H79.1748C79.0176 108.267 77.9443 107.501 76.3994 107.501C74.834 107.501 73.6514 108.424 73.6514 109.647ZM81.2188 115H82.3945V110.639C82.3945 109.395 83.1191 108.561 84.4385 108.561C85.5527 108.561 86.1406 109.21 86.1406 110.516V115H87.3164V110.229C87.3164 108.499 86.332 107.501 84.7734 107.501C83.6455 107.501 82.873 107.979 82.5039 108.793H82.3945V104.705H81.2188V115ZM90.8438 115V110.728H95.2119V109.634H90.8438V106.243H95.6016V105.136H89.6133V115H90.8438ZM99.2656 114.098C98.4111 114.098 97.7754 113.66 97.7754 112.908C97.7754 112.17 98.2676 111.78 99.3887 111.705L101.371 111.575V112.252C101.371 113.305 100.476 114.098 99.2656 114.098ZM99.0469 115.13C100.031 115.13 100.838 114.699 101.316 113.913H101.426V115H102.547V109.955C102.547 108.424 101.542 107.501 99.7441 107.501C98.1719 107.501 97.0098 108.28 96.8525 109.463H98.042C98.2061 108.882 98.8213 108.547 99.7031 108.547C100.804 108.547 101.371 109.046 101.371 109.955V110.625L99.2451 110.755C97.5293 110.857 96.5586 111.616 96.5586 112.936C96.5586 114.282 97.6182 115.13 99.0469 115.13ZM104.748 115H105.924V107.631H104.748V115ZM105.336 106.209C105.787 106.209 106.156 105.84 106.156 105.389C106.156 104.938 105.787 104.568 105.336 104.568C104.885 104.568 104.516 104.938 104.516 105.389C104.516 105.84 104.885 106.209 105.336 106.209ZM108.234 115H109.41V104.705H108.234V115ZM114.633 108.54C115.802 108.54 116.581 109.401 116.608 110.707H112.548C112.637 109.401 113.457 108.54 114.633 108.54ZM116.574 113.093C116.267 113.742 115.624 114.091 114.674 114.091C113.423 114.091 112.609 113.168 112.548 111.712V111.657H117.846V111.206C117.846 108.916 116.636 107.501 114.646 107.501C112.623 107.501 111.324 109.005 111.324 111.322C111.324 113.653 112.603 115.13 114.646 115.13C116.26 115.13 117.408 114.351 117.75 113.093H116.574ZM122.419 115.13C123.438 115.13 124.312 114.645 124.777 113.824H124.887V115H126.008V104.705H124.832V108.793H124.729C124.312 107.986 123.444 107.501 122.419 107.501C120.546 107.501 119.322 109.005 119.322 111.315C119.322 113.633 120.532 115.13 122.419 115.13ZM122.692 108.561C124.025 108.561 124.859 109.627 124.859 111.315C124.859 113.018 124.032 114.07 122.692 114.07C121.346 114.07 120.539 113.038 120.539 111.315C120.539 109.6 121.353 108.561 122.692 108.561Z" fill="#336ABC"/>
<path d="M53 117.529H127.184V118.35H53V117.529Z" fill="#336ABC"/>
<path d="M140.532 115H141.51L142.07 112.245H143.861L144.053 111.261H142.269L142.781 108.772H144.497L144.688 107.795H142.986L143.533 105.136H142.556L142.002 107.795H139.773L140.307 105.136H139.336L138.782 107.795H137.094L136.896 108.772H138.584L138.085 111.261H136.465L136.273 112.245H137.873L137.319 115H138.29L138.851 112.245H141.093L140.532 115ZM139.042 111.281L139.555 108.759H141.811L141.298 111.281H139.042ZM148.318 115H149.549V105.136H148.325L145.7 107.022V108.321L148.209 106.503H148.318V115ZM155.776 115.232C157.793 115.232 159.167 113.838 159.167 111.808C159.167 109.853 157.8 108.554 156.146 108.554C155.161 108.554 154.43 108.854 153.951 109.449H153.842L154.149 106.236H158.661V105.136H153.186L152.618 110.775H153.773C154.163 110.044 154.901 109.613 155.838 109.613C157.082 109.613 157.937 110.509 157.937 111.842C157.937 113.223 157.082 114.152 155.79 114.152C154.628 114.152 153.78 113.448 153.671 112.396H152.461C152.57 114.084 153.91 115.232 155.776 115.232ZM163.521 115H164.752V105.136H163.528L160.903 107.022V108.321L163.412 106.503H163.521V115ZM169.77 110.454H170.993C172.381 110.454 173.235 111.165 173.235 112.307C173.235 113.414 172.312 114.159 171.014 114.159C169.742 114.159 168.854 113.496 168.744 112.457H167.555C167.644 114.132 169.024 115.232 171.027 115.232C172.989 115.232 174.5 113.995 174.5 112.341C174.5 110.967 173.652 110.099 172.374 109.894V109.784C173.386 109.49 174.124 108.704 174.131 107.515C174.138 106.134 173.017 104.903 171.068 104.903C169.072 104.903 167.849 106.086 167.726 107.692H168.922C169.024 106.585 169.797 105.977 170.986 105.977C172.176 105.977 172.88 106.729 172.88 107.651C172.88 108.677 172.073 109.401 170.938 109.401H169.77V110.454Z" fill="#67789D"/>
<path d="M30.9375 113.625H21.3125C20.5742 113.625 20 114.227 20 114.938V124.562C20 125.301 20.5742 125.875 21.3125 125.875H30.9375C31.6484 125.875 32.25 125.301 32.25 124.562V114.938C32.25 114.227 31.6484 113.625 30.9375 113.625ZM30.7734 124.562H21.4766C21.3672 124.562 21.3125 124.508 21.3125 124.398V115.102C21.3125 115.02 21.3672 114.938 21.4766 114.938H30.7734C30.8555 114.938 30.9375 115.02 30.9375 115.102V124.398C30.9375 124.508 30.8555 124.562 30.7734 124.562Z" fill="#8896B3"/>
<path d="M27.7314 29.2363H23.2607V26.8369H27.4785V25.2031H23.2607V22.8994H27.7314V21.1357H21.1963V31H27.7314V29.2363ZM29.707 31H31.6963V26.8232C31.6963 25.7637 32.4414 25.1211 33.5283 25.1211C33.8496 25.1211 34.3145 25.1826 34.4717 25.2441V23.4326C34.3008 23.3711 33.9658 23.3369 33.6924 23.3369C32.7354 23.3369 31.9561 23.9111 31.7578 24.6631H31.6348V23.46H29.707V31ZM35.873 31H37.8623V26.8232C37.8623 25.7637 38.6074 25.1211 39.6943 25.1211C40.0156 25.1211 40.4805 25.1826 40.6377 25.2441V23.4326C40.4668 23.3711 40.1318 23.3369 39.8584 23.3369C38.9014 23.3369 38.1221 23.9111 37.9238 24.6631H37.8008V23.46H35.873V31ZM45.1357 31.1641C47.4531 31.1641 48.8477 29.6943 48.8477 27.2266C48.8477 24.7793 47.4326 23.2959 45.1357 23.2959C42.8389 23.2959 41.4238 24.7861 41.4238 27.2266C41.4238 29.6943 42.8184 31.1641 45.1357 31.1641ZM45.1357 29.5371C44.0693 29.5371 43.4678 28.6963 43.4678 27.2266C43.4678 25.7773 44.0762 24.9229 45.1357 24.9229C46.1885 24.9229 46.8037 25.7773 46.8037 27.2266C46.8037 28.6895 46.1953 29.5371 45.1357 29.5371ZM50.4746 31H52.4639V26.8232C52.4639 25.7637 53.209 25.1211 54.2959 25.1211C54.6172 25.1211 55.082 25.1826 55.2393 25.2441V23.4326C55.0684 23.3711 54.7334 23.3369 54.46 23.3369C53.5029 23.3369 52.7236 23.9111 52.5254 24.6631H52.4023V23.46H50.4746V31ZM56.2236 25.6748C56.2236 26.8369 56.9346 27.5342 58.3975 27.8555L59.7646 28.1631C60.4277 28.3066 60.7148 28.5322 60.7148 28.9014C60.7148 29.3867 60.1816 29.708 59.4092 29.708C58.6162 29.708 58.1309 29.4141 57.9805 28.9014H56.0391C56.1758 30.3506 57.3789 31.1641 59.3682 31.1641C61.3438 31.1641 62.6904 30.1797 62.6904 28.6758C62.6904 27.5479 62.0342 26.9326 60.5713 26.6113L59.1562 26.3037C58.459 26.1465 58.1377 25.9209 58.1377 25.5518C58.1377 25.0732 58.6641 24.752 59.375 24.752C60.1133 24.752 60.5713 25.0527 60.6738 25.5381H62.5127C62.4033 24.0957 61.2754 23.2959 59.3613 23.2959C57.4814 23.2959 56.2236 24.2461 56.2236 25.6748Z" fill="#203053"/>
<rect y="50" width="768" height="34" fill="#F5F7F9"/>
<path d="M59.5742 71H60.6816L57.5645 62.5449H56.5215L53.4043 71H54.5117L55.3613 68.5801H58.7246L59.5742 71ZM56.9961 63.9102H57.0898L58.4141 67.6836H55.6719L56.9961 63.9102ZM66.9102 66.6172C66.7344 65.4922 65.7969 64.5723 64.2617 64.5723C62.4922 64.5723 61.3672 65.8496 61.3672 67.8184C61.3672 69.8281 62.498 71.1113 64.2676 71.1113C65.7852 71.1113 66.7285 70.2559 66.9102 69.0957H65.8906C65.7031 69.8105 65.1113 70.2031 64.2617 70.2031C63.1367 70.2031 62.4102 69.2773 62.4102 67.8184C62.4102 66.3887 63.125 65.4805 64.2617 65.4805C65.1699 65.4805 65.7266 65.9902 65.8906 66.6172H66.9102ZM68.9375 63.0488V64.6836H67.918V65.5273H68.9375V69.3594C68.9375 70.5664 69.459 71.0469 70.7598 71.0469C70.959 71.0469 71.1523 71.0234 71.3516 70.9883V70.1387C71.1641 70.1562 71.0645 70.1621 70.8828 70.1621C70.2266 70.1621 69.9453 69.8457 69.9453 69.1016V65.5273H71.3516V64.6836H69.9453V63.0488H68.9375ZM72.8984 71H73.9062V64.6836H72.8984V71ZM73.4023 63.4648C73.7891 63.4648 74.1055 63.1484 74.1055 62.7617C74.1055 62.375 73.7891 62.0586 73.4023 62.0586C73.0156 62.0586 72.6992 62.375 72.6992 62.7617C72.6992 63.1484 73.0156 63.4648 73.4023 63.4648ZM78.4238 71.1113C80.2227 71.1113 81.3359 69.8691 81.3359 67.8418C81.3359 65.8086 80.2227 64.5723 78.4238 64.5723C76.625 64.5723 75.5117 65.8086 75.5117 67.8418C75.5117 69.8691 76.625 71.1113 78.4238 71.1113ZM78.4238 70.2031C77.2285 70.2031 76.5547 69.3359 76.5547 67.8418C76.5547 66.3418 77.2285 65.4805 78.4238 65.4805C79.6191 65.4805 80.293 66.3418 80.293 67.8418C80.293 69.3359 79.6191 70.2031 78.4238 70.2031ZM82.918 71H83.9258V67.2617C83.9258 66.1543 84.5762 65.4805 85.584 65.4805C86.5918 65.4805 87.0723 66.0195 87.0723 67.1562V71H88.0801V66.9102C88.0801 65.4102 87.2891 64.5723 85.8711 64.5723C84.9043 64.5723 84.2891 64.9824 83.9727 65.6797H83.8789V64.6836H82.918V71ZM95.2578 70.2266C94.5254 70.2266 93.9805 69.8516 93.9805 69.207C93.9805 68.5742 94.4023 68.2402 95.3633 68.1758L97.0625 68.0645V68.6445C97.0625 69.5469 96.2949 70.2266 95.2578 70.2266ZM95.0703 71.1113C95.9141 71.1113 96.6055 70.7422 97.0156 70.0684H97.1094V71H98.0703V66.6758C98.0703 65.3633 97.209 64.5723 95.668 64.5723C94.3203 64.5723 93.3242 65.2402 93.1895 66.2539H94.209C94.3496 65.7559 94.877 65.4688 95.6328 65.4688C96.5762 65.4688 97.0625 65.8965 97.0625 66.6758V67.25L95.2402 67.3613C93.7695 67.4492 92.9375 68.0996 92.9375 69.2305C92.9375 70.3848 93.8457 71.1113 95.0703 71.1113ZM99.9336 71H100.941V67.2617C100.941 66.1543 101.592 65.4805 102.6 65.4805C103.607 65.4805 104.088 66.0195 104.088 67.1562V71H105.096V66.9102C105.096 65.4102 104.305 64.5723 102.887 64.5723C101.92 64.5723 101.305 64.9824 100.988 65.6797H100.895V64.6836H99.9336V71ZM109.279 71.1113C110.152 71.1113 110.902 70.6953 111.301 69.9922H111.395V71H112.355V62.1758H111.348V65.6797H111.26C110.902 64.9883 110.158 64.5723 109.279 64.5723C107.674 64.5723 106.625 65.8613 106.625 67.8418C106.625 69.8281 107.662 71.1113 109.279 71.1113ZM109.514 65.4805C110.656 65.4805 111.371 66.3945 111.371 67.8418C111.371 69.3008 110.662 70.2031 109.514 70.2031C108.359 70.2031 107.668 69.3184 107.668 67.8418C107.668 66.3711 108.365 65.4805 109.514 65.4805ZM120.219 65.4629C121.221 65.4629 121.889 66.2012 121.912 67.3203H118.432C118.508 66.2012 119.211 65.4629 120.219 65.4629ZM121.883 69.3652C121.619 69.9219 121.068 70.2207 120.254 70.2207C119.182 70.2207 118.484 69.4297 118.432 68.1816V68.1348H122.973V67.748C122.973 65.7852 121.936 64.5723 120.23 64.5723C118.496 64.5723 117.383 65.8613 117.383 67.8477C117.383 69.8457 118.479 71.1113 120.23 71.1113C121.613 71.1113 122.598 70.4434 122.891 69.3652H121.883ZM124.555 71H125.562V67.0859C125.562 66.1953 126.26 65.5508 127.221 65.5508C127.42 65.5508 127.783 65.5859 127.865 65.6094V64.6016C127.736 64.584 127.525 64.5723 127.361 64.5723C126.523 64.5723 125.797 65.0059 125.609 65.6211H125.516V64.6836H124.555V71ZM129.242 71H130.25V67.0859C130.25 66.1953 130.947 65.5508 131.908 65.5508C132.107 65.5508 132.471 65.5859 132.553 65.6094V64.6016C132.424 64.584 132.213 64.5723 132.049 64.5723C131.211 64.5723 130.484 65.0059 130.297 65.6211H130.203V64.6836H129.242V71ZM136.232 71.1113C138.031 71.1113 139.145 69.8691 139.145 67.8418C139.145 65.8086 138.031 64.5723 136.232 64.5723C134.434 64.5723 133.32 65.8086 133.32 67.8418C133.32 69.8691 134.434 71.1113 136.232 71.1113ZM136.232 70.2031C135.037 70.2031 134.363 69.3359 134.363 67.8418C134.363 66.3418 135.037 65.4805 136.232 65.4805C137.428 65.4805 138.102 66.3418 138.102 67.8418C138.102 69.3359 137.428 70.2031 136.232 70.2031ZM140.727 71H141.734V67.0859C141.734 66.1953 142.432 65.5508 143.393 65.5508C143.592 65.5508 143.955 65.5859 144.037 65.6094V64.6016C143.908 64.584 143.697 64.5723 143.533 64.5723C142.695 64.5723 141.969 65.0059 141.781 65.6211H141.688V64.6836H140.727V71ZM149.105 63.0488V64.6836H148.086V65.5273H149.105V69.3594C149.105 70.5664 149.627 71.0469 150.928 71.0469C151.127 71.0469 151.32 71.0234 151.52 70.9883V70.1387C151.332 70.1562 151.232 70.1621 151.051 70.1621C150.395 70.1621 150.113 69.8457 150.113 69.1016V65.5273H151.52V64.6836H150.113V63.0488H149.105ZM153.582 73.2852C154.701 73.2852 155.205 72.8516 155.744 71.3867L158.211 64.6836H157.139L155.41 69.8809H155.316L153.582 64.6836H152.492L154.83 71.0059L154.713 71.3809C154.449 72.1426 154.133 72.418 153.553 72.418C153.412 72.418 153.254 72.4121 153.131 72.3887V73.25C153.271 73.2734 153.447 73.2852 153.582 73.2852ZM162.635 64.5723C161.773 64.5723 161.018 65.0117 160.613 65.7383H160.52V64.6836H159.559V73.1094H160.566V70.0508H160.66C161.006 70.7188 161.732 71.1113 162.635 71.1113C164.24 71.1113 165.289 69.8164 165.289 67.8418C165.289 65.8555 164.246 64.5723 162.635 64.5723ZM162.395 70.2031C161.258 70.2031 160.537 69.2891 160.537 67.8418C160.537 66.3887 161.258 65.4805 162.4 65.4805C163.555 65.4805 164.246 66.3652 164.246 67.8418C164.246 69.3184 163.555 70.2031 162.395 70.2031ZM169.391 65.4629C170.393 65.4629 171.061 66.2012 171.084 67.3203H167.604C167.68 66.2012 168.383 65.4629 169.391 65.4629ZM171.055 69.3652C170.791 69.9219 170.24 70.2207 169.426 70.2207C168.354 70.2207 167.656 69.4297 167.604 68.1816V68.1348H172.145V67.748C172.145 65.7852 171.107 64.5723 169.402 64.5723C167.668 64.5723 166.555 65.8613 166.555 67.8477C166.555 69.8457 167.65 71.1113 169.402 71.1113C170.785 71.1113 171.77 70.4434 172.062 69.3652H171.055Z" fill="#67789D"/>
<path d="M330.133 71V62.5449H329.078V71H330.133ZM332.16 71H333.168V67.2617C333.168 66.1543 333.818 65.4805 334.826 65.4805C335.834 65.4805 336.314 66.0195 336.314 67.1562V71H337.322V66.9102C337.322 65.4102 336.531 64.5723 335.113 64.5723C334.146 64.5723 333.531 64.9824 333.215 65.6797H333.121V64.6836H332.16V71ZM344.893 71.1113C345.766 71.1113 346.516 70.6953 346.914 69.9922H347.008V71H347.969V62.1758H346.961V65.6797H346.873C346.516 64.9883 345.771 64.5723 344.893 64.5723C343.287 64.5723 342.238 65.8613 342.238 67.8418C342.238 69.8281 343.275 71.1113 344.893 71.1113ZM345.127 65.4805C346.27 65.4805 346.984 66.3945 346.984 67.8418C346.984 69.3008 346.275 70.2031 345.127 70.2031C343.973 70.2031 343.281 69.3184 343.281 67.8418C343.281 66.3711 343.979 65.4805 345.127 65.4805ZM352.445 65.4629C353.447 65.4629 354.115 66.2012 354.139 67.3203H350.658C350.734 66.2012 351.438 65.4629 352.445 65.4629ZM354.109 69.3652C353.846 69.9219 353.295 70.2207 352.48 70.2207C351.408 70.2207 350.711 69.4297 350.658 68.1816V68.1348H355.199V67.748C355.199 65.7852 354.162 64.5723 352.457 64.5723C350.723 64.5723 349.609 65.8613 349.609 67.8477C349.609 69.8457 350.705 71.1113 352.457 71.1113C353.84 71.1113 354.824 70.4434 355.117 69.3652H354.109ZM359.857 64.5723C358.996 64.5723 358.24 65.0117 357.836 65.7383H357.742V64.6836H356.781V73.1094H357.789V70.0508H357.883C358.229 70.7188 358.955 71.1113 359.857 71.1113C361.463 71.1113 362.512 69.8164 362.512 67.8418C362.512 65.8555 361.469 64.5723 359.857 64.5723ZM359.617 70.2031C358.48 70.2031 357.76 69.2891 357.76 67.8418C357.76 66.3887 358.48 65.4805 359.623 65.4805C360.777 65.4805 361.469 66.3652 361.469 67.8418C361.469 69.3184 360.777 70.2031 359.617 70.2031ZM364.152 71H365.16V62.1758H364.152V71ZM369.713 71.1113C371.512 71.1113 372.625 69.8691 372.625 67.8418C372.625 65.8086 371.512 64.5723 369.713 64.5723C367.914 64.5723 366.801 65.8086 366.801 67.8418C366.801 69.8691 367.914 71.1113 369.713 71.1113ZM369.713 70.2031C368.518 70.2031 367.844 69.3359 367.844 67.8418C367.844 66.3418 368.518 65.4805 369.713 65.4805C370.908 65.4805 371.582 66.3418 371.582 67.8418C371.582 69.3359 370.908 70.2031 369.713 70.2031ZM374.512 73.2852C375.631 73.2852 376.135 72.8516 376.674 71.3867L379.141 64.6836H378.068L376.34 69.8809H376.246L374.512 64.6836H373.422L375.76 71.0059L375.643 71.3809C375.379 72.1426 375.062 72.418 374.482 72.418C374.342 72.418 374.184 72.4121 374.061 72.3887V73.25C374.201 73.2734 374.377 73.2852 374.512 73.2852Z" fill="#67789D"/>
<path d="M452.33 71V63.4941H455.055V62.5449H448.551V63.4941H451.275V71H452.33ZM457.979 71.1113C459.777 71.1113 460.891 69.8691 460.891 67.8418C460.891 65.8086 459.777 64.5723 457.979 64.5723C456.18 64.5723 455.066 65.8086 455.066 67.8418C455.066 69.8691 456.18 71.1113 457.979 71.1113ZM457.979 70.2031C456.783 70.2031 456.109 69.3359 456.109 67.8418C456.109 66.3418 456.783 65.4805 457.979 65.4805C459.174 65.4805 459.848 66.3418 459.848 67.8418C459.848 69.3359 459.174 70.2031 457.979 70.2031ZM462.895 63.0488V64.6836H461.875V65.5273H462.895V69.3594C462.895 70.5664 463.416 71.0469 464.717 71.0469C464.916 71.0469 465.109 71.0234 465.309 70.9883V70.1387C465.121 70.1562 465.021 70.1621 464.84 70.1621C464.184 70.1621 463.902 69.8457 463.902 69.1016V65.5273H465.309V64.6836H463.902V63.0488H462.895ZM468.777 70.2266C468.045 70.2266 467.5 69.8516 467.5 69.207C467.5 68.5742 467.922 68.2402 468.883 68.1758L470.582 68.0645V68.6445C470.582 69.5469 469.814 70.2266 468.777 70.2266ZM468.59 71.1113C469.434 71.1113 470.125 70.7422 470.535 70.0684H470.629V71H471.59V66.6758C471.59 65.3633 470.729 64.5723 469.188 64.5723C467.84 64.5723 466.844 65.2402 466.709 66.2539H467.729C467.869 65.7559 468.396 65.4688 469.152 65.4688C470.096 65.4688 470.582 65.8965 470.582 66.6758V67.25L468.76 67.3613C467.289 67.4492 466.457 68.0996 466.457 69.2305C466.457 70.3848 467.365 71.1113 468.59 71.1113ZM473.512 71H474.52V62.1758H473.512V71Z" fill="#67789D"/>
<path d="M31.3125 60.625H21.6875C20.9492 60.625 20.375 61.2266 20.375 61.9375V71.5625C20.375 72.3008 20.9492 72.875 21.6875 72.875H31.3125C32.0234 72.875 32.625 72.3008 32.625 71.5625V61.9375C32.625 61.2266 32.0234 60.625 31.3125 60.625ZM31.1484 71.5625H21.8516C21.7422 71.5625 21.6875 71.5078 21.6875 71.3984V62.1016C21.6875 62.0195 21.7422 61.9375 21.8516 61.9375H31.1484C31.2305 61.9375 31.3125 62.0195 31.3125 62.1016V71.3984C31.3125 71.5078 31.2305 71.5625 31.1484 71.5625Z" fill="#8896B3"/>
<rect y="50" width="768" height="1" fill="#D9DDE7"/>
<rect y="84" width="768" height="1" fill="#D9DDE7"/>
<rect width="508" height="324" fill="url(#paint0_linear)"/>
</g>
<defs>
<linearGradient id="paint0_linear" x1="254" y1="0" x2="254" y2="324" gradientUnits="userSpaceOnUse">
<stop offset="0.520833" stop-color="#1A294A" stop-opacity="0"/>
<stop offset="1" stop-color="#1A294A" stop-opacity="0.16"/>
</linearGradient>
<clipPath id="clip0">
<rect width="508" height="324" fill="white"/>
</clipPath>
</defs>
</svg>
