<svg width="508" height="324" viewBox="0 0 508 324" fill="none" xmlns="http://www.w3.org/2000/svg">
  <rect width="768" height="360" rx="8" fill="white"/>
  <path d="M27.5059 29.4551H22.9805V21.1357H21.2168V31H27.5059V29.4551ZM31.7852 29.79C31.0332 29.79 30.4932 29.4141 30.4932 28.7852C30.4932 28.1768 30.9375 27.835 31.8877 27.7734L33.5762 27.6641V28.2588C33.5762 29.127 32.8105 29.79 31.7852 29.79ZM31.2861 31.123C32.2637 31.123 33.084 30.6992 33.501 29.9746H33.6172V31H35.251V25.8936C35.251 24.3076 34.1709 23.3711 32.25 23.3711C30.4727 23.3711 29.2354 24.2119 29.0986 25.5312H30.6982C30.8555 25.0254 31.3887 24.752 32.168 24.752C33.084 24.752 33.5762 25.1621 33.5762 25.8936V26.5225L31.6484 26.6387C29.8301 26.748 28.8115 27.5273 28.8115 28.8809C28.8115 30.248 29.8438 31.123 31.2861 31.123ZM37.835 21.6895V23.5693H36.6523V24.9229H37.835V29.0039C37.835 30.4531 38.5186 31.0342 40.2344 31.0342C40.5625 31.0342 40.877 31 41.123 30.9521V29.626C40.918 29.6465 40.7881 29.6602 40.5488 29.6602C39.8379 29.6602 39.5234 29.332 39.5234 28.5938V24.9229H41.123V23.5693H39.5234V21.6895H37.835ZM45.8877 24.7178C46.9062 24.7178 47.5762 25.4287 47.6104 26.5361H44.0898C44.165 25.4424 44.876 24.7178 45.8877 24.7178ZM47.624 28.9424C47.3779 29.4961 46.7969 29.8037 45.9561 29.8037C44.8418 29.8037 44.124 29.0244 44.083 27.7803V27.6914H49.3057V27.1445C49.3057 24.7861 48.0273 23.3711 45.8945 23.3711C43.7275 23.3711 42.3809 24.8818 42.3809 27.2881C42.3809 29.6943 43.707 31.1504 45.9082 31.1504C47.6719 31.1504 48.9229 30.3027 49.2305 28.9424H47.624ZM50.8369 25.6611C50.8369 26.7891 51.5137 27.4521 52.9492 27.7803L54.2754 28.0879C54.9863 28.2451 55.3076 28.5117 55.3076 28.9355C55.3076 29.4893 54.7129 29.8652 53.8584 29.8652C53.0107 29.8652 52.4844 29.5371 52.3203 28.9834H50.6455C50.7754 30.3438 51.9512 31.1504 53.8174 31.1504C55.6836 31.1504 57.0029 30.1934 57.0029 28.7578C57.0029 27.6572 56.3398 27.042 54.9111 26.7207L53.5918 26.4199C52.8398 26.249 52.4844 25.9893 52.4844 25.5654C52.4844 25.0254 53.0654 24.6562 53.8379 24.6562C54.6309 24.6562 55.1299 24.9912 55.2529 25.5176H56.8457C56.7227 24.1572 55.6084 23.3711 53.8311 23.3711C52.0674 23.3711 50.8369 24.3076 50.8369 25.6611ZM59.2041 21.6895V23.5693H58.0215V24.9229H59.2041V29.0039C59.2041 30.4531 59.8877 31.0342 61.6035 31.0342C61.9316 31.0342 62.2461 31 62.4922 30.9521V29.626C62.2871 29.6465 62.1572 29.6602 61.918 29.6602C61.207 29.6602 60.8926 29.332 60.8926 28.5938V24.9229H62.4922V23.5693H60.8926V21.6895H59.2041ZM67.9883 31H69.6836V26.6592C69.6836 25.5859 70.3057 24.8613 71.4199 24.8613C72.4043 24.8613 72.9238 25.4424 72.9238 26.5771V31H74.6191V26.1738C74.6191 24.3965 73.6484 23.3848 72.0488 23.3848C70.9346 23.3848 70.1348 23.8906 69.7793 24.7314H69.6562V20.6299H67.9883V31ZM79.8555 31.1504C82.0908 31.1504 83.4512 29.6875 83.4512 27.2607C83.4512 24.8408 82.084 23.3711 79.8555 23.3711C77.6338 23.3711 76.2598 24.8477 76.2598 27.2607C76.2598 29.6875 77.6133 31.1504 79.8555 31.1504ZM79.8555 29.7285C78.6729 29.7285 77.9961 28.8262 77.9961 27.2607C77.9961 25.7021 78.6729 24.793 79.8555 24.793C81.0312 24.793 81.708 25.7021 81.708 27.2607C81.708 28.8262 81.0381 29.7285 79.8555 29.7285ZM84.9893 25.6611C84.9893 26.7891 85.666 27.4521 87.1016 27.7803L88.4277 28.0879C89.1387 28.2451 89.46 28.5117 89.46 28.9355C89.46 29.4893 88.8652 29.8652 88.0107 29.8652C87.1631 29.8652 86.6367 29.5371 86.4727 28.9834H84.7979C84.9277 30.3438 86.1035 31.1504 87.9697 31.1504C89.8359 31.1504 91.1553 30.1934 91.1553 28.7578C91.1553 27.6572 90.4922 27.042 89.0635 26.7207L87.7441 26.4199C86.9922 26.249 86.6367 25.9893 86.6367 25.5654C86.6367 25.0254 87.2178 24.6562 87.9902 24.6562C88.7832 24.6562 89.2822 24.9912 89.4053 25.5176H90.998C90.875 24.1572 89.7607 23.3711 87.9834 23.3711C86.2197 23.3711 84.9893 24.3076 84.9893 25.6611ZM93.3564 21.6895V23.5693H92.1738V24.9229H93.3564V29.0039C93.3564 30.4531 94.04 31.0342 95.7559 31.0342C96.084 31.0342 96.3984 31 96.6445 30.9521V29.626C96.4395 29.6465 96.3096 29.6602 96.0703 29.6602C95.3594 29.6602 95.0449 29.332 95.0449 28.5938V24.9229H96.6445V23.5693H95.0449V21.6895H93.3564ZM102.072 31H103.768V26.4541C103.768 25.5381 104.39 24.8477 105.23 24.8477C106.064 24.8477 106.584 25.3467 106.584 26.167V31H108.231V26.3447C108.231 25.4902 108.812 24.8477 109.694 24.8477C110.604 24.8477 111.062 25.3262 111.062 26.29V31H112.75V25.8594C112.75 24.3076 111.848 23.3711 110.351 23.3711C109.312 23.3711 108.45 23.9111 108.081 24.7314H107.965C107.65 23.8906 106.933 23.3711 105.9 23.3711C104.909 23.3711 104.144 23.877 103.822 24.7314H103.706V23.5215H102.072V31ZM117.897 24.7178C118.916 24.7178 119.586 25.4287 119.62 26.5361H116.1C116.175 25.4424 116.886 24.7178 117.897 24.7178ZM119.634 28.9424C119.388 29.4961 118.807 29.8037 117.966 29.8037C116.852 29.8037 116.134 29.0244 116.093 27.7803V27.6914H121.315V27.1445C121.315 24.7861 120.037 23.3711 117.904 23.3711C115.737 23.3711 114.391 24.8818 114.391 27.2881C114.391 29.6943 115.717 31.1504 117.918 31.1504C119.682 31.1504 120.933 30.3027 121.24 28.9424H119.634ZM123.558 21.6895V23.5693H122.375V24.9229H123.558V29.0039C123.558 30.4531 124.241 31.0342 125.957 31.0342C126.285 31.0342 126.6 31 126.846 30.9521V29.626C126.641 29.6465 126.511 29.6602 126.271 29.6602C125.561 29.6602 125.246 29.332 125.246 28.5938V24.9229H126.846V23.5693H125.246V21.6895H123.558ZM128.541 31H130.236V26.6797C130.236 25.6338 131.002 24.9502 132.103 24.9502C132.39 24.9502 132.841 24.998 132.971 25.0459V23.4736C132.813 23.4258 132.513 23.3984 132.267 23.3984C131.303 23.3984 130.496 23.9453 130.291 24.6836H130.175V23.5215H128.541V31ZM134.386 31H136.074V23.5215H134.386V31ZM135.227 22.2842C135.787 22.2842 136.238 21.833 136.238 21.2656C136.238 20.6982 135.787 20.2402 135.227 20.2402C134.673 20.2402 134.215 20.6982 134.215 21.2656C134.215 21.833 134.673 22.2842 135.227 22.2842ZM144.64 26.0371C144.462 24.4648 143.3 23.3711 141.379 23.3711C139.13 23.3711 137.811 24.8135 137.811 27.2402C137.811 29.7012 139.137 31.1504 141.386 31.1504C143.279 31.1504 144.455 30.0977 144.64 28.5322H143.026C142.849 29.3115 142.261 29.7285 141.379 29.7285C140.224 29.7285 139.526 28.8125 139.526 27.2402C139.526 25.6885 140.217 24.793 141.379 24.793C142.309 24.793 142.869 25.3125 143.026 26.0371H144.64ZM146.089 25.6611C146.089 26.7891 146.766 27.4521 148.201 27.7803L149.527 28.0879C150.238 28.2451 150.56 28.5117 150.56 28.9355C150.56 29.4893 149.965 29.8652 149.11 29.8652C148.263 29.8652 147.736 29.5371 147.572 28.9834H145.897C146.027 30.3438 147.203 31.1504 149.069 31.1504C150.936 31.1504 152.255 30.1934 152.255 28.7578C152.255 27.6572 151.592 27.042 150.163 26.7207L148.844 26.4199C148.092 26.249 147.736 25.9893 147.736 25.5654C147.736 25.0254 148.317 24.6562 149.09 24.6562C149.883 24.6562 150.382 24.9912 150.505 25.5176H152.098C151.975 24.1572 150.86 23.3711 149.083 23.3711C147.319 23.3711 146.089 24.3076 146.089 25.6611Z" fill="#203053"/>
  <rect y="54" width="1136" height="36" fill="#F5F7F9"/>
  <path d="M61.4805 77V67.8403H60.3379V71.8013H55.3105V67.8403H54.168V77H55.3105V72.8296H60.3379V77H61.4805ZM66.4888 77.1206C68.4375 77.1206 69.6436 75.7749 69.6436 73.5786C69.6436 71.376 68.4375 70.0366 66.4888 70.0366C64.54 70.0366 63.334 71.376 63.334 73.5786C63.334 75.7749 64.54 77.1206 66.4888 77.1206ZM66.4888 76.1367C65.1938 76.1367 64.4639 75.1973 64.4639 73.5786C64.4639 71.9536 65.1938 71.0205 66.4888 71.0205C67.7837 71.0205 68.5137 71.9536 68.5137 73.5786C68.5137 75.1973 67.7837 76.1367 66.4888 76.1367ZM71.1987 72.0298C71.1987 73.02 71.7827 73.5723 73.0649 73.8833L74.2393 74.1689C74.9692 74.3467 75.3247 74.6641 75.3247 75.1338C75.3247 75.7622 74.6646 76.2002 73.7441 76.2002C72.8682 76.2002 72.3223 75.832 72.1382 75.2544H71.0146C71.1353 76.3906 72.1826 77.1206 73.7061 77.1206C75.2612 77.1206 76.4482 76.2764 76.4482 75.0513C76.4482 74.0674 75.8262 73.5088 74.5376 73.1978L73.4839 72.9438C72.6777 72.7471 72.2969 72.4551 72.2969 71.9854C72.2969 71.376 72.9316 70.9634 73.7441 70.9634C74.5693 70.9634 75.1025 71.3252 75.2485 71.8711H76.3276C76.1816 70.7476 75.1851 70.0366 73.7505 70.0366C72.2969 70.0366 71.1987 70.8936 71.1987 72.0298ZM78.5557 68.3862V70.1572H77.4512V71.0713H78.5557V75.2227C78.5557 76.5303 79.1206 77.0508 80.5298 77.0508C80.7456 77.0508 80.9551 77.0254 81.1709 76.9873V76.0669C80.9678 76.0859 80.8599 76.0923 80.6631 76.0923C79.9521 76.0923 79.6475 75.7495 79.6475 74.9434V71.0713H81.1709V70.1572H79.6475V68.3862H78.5557ZM82.8213 77H83.9131V72.9502C83.9131 71.7505 84.6177 71.0205 85.7095 71.0205C86.8013 71.0205 87.3218 71.6045 87.3218 72.8359V77H88.4136V72.5693C88.4136 70.9443 87.5566 70.0366 86.0205 70.0366C84.9731 70.0366 84.3066 70.481 83.9639 71.2363H83.8623V70.1572H82.8213V77ZM92.5205 76.1621C91.7271 76.1621 91.1367 75.7559 91.1367 75.0576C91.1367 74.3721 91.5938 74.0103 92.6348 73.9404L94.4756 73.8198V74.4482C94.4756 75.4258 93.644 76.1621 92.5205 76.1621ZM92.3174 77.1206C93.2314 77.1206 93.9805 76.7207 94.4248 75.9907H94.5264V77H95.5674V72.3154C95.5674 70.8936 94.6343 70.0366 92.9648 70.0366C91.5049 70.0366 90.4258 70.7603 90.2798 71.8584H91.3843C91.5366 71.3188 92.1079 71.0078 92.9268 71.0078C93.9487 71.0078 94.4756 71.4712 94.4756 72.3154V72.9375L92.5015 73.0581C90.9082 73.1533 90.0068 73.8579 90.0068 75.083C90.0068 76.3335 90.9907 77.1206 92.3174 77.1206ZM97.5859 77H98.6777V72.7598C98.6777 71.7949 99.3696 71.0205 100.265 71.0205C101.128 71.0205 101.693 71.541 101.693 72.3535V77H102.785V72.6011C102.785 71.7314 103.419 71.0205 104.372 71.0205C105.336 71.0205 105.812 71.5156 105.812 72.5249V77H106.904V72.271C106.904 70.8364 106.124 70.0366 104.727 70.0366C103.781 70.0366 103 70.5127 102.632 71.2363H102.531C102.213 70.5254 101.566 70.0366 100.639 70.0366C99.7251 70.0366 99.0396 70.4746 98.7285 71.2363H98.627V70.1572H97.5859V77ZM111.627 71.0015C112.712 71.0015 113.436 71.8013 113.461 73.0137H109.691C109.773 71.8013 110.535 71.0015 111.627 71.0015ZM113.43 75.229C113.144 75.832 112.547 76.1558 111.665 76.1558C110.503 76.1558 109.748 75.2988 109.691 73.9468V73.896H114.61V73.4771C114.61 71.3506 113.487 70.0366 111.64 70.0366C109.761 70.0366 108.555 71.4331 108.555 73.585C108.555 75.7495 109.742 77.1206 111.64 77.1206C113.138 77.1206 114.204 76.397 114.521 75.229H113.43Z" fill="#415377"/>
  <path d="M127.639 74.8398C127.797 74.998 128.061 74.998 128.219 74.8398L131.646 71.4297C131.805 71.2539 131.805 70.9902 131.646 70.832L131.242 70.4277C131.084 70.2695 130.82 70.2695 130.645 70.4277L127.938 73.1348L125.213 70.4277C125.037 70.2695 124.773 70.2695 124.615 70.4277L124.211 70.832C124.053 70.9902 124.053 71.2539 124.211 71.4297L127.639 74.8398Z" fill="#415377"/>
  <path d="M278.194 77V67.8403H276.868L273.732 75.4829H273.63L270.495 67.8403H269.168V77H270.234V70.0049H270.311L273.199 77H274.164L277.052 70.0049H277.128V77H278.194ZM283.12 71.0015C284.206 71.0015 284.929 71.8013 284.955 73.0137H281.184C281.267 71.8013 282.028 71.0015 283.12 71.0015ZM284.923 75.229C284.637 75.832 284.041 76.1558 283.158 76.1558C281.997 76.1558 281.241 75.2988 281.184 73.9468V73.896H286.104V73.4771C286.104 71.3506 284.98 70.0366 283.133 70.0366C281.254 70.0366 280.048 71.4331 280.048 73.585C280.048 75.7495 281.235 77.1206 283.133 77.1206C284.631 77.1206 285.697 76.397 286.015 75.229H284.923ZM287.817 77H288.909V72.7598C288.909 71.7949 289.601 71.0205 290.496 71.0205C291.359 71.0205 291.924 71.541 291.924 72.3535V77H293.016V72.6011C293.016 71.7314 293.651 71.0205 294.603 71.0205C295.568 71.0205 296.044 71.5156 296.044 72.5249V77H297.136V72.271C297.136 70.8364 296.355 70.0366 294.958 70.0366C294.013 70.0366 293.232 70.5127 292.864 71.2363H292.762C292.445 70.5254 291.797 70.0366 290.871 70.0366C289.957 70.0366 289.271 70.4746 288.96 71.2363H288.858V70.1572H287.817V77ZM301.941 77.1206C303.89 77.1206 305.096 75.7749 305.096 73.5786C305.096 71.376 303.89 70.0366 301.941 70.0366C299.992 70.0366 298.786 71.376 298.786 73.5786C298.786 75.7749 299.992 77.1206 301.941 77.1206ZM301.941 76.1367C300.646 76.1367 299.916 75.1973 299.916 73.5786C299.916 71.9536 300.646 71.0205 301.941 71.0205C303.236 71.0205 303.966 71.9536 303.966 73.5786C303.966 75.1973 303.236 76.1367 301.941 76.1367ZM306.81 77H307.901V72.7598C307.901 71.7949 308.657 71.0967 309.698 71.0967C309.914 71.0967 310.307 71.1348 310.396 71.1602V70.0684C310.256 70.0493 310.028 70.0366 309.85 70.0366C308.942 70.0366 308.155 70.5063 307.952 71.1729H307.851V70.1572H306.81V77ZM312.345 79.4756C313.557 79.4756 314.103 79.0059 314.687 77.4189L317.359 70.1572H316.198L314.325 75.7876H314.224L312.345 70.1572H311.164L313.697 77.0063L313.57 77.4126C313.284 78.2378 312.941 78.5361 312.313 78.5361C312.161 78.5361 311.989 78.5298 311.856 78.5044V79.4375C312.008 79.4629 312.199 79.4756 312.345 79.4756ZM328.023 70.1572H326.932V74.207C326.932 75.4067 326.271 76.124 325.065 76.124C323.974 76.124 323.517 75.5527 323.517 74.3213V70.1572H322.425V74.5879C322.425 76.2065 323.225 77.1206 324.761 77.1206C325.808 77.1206 326.538 76.689 326.881 75.9272H326.982V77H328.023V70.1572ZM329.921 72.0298C329.921 73.02 330.505 73.5723 331.788 73.8833L332.962 74.1689C333.692 74.3467 334.047 74.6641 334.047 75.1338C334.047 75.7622 333.387 76.2002 332.467 76.2002C331.591 76.2002 331.045 75.832 330.861 75.2544H329.737C329.858 76.3906 330.905 77.1206 332.429 77.1206C333.984 77.1206 335.171 76.2764 335.171 75.0513C335.171 74.0674 334.549 73.5088 333.26 73.1978L332.207 72.9438C331.4 72.7471 331.02 72.4551 331.02 71.9854C331.02 71.376 331.654 70.9634 332.467 70.9634C333.292 70.9634 333.825 71.3252 333.971 71.8711H335.05C334.904 70.7476 333.908 70.0366 332.473 70.0366C331.02 70.0366 329.921 70.8936 329.921 72.0298ZM339.614 71.0015C340.7 71.0015 341.423 71.8013 341.449 73.0137H337.678C337.761 71.8013 338.522 71.0015 339.614 71.0015ZM341.417 75.229C341.131 75.832 340.535 76.1558 339.652 76.1558C338.491 76.1558 337.735 75.2988 337.678 73.9468V73.896H342.598V73.4771C342.598 71.3506 341.474 70.0366 339.627 70.0366C337.748 70.0366 336.542 71.4331 336.542 73.585C336.542 75.7495 337.729 77.1206 339.627 77.1206C341.125 77.1206 342.191 76.397 342.509 75.229H341.417ZM346.844 77.1206C347.79 77.1206 348.603 76.6699 349.034 75.9082H349.136V77H350.177V67.4404H349.085V71.2363H348.99C348.603 70.4873 347.796 70.0366 346.844 70.0366C345.105 70.0366 343.969 71.4331 343.969 73.5786C343.969 75.7305 345.092 77.1206 346.844 77.1206ZM347.098 71.0205C348.336 71.0205 349.11 72.0107 349.11 73.5786C349.11 75.1592 348.342 76.1367 347.098 76.1367C345.848 76.1367 345.099 75.1782 345.099 73.5786C345.099 71.9854 345.854 71.0205 347.098 71.0205ZM355.915 78.9487L359.216 67.4404H358.289L354.988 78.9487H355.915ZM367.626 77V68.8687H370.578V67.8403H363.532V68.8687H366.484V77H367.626ZM373.746 77.1206C375.694 77.1206 376.9 75.7749 376.9 73.5786C376.9 71.376 375.694 70.0366 373.746 70.0366C371.797 70.0366 370.591 71.376 370.591 73.5786C370.591 75.7749 371.797 77.1206 373.746 77.1206ZM373.746 76.1367C372.451 76.1367 371.721 75.1973 371.721 73.5786C371.721 71.9536 372.451 71.0205 373.746 71.0205C375.041 71.0205 375.771 71.9536 375.771 73.5786C375.771 75.1973 375.041 76.1367 373.746 76.1367ZM379.071 68.3862V70.1572H377.967V71.0713H379.071V75.2227C379.071 76.5303 379.636 77.0508 381.045 77.0508C381.261 77.0508 381.471 77.0254 381.687 76.9873V76.0669C381.483 76.0859 381.375 76.0923 381.179 76.0923C380.468 76.0923 380.163 75.7495 380.163 74.9434V71.0713H381.687V70.1572H380.163V68.3862H379.071ZM385.444 76.1621C384.651 76.1621 384.061 75.7559 384.061 75.0576C384.061 74.3721 384.518 74.0103 385.559 73.9404L387.399 73.8198V74.4482C387.399 75.4258 386.568 76.1621 385.444 76.1621ZM385.241 77.1206C386.155 77.1206 386.904 76.7207 387.349 75.9907H387.45V77H388.491V72.3154C388.491 70.8936 387.558 70.0366 385.889 70.0366C384.429 70.0366 383.35 70.7603 383.204 71.8584H384.308C384.46 71.3188 385.032 71.0078 385.851 71.0078C386.873 71.0078 387.399 71.4712 387.399 72.3154V72.9375L385.425 73.0581C383.832 73.1533 382.931 73.8579 382.931 75.083C382.931 76.3335 383.915 77.1206 385.241 77.1206ZM390.573 77H391.665V67.4404H390.573V77Z" fill="#415377"/>
  <path d="M31.3125 65.625H21.6875C20.9492 65.625 20.375 66.2266 20.375 66.9375V76.5625C20.375 77.3008 20.9492 77.875 21.6875 77.875H31.3125C32.0234 77.875 32.625 77.3008 32.625 76.5625V66.9375C32.625 66.2266 32.0234 65.625 31.3125 65.625ZM31.1484 76.5625H21.8516C21.7422 76.5625 21.6875 76.5078 21.6875 76.3984V67.1016C21.6875 67.0195 21.7422 66.9375 21.8516 66.9375H31.1484C31.2305 66.9375 31.3125 67.0195 31.3125 67.1016V76.3984C31.3125 76.5078 31.2305 76.5625 31.1484 76.5625Z" fill="#67789D"/>
  <path d="M469.168 67.8403V77H472.31C475.033 77 476.633 75.3052 476.633 72.417C476.633 69.5352 475.027 67.8403 472.31 67.8403H469.168ZM470.311 68.8687H472.234C474.265 68.8687 475.465 70.189 475.465 72.4297C475.465 74.6641 474.278 75.9717 472.234 75.9717H470.311V68.8687ZM478.499 77H479.591V70.1572H478.499V77ZM479.045 68.8369C479.464 68.8369 479.807 68.4941 479.807 68.0752C479.807 67.6562 479.464 67.3135 479.045 67.3135C478.626 67.3135 478.283 67.6562 478.283 68.0752C478.283 68.4941 478.626 68.8369 479.045 68.8369ZM481.514 72.0298C481.514 73.02 482.098 73.5723 483.38 73.8833L484.555 74.1689C485.285 74.3467 485.64 74.6641 485.64 75.1338C485.64 75.7622 484.98 76.2002 484.06 76.2002C483.184 76.2002 482.638 75.832 482.454 75.2544H481.33C481.451 76.3906 482.498 77.1206 484.021 77.1206C485.577 77.1206 486.764 76.2764 486.764 75.0513C486.764 74.0674 486.142 73.5088 484.853 73.1978L483.799 72.9438C482.993 72.7471 482.612 72.4551 482.612 71.9854C482.612 71.376 483.247 70.9634 484.06 70.9634C484.885 70.9634 485.418 71.3252 485.564 71.8711H486.643C486.497 70.7476 485.5 70.0366 484.066 70.0366C482.612 70.0366 481.514 70.8936 481.514 72.0298ZM489.734 73.147H489.633V67.4404H488.541V77H489.633V74.4038L490.287 73.7944L492.851 77H494.241L491.099 73.0898L494.044 70.1572H492.705L489.734 73.147ZM504.74 70.1572H503.648V74.207C503.648 75.4067 502.988 76.124 501.782 76.124C500.69 76.124 500.233 75.5527 500.233 74.3213V70.1572H499.142V74.5879C499.142 76.2065 499.941 77.1206 501.478 77.1206C502.525 77.1206 503.255 76.689 503.598 75.9272H503.699V77H504.74V70.1572ZM506.638 72.0298C506.638 73.02 507.222 73.5723 508.504 73.8833L509.679 74.1689C510.409 74.3467 510.764 74.6641 510.764 75.1338C510.764 75.7622 510.104 76.2002 509.184 76.2002C508.308 76.2002 507.762 75.832 507.578 75.2544H506.454C506.575 76.3906 507.622 77.1206 509.146 77.1206C510.701 77.1206 511.888 76.2764 511.888 75.0513C511.888 74.0674 511.266 73.5088 509.977 73.1978L508.923 72.9438C508.117 72.7471 507.736 72.4551 507.736 71.9854C507.736 71.376 508.371 70.9634 509.184 70.9634C510.009 70.9634 510.542 71.3252 510.688 71.8711H511.767C511.621 70.7476 510.625 70.0366 509.19 70.0366C507.736 70.0366 506.638 70.8936 506.638 72.0298ZM515.709 76.1621C514.916 76.1621 514.325 75.7559 514.325 75.0576C514.325 74.3721 514.782 74.0103 515.823 73.9404L517.664 73.8198V74.4482C517.664 75.4258 516.833 76.1621 515.709 76.1621ZM515.506 77.1206C516.42 77.1206 517.169 76.7207 517.613 75.9907H517.715V77H518.756V72.3154C518.756 70.8936 517.823 70.0366 516.153 70.0366C514.693 70.0366 513.614 70.7603 513.468 71.8584H514.573C514.725 71.3188 515.296 71.0078 516.115 71.0078C517.137 71.0078 517.664 71.4712 517.664 72.3154V72.9375L515.69 73.0581C514.097 73.1533 513.195 73.8579 513.195 75.083C513.195 76.3335 514.179 77.1206 515.506 77.1206ZM523.542 75.9336C522.272 75.9336 521.562 74.9688 521.562 73.4771C521.562 71.9854 522.272 71.0205 523.542 71.0205C524.805 71.0205 525.573 71.9854 525.573 73.4771C525.573 74.9688 524.812 75.9336 523.542 75.9336ZM523.593 79.6279C525.459 79.6279 526.64 78.6504 526.64 77.1206V70.1572H525.599V71.2427H525.497C525.104 70.5063 524.259 70.0366 523.301 70.0366C521.542 70.0366 520.432 71.4268 520.432 73.4771C520.432 75.5273 521.53 76.8984 523.301 76.8984C524.24 76.8984 525.015 76.4731 525.446 75.7178H525.548V77.0635C525.548 78.0728 524.818 78.6758 523.593 78.6758C522.609 78.6758 522 78.314 521.879 77.7554H520.724C520.889 78.8853 521.942 79.6279 523.593 79.6279ZM531.426 71.0015C532.511 71.0015 533.235 71.8013 533.26 73.0137H529.49C529.572 71.8013 530.334 71.0015 531.426 71.0015ZM533.229 75.229C532.943 75.832 532.346 76.1558 531.464 76.1558C530.302 76.1558 529.547 75.2988 529.49 73.9468V73.896H534.409V73.4771C534.409 71.3506 533.286 70.0366 531.438 70.0366C529.56 70.0366 528.354 71.4331 528.354 73.585C528.354 75.7495 529.541 77.1206 531.438 77.1206C532.937 77.1206 534.003 76.397 534.32 75.229H533.229ZM540.3 73.1914C540.3 75.4829 540.884 77.3364 542.103 78.9487H543.029C542.122 77.7935 541.423 75.3496 541.423 73.1914C541.423 71.0459 542.128 68.5957 543.029 67.4404H542.103C540.884 69.0527 540.3 70.9062 540.3 73.1914ZM544.705 78.9487L548.006 67.4404H547.079L543.778 78.9487H544.705ZM551.484 73.1978C551.484 70.9062 550.9 69.0527 549.682 67.4404H548.755C549.663 68.5957 550.361 71.0396 550.361 73.1978C550.361 75.3433 549.656 77.7935 548.755 78.9487H549.682C550.9 77.3364 551.484 75.4829 551.484 73.1978Z" fill="#415377"/>
  <rect y="53" width="1136" height="1" fill="#D9DDE7"/>
  <rect y="90" width="1136" height="1" fill="#D9DDE7"/>
  <path d="M60.2051 120.887C60 119.574 58.9062 118.501 57.1152 118.501C55.0508 118.501 53.7383 119.991 53.7383 122.288C53.7383 124.633 55.0576 126.13 57.1221 126.13C58.8926 126.13 59.9932 125.132 60.2051 123.778H59.0156C58.7969 124.612 58.1064 125.07 57.1152 125.07C55.8027 125.07 54.9551 123.99 54.9551 122.288C54.9551 120.62 55.7891 119.561 57.1152 119.561C58.1748 119.561 58.8242 120.155 59.0156 120.887H60.2051ZM64.9697 126.13C67.0684 126.13 68.3672 124.681 68.3672 122.315C68.3672 119.943 67.0684 118.501 64.9697 118.501C62.8711 118.501 61.5723 119.943 61.5723 122.315C61.5723 124.681 62.8711 126.13 64.9697 126.13ZM64.9697 125.07C63.5752 125.07 62.7891 124.059 62.7891 122.315C62.7891 120.565 63.5752 119.561 64.9697 119.561C66.3643 119.561 67.1504 120.565 67.1504 122.315C67.1504 124.059 66.3643 125.07 64.9697 125.07ZM70.2129 126H71.3887V121.639C71.3887 120.347 72.1475 119.561 73.3232 119.561C74.499 119.561 75.0596 120.189 75.0596 121.516V126H76.2354V121.229C76.2354 119.479 75.3125 118.501 73.6582 118.501C72.5303 118.501 71.8125 118.979 71.4434 119.793H71.334V118.631H70.2129V126ZM78.3887 126H79.5645V121.639C79.5645 120.347 80.3232 119.561 81.499 119.561C82.6748 119.561 83.2354 120.189 83.2354 121.516V126H84.4111V121.229C84.4111 119.479 83.4883 118.501 81.834 118.501C80.7061 118.501 79.9883 118.979 79.6191 119.793H79.5098V118.631H78.3887V126ZM89.5039 119.54C90.6729 119.54 91.4521 120.401 91.4795 121.707H87.4189C87.5078 120.401 88.3281 119.54 89.5039 119.54ZM91.4453 124.093C91.1377 124.742 90.4951 125.091 89.5449 125.091C88.2939 125.091 87.4805 124.168 87.4189 122.712V122.657H92.7168V122.206C92.7168 119.916 91.5068 118.501 89.5176 118.501C87.4941 118.501 86.1953 120.005 86.1953 122.322C86.1953 124.653 87.4736 126.13 89.5176 126.13C91.1309 126.13 92.2793 125.351 92.6211 124.093H91.4453ZM100.66 120.887C100.455 119.574 99.3613 118.501 97.5703 118.501C95.5059 118.501 94.1934 119.991 94.1934 122.288C94.1934 124.633 95.5127 126.13 97.5771 126.13C99.3477 126.13 100.448 125.132 100.66 123.778H99.4707C99.252 124.612 98.5615 125.07 97.5703 125.07C96.2578 125.07 95.4102 123.99 95.4102 122.288C95.4102 120.62 96.2441 119.561 97.5703 119.561C98.6299 119.561 99.2793 120.155 99.4707 120.887H100.66ZM103.025 116.724V118.631H101.836V119.615H103.025V124.086C103.025 125.494 103.634 126.055 105.151 126.055C105.384 126.055 105.609 126.027 105.842 125.986V124.995C105.623 125.016 105.507 125.022 105.295 125.022C104.529 125.022 104.201 124.653 104.201 123.785V119.615H105.842V118.631H104.201V116.724H103.025ZM109.971 126H111.201V116.136H109.978L107.353 118.022V119.321L109.861 117.503H109.971V126Z" fill="#336ABC"/>
  <path d="M53 128.529H113.04V129.35H53V128.529Z" fill="#336ABC"/>
  <rect x="472" y="132" width="188" height="4" rx="2" fill="white"/>
  <path d="M273.605 122H274.809V119.956H276.21V118.855H274.809V112.136H273.024C271.644 114.193 270.133 116.6 268.8 118.835V119.956H273.605V122ZM270.058 118.78C271.131 116.969 272.423 114.932 273.53 113.277H273.612V118.862H270.058V118.78ZM278.384 124.509L279.457 120.619H278.151L277.502 124.509H278.384ZM281.453 114.918H282.643C282.643 113.749 283.429 112.977 284.611 112.977C285.773 112.977 286.478 113.756 286.478 114.802C286.478 115.67 286.108 116.183 284.851 117.543L281.515 121.152V122H287.899V120.893H283.224V120.783L285.466 118.466C287.243 116.627 287.735 115.807 287.735 114.672C287.735 113.072 286.416 111.903 284.693 111.903C282.807 111.903 281.453 113.161 281.453 114.918ZM293.348 122.232C295.439 122.232 296.902 121.05 296.902 119.361C296.902 118.076 296.089 117.078 294.852 116.846V116.736C295.87 116.456 296.499 115.615 296.499 114.535C296.499 112.997 295.193 111.903 293.348 111.903C291.502 111.903 290.196 112.997 290.196 114.535C290.196 115.608 290.839 116.463 291.844 116.736V116.846C290.606 117.078 289.793 118.076 289.793 119.361C289.793 121.05 291.256 122.232 293.348 122.232ZM293.348 121.18C291.98 121.18 291.037 120.4 291.037 119.272C291.037 118.145 291.98 117.365 293.348 117.365C294.715 117.365 295.658 118.145 295.658 119.272C295.658 120.4 294.715 121.18 293.348 121.18ZM293.348 116.326C292.186 116.326 291.406 115.656 291.406 114.651C291.406 113.633 292.179 112.956 293.348 112.956C294.517 112.956 295.289 113.633 295.289 114.651C295.289 115.656 294.51 116.326 293.348 116.326ZM311.306 118.186V116.982H307.307V118.062H310.082V118.302C310.082 119.97 308.886 121.098 307.122 121.098C305.14 121.098 303.909 119.553 303.909 117.064C303.909 114.61 305.16 113.038 307.115 113.038C308.578 113.038 309.569 113.742 309.993 115.075H311.244C310.889 113.12 309.303 111.903 307.115 111.903C304.415 111.903 302.645 113.947 302.645 117.064C302.645 120.223 304.388 122.232 307.115 122.232C309.638 122.232 311.306 120.619 311.306 118.186ZM317.335 122C319.434 122 320.678 120.968 320.678 119.231C320.678 117.926 319.823 117.003 318.477 116.832V116.723C319.427 116.552 320.179 115.622 320.179 114.597C320.179 113.086 319.071 112.136 317.26 112.136H313.486V122H317.335ZM314.717 113.223H317C318.224 113.223 318.935 113.804 318.935 114.809C318.935 115.854 318.176 116.388 316.686 116.388H314.717V113.223ZM314.717 120.913V117.447H317.034C318.606 117.447 319.413 118.028 319.413 119.17C319.413 120.312 318.634 120.913 317.15 120.913H314.717ZM326.434 124.099L329.988 111.705H328.99L325.436 124.099H326.434Z" fill="#E05729"/>
  <path d="M337.453 122H338.684V112.136H337.46L334.835 114.022V115.321L337.344 113.503H337.453V122ZM343.988 122H345.219V112.136H343.995L341.37 114.022V115.321L343.879 113.503H343.988V122ZM348.575 124.509L349.648 120.619H348.343L347.693 124.509H348.575ZM352.39 122H353.682L358.07 113.277V112.136H351.542V113.236H356.819V113.332L352.39 122ZM361.83 117.454H363.054C364.441 117.454 365.296 118.165 365.296 119.307C365.296 120.414 364.373 121.159 363.074 121.159C361.803 121.159 360.914 120.496 360.805 119.457H359.615C359.704 121.132 361.085 122.232 363.088 122.232C365.05 122.232 366.561 120.995 366.561 119.341C366.561 117.967 365.713 117.099 364.435 116.894V116.784C365.446 116.49 366.185 115.704 366.191 114.515C366.198 113.134 365.077 111.903 363.129 111.903C361.133 111.903 359.909 113.086 359.786 114.692H360.982C361.085 113.585 361.857 112.977 363.047 112.977C364.236 112.977 364.94 113.729 364.94 114.651C364.94 115.677 364.134 116.401 362.999 116.401H361.83V117.454ZM380.923 118.186V116.982H376.924V118.062H379.699V118.302C379.699 119.97 378.503 121.098 376.739 121.098C374.757 121.098 373.526 119.553 373.526 117.064C373.526 114.61 374.777 113.038 376.732 113.038C378.195 113.038 379.187 113.742 379.61 115.075H380.861C380.506 113.12 378.92 111.903 376.732 111.903C374.032 111.903 372.262 113.947 372.262 117.064C372.262 120.223 374.005 122.232 376.732 122.232C379.255 122.232 380.923 120.619 380.923 118.186ZM386.952 122C389.051 122 390.295 120.968 390.295 119.231C390.295 117.926 389.44 117.003 388.094 116.832V116.723C389.044 116.552 389.796 115.622 389.796 114.597C389.796 113.086 388.688 112.136 386.877 112.136H383.104V122H386.952ZM384.334 113.223H386.617C387.841 113.223 388.552 113.804 388.552 114.809C388.552 115.854 387.793 116.388 386.303 116.388H384.334V113.223ZM384.334 120.913V117.447H386.651C388.224 117.447 389.03 118.028 389.03 119.17C389.03 120.312 388.251 120.913 386.768 120.913H384.334Z" fill="#67789D"/>
  <rect x="268" y="132" width="160" height="4" rx="2" fill="#F5C9BB"/>
  <rect x="268" y="132" width="58.3802" height="4" rx="2" fill="#E77C58"/>
  <path d="M473.605 122H474.809V119.956H476.21V118.855H474.809V112.136H473.024C471.644 114.193 470.133 116.6 468.8 118.835V119.956H473.605V122ZM470.058 118.78C471.131 116.969 472.423 114.932 473.53 113.277H473.612V118.862H470.058V118.78ZM480.182 117.454H481.405C482.793 117.454 483.647 118.165 483.647 119.307C483.647 120.414 482.725 121.159 481.426 121.159C480.154 121.159 479.266 120.496 479.156 119.457H477.967C478.056 121.132 479.437 122.232 481.439 122.232C483.401 122.232 484.912 120.995 484.912 119.341C484.912 117.967 484.064 117.099 482.786 116.894V116.784C483.798 116.49 484.536 115.704 484.543 114.515C484.55 113.134 483.429 111.903 481.48 111.903C479.484 111.903 478.261 113.086 478.138 114.692H479.334C479.437 113.585 480.209 112.977 481.398 112.977C482.588 112.977 483.292 113.729 483.292 114.651C483.292 115.677 482.485 116.401 481.351 116.401H480.182V117.454ZM488.371 116.6C489.704 116.6 490.511 115.731 490.511 114.275C490.511 112.84 489.697 111.958 488.371 111.958C487.045 111.958 486.225 112.84 486.225 114.275C486.225 115.725 487.031 116.6 488.371 116.6ZM488.371 115.704C487.681 115.704 487.284 115.185 487.284 114.282C487.284 113.387 487.681 112.86 488.371 112.86C489.055 112.86 489.451 113.387 489.451 114.282C489.451 115.178 489.062 115.704 488.371 115.704ZM488.815 122L495.631 112.136H494.517L487.701 122H488.815ZM494.968 122.096C496.301 122.096 497.107 121.228 497.107 119.771C497.107 118.336 496.294 117.454 494.968 117.454C493.642 117.454 492.821 118.336 492.821 119.771C492.821 121.221 493.635 122.096 494.968 122.096ZM494.968 121.2C494.277 121.2 493.888 120.681 493.888 119.778C493.888 118.883 494.277 118.356 494.968 118.356C495.658 118.356 496.048 118.883 496.048 119.778C496.048 120.674 495.658 121.2 494.968 121.2Z" fill="#336ABC"/>
  <rect x="468" y="132" width="188" height="4" rx="2" fill="#BECFEA"/>
  <rect x="468" y="132" width="55" height="4" rx="2" fill="#608BCB"/>
  <path d="M31.3125 115.625H21.6875C20.9492 115.625 20.375 116.227 20.375 116.938V126.562C20.375 127.301 20.9492 127.875 21.6875 127.875H31.3125C32.0234 127.875 32.625 127.301 32.625 126.562V116.938C32.625 116.227 32.0234 115.625 31.3125 115.625ZM31.1484 126.562H21.8516C21.7422 126.562 21.6875 126.508 21.6875 126.398V117.102C21.6875 117.02 21.7422 116.938 21.8516 116.938H31.1484C31.2305 116.938 31.3125 117.02 31.3125 117.102V126.398C31.3125 126.508 31.2305 126.562 31.1484 126.562Z" fill="#67789D"/>
  <rect y="152" width="1136" height="1" fill="#D9DDE7"/>
  <path d="M60.2051 182.887C60 181.574 58.9062 180.501 57.1152 180.501C55.0508 180.501 53.7383 181.991 53.7383 184.288C53.7383 186.633 55.0576 188.13 57.1221 188.13C58.8926 188.13 59.9932 187.132 60.2051 185.778H59.0156C58.7969 186.612 58.1064 187.07 57.1152 187.07C55.8027 187.07 54.9551 185.99 54.9551 184.288C54.9551 182.62 55.7891 181.561 57.1152 181.561C58.1748 181.561 58.8242 182.155 59.0156 182.887H60.2051ZM64.9697 188.13C67.0684 188.13 68.3672 186.681 68.3672 184.315C68.3672 181.943 67.0684 180.501 64.9697 180.501C62.8711 180.501 61.5723 181.943 61.5723 184.315C61.5723 186.681 62.8711 188.13 64.9697 188.13ZM64.9697 187.07C63.5752 187.07 62.7891 186.059 62.7891 184.315C62.7891 182.565 63.5752 181.561 64.9697 181.561C66.3643 181.561 67.1504 182.565 67.1504 184.315C67.1504 186.059 66.3643 187.07 64.9697 187.07ZM70.2129 188H71.3887V183.639C71.3887 182.347 72.1475 181.561 73.3232 181.561C74.499 181.561 75.0596 182.189 75.0596 183.516V188H76.2354V183.229C76.2354 181.479 75.3125 180.501 73.6582 180.501C72.5303 180.501 71.8125 180.979 71.4434 181.793H71.334V180.631H70.2129V188ZM78.3887 188H79.5645V183.639C79.5645 182.347 80.3232 181.561 81.499 181.561C82.6748 181.561 83.2354 182.189 83.2354 183.516V188H84.4111V183.229C84.4111 181.479 83.4883 180.501 81.834 180.501C80.7061 180.501 79.9883 180.979 79.6191 181.793H79.5098V180.631H78.3887V188ZM91.4453 186.093C91.1377 186.742 90.4951 187.091 89.5449 187.091C88.2939 187.091 87.4805 186.168 87.4189 184.712V184.657H92.7168V184.206C92.7168 181.916 91.5068 180.501 89.5176 180.501C87.4941 180.501 86.1953 182.005 86.1953 184.322C86.1953 186.653 87.4736 188.13 89.5176 188.13C91.1309 188.13 92.2793 187.351 92.6211 186.093H91.4453ZM89.5039 181.54C90.6729 181.54 91.4521 182.401 91.4795 183.707H87.4189C87.5078 182.401 88.3281 181.54 89.5039 181.54ZM100.66 182.887C100.455 181.574 99.3613 180.501 97.5703 180.501C95.5059 180.501 94.1934 181.991 94.1934 184.288C94.1934 186.633 95.5127 188.13 97.5771 188.13C99.3477 188.13 100.448 187.132 100.66 185.778H99.4707C99.252 186.612 98.5615 187.07 97.5703 187.07C96.2578 187.07 95.4102 185.99 95.4102 184.288C95.4102 182.62 96.2441 181.561 97.5703 181.561C98.6299 181.561 99.2793 182.155 99.4707 182.887H100.66ZM103.025 178.724V180.631H101.836V181.615H103.025V186.086C103.025 187.494 103.634 188.055 105.151 188.055C105.384 188.055 105.609 188.027 105.842 187.986V186.995C105.623 187.016 105.507 187.022 105.295 187.022C104.529 187.022 104.201 186.653 104.201 185.785V181.615H105.842V180.631H104.201V178.724H103.025ZM107.551 180.918H108.74C108.74 179.749 109.526 178.977 110.709 178.977C111.871 178.977 112.575 179.756 112.575 180.802C112.575 181.67 112.206 182.183 110.948 183.543L107.612 187.152V188H113.997V186.893H109.321V186.783L111.563 184.466C113.341 182.627 113.833 181.807 113.833 180.672C113.833 179.072 112.514 177.903 110.791 177.903C108.904 177.903 107.551 179.161 107.551 180.918Z" fill="#336ABC"/>
  <path d="M53 190.529H114.968V191.35H53V190.529Z" fill="#336ABC"/>
  <rect x="472" y="194" width="188" height="4" rx="2" fill="white"/>
  <rect x="472" y="194" width="19" height="4" rx="2" fill="#BBE2D3"/>
  <path d="M273.605 184H274.809V181.956H276.21V180.855H274.809V174.136H273.024C271.644 176.193 270.133 178.6 268.8 180.835V181.956H273.605V184ZM270.058 180.78C271.131 178.969 272.423 176.932 273.53 175.277H273.612V180.862H270.058V180.78ZM278.384 186.509L279.457 182.619H278.151L277.502 186.509H278.384ZM283.449 179.454H284.673C286.061 179.454 286.915 180.165 286.915 181.307C286.915 182.414 285.992 183.159 284.693 183.159C283.422 183.159 282.533 182.496 282.424 181.457H281.234C281.323 183.132 282.704 184.232 284.707 184.232C286.669 184.232 288.18 182.995 288.18 181.341C288.18 179.967 287.332 179.099 286.054 178.894V178.784C287.065 178.49 287.804 177.704 287.811 176.515C287.817 175.134 286.696 173.903 284.748 173.903C282.752 173.903 281.528 175.086 281.405 176.692H282.602C282.704 175.585 283.477 174.977 284.666 174.977C285.855 174.977 286.56 175.729 286.56 176.651C286.56 177.677 285.753 178.401 284.618 178.401H283.449V179.454ZM290.094 176.918H291.283C291.283 175.749 292.069 174.977 293.252 174.977C294.414 174.977 295.118 175.756 295.118 176.802C295.118 177.67 294.749 178.183 293.491 179.543L290.155 183.152V184H296.54V182.893H291.864V182.783L294.106 180.466C295.884 178.627 296.376 177.807 296.376 176.672C296.376 175.072 295.057 173.903 293.334 173.903C291.447 173.903 290.094 175.161 290.094 176.918ZM311.005 180.186V178.982H307.006V180.062H309.781V180.302C309.781 181.97 308.585 183.098 306.821 183.098C304.839 183.098 303.608 181.553 303.608 179.064C303.608 176.61 304.859 175.038 306.814 175.038C308.277 175.038 309.269 175.742 309.692 177.075H310.943C310.588 175.12 309.002 173.903 306.814 173.903C304.114 173.903 302.344 175.947 302.344 179.064C302.344 182.223 304.087 184.232 306.814 184.232C309.337 184.232 311.005 182.619 311.005 180.186ZM317.034 184C319.133 184 320.377 182.968 320.377 181.231C320.377 179.926 319.522 179.003 318.176 178.832V178.723C319.126 178.552 319.878 177.622 319.878 176.597C319.878 175.086 318.771 174.136 316.959 174.136H313.186V184H317.034ZM314.416 175.223H316.699C317.923 175.223 318.634 175.804 318.634 176.809C318.634 177.854 317.875 178.388 316.385 178.388H314.416V175.223ZM314.416 182.913V179.447H316.733C318.306 179.447 319.112 180.028 319.112 181.17C319.112 182.312 318.333 182.913 316.85 182.913H314.416ZM326.133 186.099L329.688 173.705H328.689L325.135 186.099H326.133Z" fill="#E05729"/>
  <path d="M337.152 184H338.383V174.136H337.159L334.534 176.022V177.321L337.043 175.503H337.152V184ZM343.688 184H344.918V174.136H343.694L341.069 176.022V177.321L343.578 175.503H343.688V184ZM348.274 186.509L349.348 182.619H348.042L347.393 186.509H348.274ZM352.089 184H353.381L357.77 175.277V174.136H351.241V175.236H356.519V175.332L352.089 184ZM361.529 179.454H362.753C364.141 179.454 364.995 180.165 364.995 181.307C364.995 182.414 364.072 183.159 362.773 183.159C361.502 183.159 360.613 182.496 360.504 181.457H359.314C359.403 183.132 360.784 184.232 362.787 184.232C364.749 184.232 366.26 182.995 366.26 181.341C366.26 179.967 365.412 179.099 364.134 178.894V178.784C365.146 178.49 365.884 177.704 365.891 176.515C365.897 175.134 364.776 173.903 362.828 173.903C360.832 173.903 359.608 175.086 359.485 176.692H360.682C360.784 175.585 361.557 174.977 362.746 174.977C363.936 174.977 364.64 175.729 364.64 176.651C364.64 177.677 363.833 178.401 362.698 178.401H361.529V179.454ZM380.622 180.186V178.982H376.623V180.062H379.398V180.302C379.398 181.97 378.202 183.098 376.438 183.098C374.456 183.098 373.226 181.553 373.226 179.064C373.226 176.61 374.477 175.038 376.432 175.038C377.895 175.038 378.886 175.742 379.31 177.075H380.561C380.205 175.12 378.619 173.903 376.432 173.903C373.731 173.903 371.961 175.947 371.961 179.064C371.961 182.223 373.704 184.232 376.432 184.232C378.954 184.232 380.622 182.619 380.622 180.186ZM386.651 184C388.75 184 389.994 182.968 389.994 181.231C389.994 179.926 389.14 179.003 387.793 178.832V178.723C388.743 178.552 389.495 177.622 389.495 176.597C389.495 175.086 388.388 174.136 386.576 174.136H382.803V184H386.651ZM384.033 175.223H386.316C387.54 175.223 388.251 175.804 388.251 176.809C388.251 177.854 387.492 178.388 386.002 178.388H384.033V175.223ZM384.033 182.913V179.447H386.351C387.923 179.447 388.729 180.028 388.729 181.17C388.729 182.312 387.95 182.913 386.467 182.913H384.033Z" fill="#67789D"/>
  <rect x="268" y="194" width="160" height="4" rx="2" fill="#F5C9BB"/>
  <rect x="268" y="194" width="58.9258" height="4" rx="2" fill="#E77C58"/>
  <path d="M473.605 184H474.809V181.956H476.21V180.855H474.809V174.136H473.024C471.644 176.193 470.133 178.6 468.8 180.835V181.956H473.605V184ZM470.058 180.78C471.131 178.969 472.423 176.932 473.53 175.277H473.612V180.862H470.058V180.78ZM480.182 179.454H481.405C482.793 179.454 483.647 180.165 483.647 181.307C483.647 182.414 482.725 183.159 481.426 183.159C480.154 183.159 479.266 182.496 479.156 181.457H477.967C478.056 183.132 479.437 184.232 481.439 184.232C483.401 184.232 484.912 182.995 484.912 181.341C484.912 179.967 484.064 179.099 482.786 178.894V178.784C483.798 178.49 484.536 177.704 484.543 176.515C484.55 175.134 483.429 173.903 481.48 173.903C479.484 173.903 478.261 175.086 478.138 176.692H479.334C479.437 175.585 480.209 174.977 481.398 174.977C482.588 174.977 483.292 175.729 483.292 176.651C483.292 177.677 482.485 178.401 481.351 178.401H480.182V179.454ZM488.371 178.6C489.704 178.6 490.511 177.731 490.511 176.275C490.511 174.84 489.697 173.958 488.371 173.958C487.045 173.958 486.225 174.84 486.225 176.275C486.225 177.725 487.031 178.6 488.371 178.6ZM488.371 177.704C487.681 177.704 487.284 177.185 487.284 176.282C487.284 175.387 487.681 174.86 488.371 174.86C489.055 174.86 489.451 175.387 489.451 176.282C489.451 177.178 489.062 177.704 488.371 177.704ZM488.815 184L495.631 174.136H494.517L487.701 184H488.815ZM494.968 184.096C496.301 184.096 497.107 183.228 497.107 181.771C497.107 180.336 496.294 179.454 494.968 179.454C493.642 179.454 492.821 180.336 492.821 181.771C492.821 183.221 493.635 184.096 494.968 184.096ZM494.968 183.2C494.277 183.2 493.888 182.681 493.888 181.778C493.888 180.883 494.277 180.356 494.968 180.356C495.658 180.356 496.048 180.883 496.048 181.778C496.048 182.674 495.658 183.2 494.968 183.2Z" fill="#336ABC"/>
  <rect x="468" y="194" width="188" height="4" rx="2" fill="#BECFEA"/>
  <rect x="468" y="194" width="55" height="4" rx="2" fill="#608BCB"/>
  <path d="M31.3125 177.625H21.6875C20.9492 177.625 20.375 178.227 20.375 178.938V188.562C20.375 189.301 20.9492 189.875 21.6875 189.875H31.3125C32.0234 189.875 32.625 189.301 32.625 188.562V178.938C32.625 178.227 32.0234 177.625 31.3125 177.625ZM31.1484 188.562H21.8516C21.7422 188.562 21.6875 188.508 21.6875 188.398V179.102C21.6875 179.02 21.7422 178.938 21.8516 178.938H31.1484C31.2305 178.938 31.3125 179.02 31.3125 179.102V188.398C31.3125 188.508 31.2305 188.562 31.1484 188.562Z" fill="#67789D"/>
  <rect y="214" width="1136" height="1" fill="#D9DDE7"/>
  <path d="M60.2051 244.887C60 243.574 58.9062 242.501 57.1152 242.501C55.0508 242.501 53.7383 243.991 53.7383 246.288C53.7383 248.633 55.0576 250.13 57.1221 250.13C58.8926 250.13 59.9932 249.132 60.2051 247.778H59.0156C58.7969 248.612 58.1064 249.07 57.1152 249.07C55.8027 249.07 54.9551 247.99 54.9551 246.288C54.9551 244.62 55.7891 243.561 57.1152 243.561C58.1748 243.561 58.8242 244.155 59.0156 244.887H60.2051ZM61.7705 244.647C61.7705 245.714 62.3994 246.309 63.7803 246.644L65.0449 246.951C65.8311 247.143 66.2139 247.484 66.2139 247.99C66.2139 248.667 65.5029 249.139 64.5117 249.139C63.5684 249.139 62.9805 248.742 62.7822 248.12H61.5723C61.7021 249.344 62.8301 250.13 64.4707 250.13C66.1455 250.13 67.4238 249.221 67.4238 247.901C67.4238 246.842 66.7539 246.24 65.3662 245.905L64.2314 245.632C63.3633 245.42 62.9531 245.105 62.9531 244.6C62.9531 243.943 63.6367 243.499 64.5117 243.499C65.4004 243.499 65.9746 243.889 66.1318 244.477H67.2939C67.1367 243.267 66.0635 242.501 64.5186 242.501C62.9531 242.501 61.7705 243.424 61.7705 244.647ZM73.7061 246.589V245.475H69.2217V246.589H73.7061ZM78.9082 252.83C80.918 252.83 82.1895 251.777 82.1895 250.13V242.631H81.0684V243.8H80.959C80.5352 243.007 79.626 242.501 78.5938 242.501C76.7002 242.501 75.5039 243.998 75.5039 246.206C75.5039 248.414 76.6865 249.891 78.5938 249.891C79.6055 249.891 80.4395 249.433 80.9043 248.619H81.0137V250.068C81.0137 251.155 80.2275 251.805 78.9082 251.805C77.8486 251.805 77.1924 251.415 77.0625 250.813H75.8184C75.9961 252.03 77.1309 252.83 78.9082 252.83ZM78.8535 248.852C77.4863 248.852 76.7207 247.812 76.7207 246.206C76.7207 244.6 77.4863 243.561 78.8535 243.561C80.2139 243.561 81.041 244.6 81.041 246.206C81.041 247.812 80.2207 248.852 78.8535 248.852ZM84.4043 250H85.5801V245.434C85.5801 244.395 86.3936 243.643 87.5146 243.643C87.7471 243.643 88.1709 243.684 88.2666 243.711V242.535C88.1162 242.515 87.8701 242.501 87.6787 242.501C86.7012 242.501 85.8535 243.007 85.6348 243.725H85.5254V242.631H84.4043V250ZM91.7871 250.13C92.7715 250.13 93.5781 249.699 94.0566 248.913H94.166V250H95.2871V244.955C95.2871 243.424 94.2822 242.501 92.4844 242.501C90.9121 242.501 89.75 243.28 89.5928 244.463H90.7822C90.9463 243.882 91.5615 243.547 92.4434 243.547C93.5439 243.547 94.1113 244.046 94.1113 244.955V245.625L91.9854 245.755C90.2695 245.857 89.2988 246.616 89.2988 247.936C89.2988 249.282 90.3584 250.13 91.7871 250.13ZM92.0059 249.098C91.1514 249.098 90.5156 248.66 90.5156 247.908C90.5156 247.17 91.0078 246.78 92.1289 246.705L94.1113 246.575V247.252C94.1113 248.305 93.2158 249.098 92.0059 249.098ZM101.05 242.501C100.045 242.501 99.1631 243.014 98.6914 243.861H98.582V242.631H97.4609V252.461H98.6367V248.893H98.7461C99.1494 249.672 99.9971 250.13 101.05 250.13C102.923 250.13 104.146 248.619 104.146 246.315C104.146 243.998 102.93 242.501 101.05 242.501ZM100.77 249.07C99.4434 249.07 98.6025 248.004 98.6025 246.315C98.6025 244.62 99.4434 243.561 100.776 243.561C102.123 243.561 102.93 244.593 102.93 246.315C102.93 248.038 102.123 249.07 100.77 249.07ZM106.061 250H107.236V245.639C107.236 244.395 107.961 243.561 109.28 243.561C110.395 243.561 110.982 244.21 110.982 245.516V250H112.158V245.229C112.158 243.499 111.174 242.501 109.615 242.501C108.487 242.501 107.715 242.979 107.346 243.793H107.236V239.705H106.061V250ZM114.134 244.647C114.134 245.714 114.763 246.309 116.144 246.644L117.408 246.951C118.194 247.143 118.577 247.484 118.577 247.99C118.577 248.667 117.866 249.139 116.875 249.139C115.932 249.139 115.344 248.742 115.146 248.12H113.936C114.065 249.344 115.193 250.13 116.834 250.13C118.509 250.13 119.787 249.221 119.787 247.901C119.787 246.842 119.117 246.24 117.729 245.905L116.595 245.632C115.727 245.42 115.316 245.105 115.316 244.6C115.316 243.943 116 243.499 116.875 243.499C117.764 243.499 118.338 243.889 118.495 244.477H119.657C119.5 243.267 118.427 242.501 116.882 242.501C115.316 242.501 114.134 243.424 114.134 244.647ZM123.779 250H125.01V240.136H123.786L121.161 242.022V243.321L123.67 241.503H123.779V250ZM132.399 246.589V245.475H127.915V246.589H132.399ZM134.566 250H135.742V245.434C135.742 244.395 136.487 243.561 137.451 243.561C138.381 243.561 138.989 244.121 138.989 244.996V250H140.165V245.263C140.165 244.326 140.849 243.561 141.874 243.561C142.913 243.561 143.426 244.094 143.426 245.181V250H144.602V244.907C144.602 243.362 143.761 242.501 142.257 242.501C141.238 242.501 140.397 243.014 140.001 243.793H139.892C139.55 243.027 138.853 242.501 137.854 242.501C136.87 242.501 136.132 242.973 135.797 243.793H135.688V242.631H134.566V250ZM149.776 250.13C151.875 250.13 153.174 248.681 153.174 246.315C153.174 243.943 151.875 242.501 149.776 242.501C147.678 242.501 146.379 243.943 146.379 246.315C146.379 248.681 147.678 250.13 149.776 250.13ZM149.776 249.07C148.382 249.07 147.596 248.059 147.596 246.315C147.596 244.565 148.382 243.561 149.776 243.561C151.171 243.561 151.957 244.565 151.957 246.315C151.957 248.059 151.171 249.07 149.776 249.07ZM155.02 250H156.195V245.639C156.195 244.347 156.954 243.561 158.13 243.561C159.306 243.561 159.866 244.189 159.866 245.516V250H161.042V245.229C161.042 243.479 160.119 242.501 158.465 242.501C157.337 242.501 156.619 242.979 156.25 243.793H156.141V242.631H155.02V250ZM166.23 252.83C168.24 252.83 169.512 251.777 169.512 250.13V242.631H168.391V243.8H168.281C167.857 243.007 166.948 242.501 165.916 242.501C164.022 242.501 162.826 243.998 162.826 246.206C162.826 248.414 164.009 249.891 165.916 249.891C166.928 249.891 167.762 249.433 168.227 248.619H168.336V250.068C168.336 251.155 167.55 251.805 166.23 251.805C165.171 251.805 164.515 251.415 164.385 250.813H163.141C163.318 252.03 164.453 252.83 166.23 252.83ZM166.176 248.852C164.809 248.852 164.043 247.812 164.043 246.206C164.043 244.6 164.809 243.561 166.176 243.561C167.536 243.561 168.363 244.6 168.363 246.206C168.363 247.812 167.543 248.852 166.176 248.852ZM174.755 250.13C176.854 250.13 178.152 248.681 178.152 246.315C178.152 243.943 176.854 242.501 174.755 242.501C172.656 242.501 171.357 243.943 171.357 246.315C171.357 248.681 172.656 250.13 174.755 250.13ZM174.755 249.07C173.36 249.07 172.574 248.059 172.574 246.315C172.574 244.565 173.36 243.561 174.755 243.561C176.149 243.561 176.936 244.565 176.936 246.315C176.936 248.059 176.149 249.07 174.755 249.07ZM182.008 250H183.238V240.136H182.015L179.39 242.022V243.321L181.898 241.503H182.008V250Z" fill="#336ABC"/>
  <path d="M53 252.529H185.077V253.35H53V252.529Z" fill="#336ABC"/>
  <rect x="472" y="256" width="188" height="4" rx="2" fill="white"/>
  <rect x="472" y="256" width="19" height="4" rx="2" fill="#BBE2D3"/>
  <path d="M272.471 246.232C274.562 246.232 276.025 245.05 276.025 243.361C276.025 242.076 275.212 241.078 273.975 240.846V240.736C274.993 240.456 275.622 239.615 275.622 238.535C275.622 236.997 274.316 235.903 272.471 235.903C270.625 235.903 269.319 236.997 269.319 238.535C269.319 239.608 269.962 240.463 270.967 240.736V240.846C269.729 241.078 268.916 242.076 268.916 243.361C268.916 245.05 270.379 246.232 272.471 246.232ZM272.471 240.326C271.309 240.326 270.529 239.656 270.529 238.651C270.529 237.633 271.302 236.956 272.471 236.956C273.64 236.956 274.412 237.633 274.412 238.651C274.412 239.656 273.633 240.326 272.471 240.326ZM272.471 245.18C271.104 245.18 270.16 244.4 270.16 243.272C270.16 242.145 271.104 241.365 272.471 241.365C273.838 241.365 274.781 242.145 274.781 243.272C274.781 244.4 273.838 245.18 272.471 245.18ZM278.315 248.509L279.389 244.619H278.083L277.434 248.509H278.315ZM283.381 241.454H284.604C285.992 241.454 286.847 242.165 286.847 243.307C286.847 244.414 285.924 245.159 284.625 245.159C283.354 245.159 282.465 244.496 282.355 243.457H281.166C281.255 245.132 282.636 246.232 284.639 246.232C286.601 246.232 288.111 244.995 288.111 243.341C288.111 241.967 287.264 241.099 285.985 240.894V240.784C286.997 240.49 287.735 239.704 287.742 238.515C287.749 237.134 286.628 235.903 284.68 235.903C282.684 235.903 281.46 237.086 281.337 238.692H282.533C282.636 237.585 283.408 236.977 284.598 236.977C285.787 236.977 286.491 237.729 286.491 238.651C286.491 239.677 285.685 240.401 284.55 240.401H283.381V241.454ZM290.497 246H291.789L296.178 237.277V236.136H289.649V237.236H294.927V237.332L290.497 246ZM310.458 242.186V240.982H306.459V242.062H309.234V242.302C309.234 243.97 308.038 245.098 306.274 245.098C304.292 245.098 303.062 243.553 303.062 241.064C303.062 238.61 304.312 237.038 306.268 237.038C307.73 237.038 308.722 237.742 309.146 239.075H310.396C310.041 237.12 308.455 235.903 306.268 235.903C303.567 235.903 301.797 237.947 301.797 241.064C301.797 244.223 303.54 246.232 306.268 246.232C308.79 246.232 310.458 244.619 310.458 242.186ZM316.487 246C318.586 246 319.83 244.968 319.83 243.231C319.83 241.926 318.976 241.003 317.629 240.832V240.723C318.579 240.552 319.331 239.622 319.331 238.597C319.331 237.086 318.224 236.136 316.412 236.136H312.639V246H316.487ZM313.869 237.223H316.152C317.376 237.223 318.087 237.804 318.087 238.809C318.087 239.854 317.328 240.388 315.838 240.388H313.869V237.223ZM313.869 244.913V241.447H316.187C317.759 241.447 318.565 242.028 318.565 243.17C318.565 244.312 317.786 244.913 316.303 244.913H313.869ZM325.586 248.099L329.141 235.705H328.143L324.588 248.099H325.586Z" fill="#E05729"/>
  <path d="M336.605 246H337.836V236.136H336.612L333.987 238.022V239.321L336.496 237.503H336.605V246ZM344.063 246.232C346.08 246.232 347.454 244.838 347.454 242.808C347.454 240.853 346.087 239.554 344.433 239.554C343.448 239.554 342.717 239.854 342.238 240.449H342.129L342.437 237.236H346.948V236.136H341.473L340.905 241.775H342.061C342.45 241.044 343.188 240.613 344.125 240.613C345.369 240.613 346.224 241.509 346.224 242.842C346.224 244.223 345.369 245.152 344.077 245.152C342.915 245.152 342.067 244.448 341.958 243.396H340.748C340.857 245.084 342.197 246.232 344.063 246.232ZM349.724 248.509L350.797 244.619H349.491L348.842 248.509H349.724ZM356.067 246.226C358.091 246.226 359.526 244.811 359.526 242.828C359.526 240.914 358.166 239.526 356.286 239.526C355.11 239.526 354.146 240.087 353.661 241.044H353.552C353.593 238.364 354.55 236.997 356.19 236.997C357.188 236.997 357.913 237.51 358.118 238.426H359.383C359.13 236.895 357.947 235.903 356.149 235.903C353.818 235.903 352.355 237.845 352.355 241.235C352.355 244.558 353.921 246.226 356.067 246.226ZM356.054 245.146C354.789 245.146 353.825 244.147 353.825 242.828C353.825 241.522 354.762 240.593 356.067 240.593C357.373 240.593 358.282 241.522 358.282 242.869C358.282 244.161 357.318 245.146 356.054 245.146ZM364.995 246.226C367.019 246.226 368.454 244.811 368.454 242.828C368.454 240.914 367.094 239.526 365.214 239.526C364.038 239.526 363.074 240.087 362.589 241.044H362.479C362.521 238.364 363.478 236.997 365.118 236.997C366.116 236.997 366.841 237.51 367.046 238.426H368.311C368.058 236.895 366.875 235.903 365.077 235.903C362.746 235.903 361.283 237.845 361.283 241.235C361.283 244.558 362.849 246.226 364.995 246.226ZM364.981 245.146C363.717 245.146 362.753 244.147 362.753 242.828C362.753 241.522 363.689 240.593 364.995 240.593C366.301 240.593 367.21 241.522 367.21 242.869C367.21 244.161 366.246 245.146 364.981 245.146ZM382.823 242.186V240.982H378.824V242.062H381.6V242.302C381.6 243.97 380.403 245.098 378.64 245.098C376.657 245.098 375.427 243.553 375.427 241.064C375.427 238.61 376.678 237.038 378.633 237.038C380.096 237.038 381.087 237.742 381.511 239.075H382.762C382.406 237.12 380.82 235.903 378.633 235.903C375.933 235.903 374.162 237.947 374.162 241.064C374.162 244.223 375.905 246.232 378.633 246.232C381.155 246.232 382.823 244.619 382.823 242.186ZM388.853 246C390.951 246 392.195 244.968 392.195 243.231C392.195 241.926 391.341 241.003 389.994 240.832V240.723C390.944 240.552 391.696 239.622 391.696 238.597C391.696 237.086 390.589 236.136 388.777 236.136H385.004V246H388.853ZM386.234 237.223H388.518C389.741 237.223 390.452 237.804 390.452 238.809C390.452 239.854 389.693 240.388 388.203 240.388H386.234V237.223ZM386.234 244.913V241.447H388.552C390.124 241.447 390.931 242.028 390.931 243.17C390.931 244.312 390.151 244.913 388.668 244.913H386.234Z" fill="#67789D"/>
  <rect x="268" y="256" width="160" height="4" rx="2" fill="#F5C9BB"/>
  <rect x="268" y="256" width="85.5172" height="4" rx="2" fill="#E77C58"/>
  <path d="M471.172 241.454H472.396C473.783 241.454 474.638 242.165 474.638 243.307C474.638 244.414 473.715 245.159 472.416 245.159C471.145 245.159 470.256 244.496 470.146 243.457H468.957C469.046 245.132 470.427 246.232 472.43 246.232C474.392 246.232 475.902 244.995 475.902 243.341C475.902 241.967 475.055 241.099 473.776 240.894V240.784C474.788 240.49 475.526 239.704 475.533 238.515C475.54 237.134 474.419 235.903 472.471 235.903C470.475 235.903 469.251 237.086 469.128 238.692H470.324C470.427 237.585 471.199 236.977 472.389 236.977C473.578 236.977 474.282 237.729 474.282 238.651C474.282 239.677 473.476 240.401 472.341 240.401H471.172V241.454ZM482.383 246H483.586V243.956H484.987V242.855H483.586V236.136H481.802C480.421 238.193 478.91 240.6 477.577 242.835V243.956H482.383V246ZM478.835 242.78C479.908 240.969 481.2 238.932 482.308 237.277H482.39V242.862H478.835V242.78Z" fill="#336ABC"/>
  <rect x="468" y="256" width="188" height="4" rx="2" fill="#BECFEA"/>
  <rect x="468" y="256" width="55" height="4" rx="2" fill="#608BCB"/>
  <path d="M31.3125 239.625H21.6875C20.9492 239.625 20.375 240.227 20.375 240.938V250.562C20.375 251.301 20.9492 251.875 21.6875 251.875H31.3125C32.0234 251.875 32.625 251.301 32.625 250.562V240.938C32.625 240.227 32.0234 239.625 31.3125 239.625ZM31.1484 250.562H21.8516C21.7422 250.562 21.6875 250.508 21.6875 250.398V241.102C21.6875 241.02 21.7422 240.938 21.8516 240.938H31.1484C31.2305 240.938 31.3125 241.02 31.3125 241.102V250.398C31.3125 250.508 31.2305 250.562 31.1484 250.562Z" fill="#67789D"/>
  <rect y="276" width="1136" height="1" fill="#D9DDE7"/>
  <path d="M54.5996 312H55.7754V305.615H57.4639V304.631H55.7754V303.845C55.7754 303.038 56.1309 302.628 56.9785 302.628C57.1904 302.628 57.3887 302.635 57.5322 302.662V301.705C57.2861 301.657 57.0264 301.637 56.7393 301.637C55.3379 301.637 54.5996 302.341 54.5996 303.811V304.631H53.376V305.615H54.5996V312ZM59.1797 312H60.3555V307.434C60.3555 306.395 61.1689 305.643 62.29 305.643C62.5225 305.643 62.9463 305.684 63.042 305.711V304.535C62.8916 304.515 62.6455 304.501 62.4541 304.501C61.4766 304.501 60.6289 305.007 60.4102 305.725H60.3008V304.631H59.1797V312ZM67.335 312.13C69.4336 312.13 70.7324 310.681 70.7324 308.315C70.7324 305.943 69.4336 304.501 67.335 304.501C65.2363 304.501 63.9375 305.943 63.9375 308.315C63.9375 310.681 65.2363 312.13 67.335 312.13ZM67.335 311.07C65.9404 311.07 65.1543 310.059 65.1543 308.315C65.1543 306.565 65.9404 305.561 67.335 305.561C68.7295 305.561 69.5156 306.565 69.5156 308.315C69.5156 310.059 68.7295 311.07 67.335 311.07ZM72.5781 312H73.7539V307.639C73.7539 306.347 74.5127 305.561 75.6885 305.561C76.8643 305.561 77.4248 306.189 77.4248 307.516V312H78.6006V307.229C78.6006 305.479 77.6777 304.501 76.0234 304.501C74.8955 304.501 74.1777 304.979 73.8086 305.793H73.6992V304.631H72.5781V312ZM81.2461 302.724V304.631H80.0566V305.615H81.2461V310.086C81.2461 311.494 81.8545 312.055 83.3721 312.055C83.6045 312.055 83.8301 312.027 84.0625 311.986V310.995C83.8438 311.016 83.7275 311.022 83.5156 311.022C82.75 311.022 82.4219 310.653 82.4219 309.785V305.615H84.0625V304.631H82.4219V302.724H81.2461ZM90.6113 310.093C90.3037 310.742 89.6611 311.091 88.7109 311.091C87.46 311.091 86.6465 310.168 86.585 308.712V308.657H91.8828V308.206C91.8828 305.916 90.6729 304.501 88.6836 304.501C86.6602 304.501 85.3613 306.005 85.3613 308.322C85.3613 310.653 86.6396 312.13 88.6836 312.13C90.2969 312.13 91.4453 311.351 91.7871 310.093H90.6113ZM88.6699 305.54C89.8389 305.54 90.6182 306.401 90.6455 307.707H86.585C86.6738 306.401 87.4941 305.54 88.6699 305.54ZM93.7285 312H94.9043V307.639C94.9043 306.347 95.6631 305.561 96.8389 305.561C98.0146 305.561 98.5752 306.189 98.5752 307.516V312H99.751V307.229C99.751 305.479 98.8281 304.501 97.1738 304.501C96.0459 304.501 95.3281 304.979 94.959 305.793H94.8496V304.631H93.7285V312ZM104.632 312.13C105.65 312.13 106.525 311.645 106.99 310.824H107.1V312H108.221V301.705H107.045V305.793H106.942C106.525 304.986 105.657 304.501 104.632 304.501C102.759 304.501 101.535 306.005 101.535 308.315C101.535 310.633 102.745 312.13 104.632 312.13ZM104.905 305.561C106.238 305.561 107.072 306.627 107.072 308.315C107.072 310.018 106.245 311.07 104.905 311.07C103.559 311.07 102.752 310.038 102.752 308.315C102.752 306.6 103.565 305.561 104.905 305.561ZM112.855 312H114.086V302.136H112.862L110.237 304.022V305.321L112.746 303.503H112.855V312Z" fill="#336ABC"/>
  <path d="M53 314.529H115.925V315.35H53V314.529Z" fill="#336ABC"/>
  <rect x="472" y="318" width="188" height="4" rx="2" fill="white"/>
  <rect x="472" y="318" width="19" height="4" rx="2" fill="#BBE2D3"/>
  <path d="M272.252 308.226C274.665 308.226 276.046 306.284 276.046 302.894C276.046 299.537 274.46 297.903 272.334 297.903C270.311 297.903 268.875 299.318 268.875 301.301C268.875 303.215 270.235 304.603 272.115 304.603C273.291 304.603 274.255 304.042 274.74 303.085H274.85C274.781 305.71 273.872 307.132 272.266 307.132C271.295 307.132 270.543 306.592 270.283 305.703H269.019C269.326 307.255 270.577 308.226 272.252 308.226ZM272.334 303.536C271.028 303.536 270.119 302.606 270.119 301.26C270.119 299.968 271.083 298.983 272.348 298.983C273.612 298.983 274.576 299.981 274.576 301.301C274.576 302.606 273.64 303.536 272.334 303.536ZM278.233 310.509L279.307 306.619H278.001L277.352 310.509H278.233ZM284.468 308.232C286.484 308.232 287.858 306.838 287.858 304.808C287.858 302.853 286.491 301.554 284.837 301.554C283.853 301.554 283.121 301.854 282.643 302.449H282.533L282.841 299.236H287.353V298.136H281.877L281.31 303.775H282.465C282.854 303.044 283.593 302.613 284.529 302.613C285.773 302.613 286.628 303.509 286.628 304.842C286.628 306.223 285.773 307.152 284.481 307.152C283.319 307.152 282.472 306.448 282.362 305.396H281.152C281.262 307.084 282.602 308.232 284.468 308.232ZM289.793 300.918H290.982C290.982 299.749 291.769 298.977 292.951 298.977C294.113 298.977 294.817 299.756 294.817 300.802C294.817 301.67 294.448 302.183 293.19 303.543L289.854 307.152V308H296.239V306.893H291.563V306.783L293.806 304.466C295.583 302.627 296.075 301.807 296.075 300.672C296.075 299.072 294.756 297.903 293.033 297.903C291.146 297.903 289.793 299.161 289.793 300.918ZM310.704 304.186V302.982H306.705V304.062H309.48V304.302C309.48 305.97 308.284 307.098 306.521 307.098C304.538 307.098 303.308 305.553 303.308 303.064C303.308 300.61 304.559 299.038 306.514 299.038C307.977 299.038 308.968 299.742 309.392 301.075H310.643C310.287 299.12 308.701 297.903 306.514 297.903C303.813 297.903 302.043 299.947 302.043 303.064C302.043 306.223 303.786 308.232 306.514 308.232C309.036 308.232 310.704 306.619 310.704 304.186ZM316.733 308C318.832 308 320.076 306.968 320.076 305.231C320.076 303.926 319.222 303.003 317.875 302.832V302.723C318.825 302.552 319.577 301.622 319.577 300.597C319.577 299.086 318.47 298.136 316.658 298.136H312.885V308H316.733ZM314.115 299.223H316.398C317.622 299.223 318.333 299.804 318.333 300.809C318.333 301.854 317.574 302.388 316.084 302.388H314.115V299.223ZM314.115 306.913V303.447H316.433C318.005 303.447 318.812 304.028 318.812 305.17C318.812 306.312 318.032 306.913 316.549 306.913H314.115ZM325.832 310.099L329.387 297.705H328.389L324.834 310.099H325.832Z" fill="#E05729"/>
  <path d="M336.852 308H338.082V298.136H336.858L334.233 300.022V301.321L336.742 299.503H336.852V308ZM344.31 308.232C346.326 308.232 347.7 306.838 347.7 304.808C347.7 302.853 346.333 301.554 344.679 301.554C343.694 301.554 342.963 301.854 342.484 302.449H342.375L342.683 299.236H347.194V298.136H341.719L341.151 303.775H342.307C342.696 303.044 343.435 302.613 344.371 302.613C345.615 302.613 346.47 303.509 346.47 304.842C346.47 306.223 345.615 307.152 344.323 307.152C343.161 307.152 342.313 306.448 342.204 305.396H340.994C341.104 307.084 342.443 308.232 344.31 308.232ZM349.97 310.509L351.043 306.619H349.737L349.088 310.509H349.97ZM356.313 308.226C358.337 308.226 359.772 306.811 359.772 304.828C359.772 302.914 358.412 301.526 356.532 301.526C355.356 301.526 354.393 302.087 353.907 303.044H353.798C353.839 300.364 354.796 298.997 356.437 298.997C357.435 298.997 358.159 299.51 358.364 300.426H359.629C359.376 298.895 358.193 297.903 356.396 297.903C354.064 297.903 352.602 299.845 352.602 303.235C352.602 306.558 354.167 308.226 356.313 308.226ZM356.3 307.146C355.035 307.146 354.071 306.147 354.071 304.828C354.071 303.522 355.008 302.593 356.313 302.593C357.619 302.593 358.528 303.522 358.528 304.869C358.528 306.161 357.564 307.146 356.3 307.146ZM365.241 308.226C367.265 308.226 368.7 306.811 368.7 304.828C368.7 302.914 367.34 301.526 365.46 301.526C364.284 301.526 363.32 302.087 362.835 303.044H362.726C362.767 300.364 363.724 298.997 365.364 298.997C366.362 298.997 367.087 299.51 367.292 300.426H368.557C368.304 298.895 367.121 297.903 365.323 297.903C362.992 297.903 361.529 299.845 361.529 303.235C361.529 306.558 363.095 308.226 365.241 308.226ZM365.228 307.146C363.963 307.146 362.999 306.147 362.999 304.828C362.999 303.522 363.936 302.593 365.241 302.593C366.547 302.593 367.456 303.522 367.456 304.869C367.456 306.161 366.492 307.146 365.228 307.146ZM383.069 304.186V302.982H379.07V304.062H381.846V304.302C381.846 305.97 380.649 307.098 378.886 307.098C376.903 307.098 375.673 305.553 375.673 303.064C375.673 300.61 376.924 299.038 378.879 299.038C380.342 299.038 381.333 299.742 381.757 301.075H383.008C382.652 299.12 381.066 297.903 378.879 297.903C376.179 297.903 374.408 299.947 374.408 303.064C374.408 306.223 376.151 308.232 378.879 308.232C381.401 308.232 383.069 306.619 383.069 304.186ZM389.099 308C391.197 308 392.441 306.968 392.441 305.231C392.441 303.926 391.587 303.003 390.24 302.832V302.723C391.19 302.552 391.942 301.622 391.942 300.597C391.942 299.086 390.835 298.136 389.023 298.136H385.25V308H389.099ZM386.48 299.223H388.764C389.987 299.223 390.698 299.804 390.698 300.809C390.698 301.854 389.939 302.388 388.449 302.388H386.48V299.223ZM386.48 306.913V303.447H388.798C390.37 303.447 391.177 304.028 391.177 305.17C391.177 306.312 390.397 306.913 388.914 306.913H386.48Z" fill="#67789D"/>
  <rect x="268" y="318" width="160" height="4" rx="2" fill="#F5C9BB"/>
  <rect x="268" y="318" width="97.2669" height="4" rx="2" fill="#E77C58"/>
  <path d="M472.587 308.226C474.61 308.226 476.046 306.811 476.046 304.828C476.046 302.914 474.686 301.526 472.806 301.526C471.63 301.526 470.666 302.087 470.181 303.044H470.071C470.112 300.364 471.069 298.997 472.71 298.997C473.708 298.997 474.433 299.51 474.638 300.426H475.902C475.649 298.895 474.467 297.903 472.669 297.903C470.338 297.903 468.875 299.845 468.875 303.235C468.875 306.558 470.44 308.226 472.587 308.226ZM472.573 307.146C471.309 307.146 470.345 306.147 470.345 304.828C470.345 303.522 471.281 302.593 472.587 302.593C473.893 302.593 474.802 303.522 474.802 304.869C474.802 306.161 473.838 307.146 472.573 307.146ZM478.438 308H479.73L484.119 299.277V298.136H477.591V299.236H482.868V299.332L478.438 308Z" fill="#336ABC"/>
  <rect x="468" y="318" width="188" height="4" rx="2" fill="#BECFEA"/>
  <rect x="468" y="318" width="55" height="4" rx="2" fill="#608BCB"/>
  <path d="M31.3125 301.625H21.6875C20.9492 301.625 20.375 302.227 20.375 302.938V312.562C20.375 313.301 20.9492 313.875 21.6875 313.875H31.3125C32.0234 313.875 32.625 313.301 32.625 312.562V302.938C32.625 302.227 32.0234 301.625 31.3125 301.625ZM31.1484 312.562H21.8516C21.7422 312.562 21.6875 312.508 21.6875 312.398V303.102C21.6875 303.02 21.7422 302.938 21.8516 302.938H31.1484C31.2305 302.938 31.3125 303.02 31.3125 303.102V312.398C31.3125 312.508 31.2305 312.562 31.1484 312.562Z" fill="#67789D"/>
  <defs>
    <filter id="filter0_dd" x="-3" y="-2" width="774" height="366" filterUnits="userSpaceOnUse" color-interpolation-filters="sRGB">
      <feFlood flood-opacity="0" result="BackgroundImageFix"/>
      <feColorMatrix in="SourceAlpha" type="matrix" values="0 0 0 0 0 0 0 0 0 0 0 0 0 0 0 0 0 0 127 0"/>
      <feOffset dy="1"/>
      <feGaussianBlur stdDeviation="1.5"/>
      <feColorMatrix type="matrix" values="0 0 0 0 0.0392157 0 0 0 0 0.0823529 0 0 0 0 0.188235 0 0 0 0.1 0"/>
      <feBlend mode="normal" in2="BackgroundImageFix" result="effect1_dropShadow"/>
      <feColorMatrix in="SourceAlpha" type="matrix" values="0 0 0 0 0 0 0 0 0 0 0 0 0 0 0 0 0 0 127 0"/>
      <feOffset dy="1"/>
      <feGaussianBlur stdDeviation="1"/>
      <feColorMatrix type="matrix" values="0 0 0 0 0.0392157 0 0 0 0 0.0823529 0 0 0 0 0.188235 0 0 0 0.06 0"/>
      <feBlend mode="normal" in2="effect1_dropShadow" result="effect2_dropShadow"/>
      <feBlend mode="normal" in="SourceGraphic" in2="effect2_dropShadow" result="shape"/>
    </filter>
    <clipPath id="clip0">
      <rect width="508" height="324" fill="white"/>
    </clipPath>
    <clipPath id="clip1">
      <rect width="768" height="360" rx="8" fill="white"/>
    </clipPath>
  </defs>
</svg>
