<svg width="1440" height="392" viewBox="0 0 1440 392" fill="none" xmlns="http://www.w3.org/2000/svg">
<g clip-path="url(#clip0)">
<path opacity="0.2" d="M35.2701 94.5085C22.0806 95.0583 13.1895 101.818 0 102.368V391.81H1440V0C1426.81 0.549842 1418.58 45.4002 1405.39 45.95C1392.2 46.4999 1390.93 53.3999 1377.75 53.9498C1364.56 54.4996 1368.99 30.3494 1355.8 30.8993C1342.61 31.4491 1343.72 25.4116 1330.53 25.9614C1317.34 26.5112 1309.42 69.6366 1296.23 70.1864C1283.04 70.7363 1284.31 63.8362 1271.12 64.3861C1257.93 64.9359 1255.4 78.736 1242.21 79.2859C1229.02 79.8357 1216.25 6.7598 1203.06 7.30965C1189.88 7.85949 1182.12 50.1223 1168.93 50.6722C1155.74 51.222 1158.59 35.6969 1145.4 36.2467C1132.21 36.7966 1129.99 48.8717 1116.81 49.4215C1103.59 50.6722 1110.26 13.7461 1097.07 14.2959C1083.88 14.8457 1084.2 13.1207 1071.01 13.6706C1057.82 14.2204 1052.28 44.4081 1039.09 44.958C1025.9 45.5078 1028.28 32.5702 1015.09 33.1201C1001.9 33.6699 1005.06 16.4198 991.875 16.9696C978.686 17.5195 975.203 36.4946 962.014 37.0445C948.825 37.5943 943.76 65.1945 930.57 65.7444C917.381 66.2942 916.748 69.7442 903.558 70.2941C890.369 70.8439 886.886 89.8191 873.697 90.3689C860.508 90.9187 864.781 67.6311 851.592 68.1809C838.402 68.7307 846.316 25.6054 833.127 26.1553C819.938 26.7051 807.275 95.7056 794.085 96.2554C780.896 96.8052 785.486 71.7926 772.297 72.3425C759.107 72.8923 767.813 25.4544 754.623 26.0043C741.434 26.5541 733.995 67.0919 720.805 67.6418C707.616 68.1916 701.126 103.554 687.937 104.104C674.747 104.654 685.827 44.2786 672.638 44.8285C659.448 45.3783 660.873 37.6157 647.683 38.1656C634.494 38.7154 625.788 86.1533 612.599 86.7031C599.409 87.253 597.193 99.328 584.004 99.8778C570.814 100.428 577.779 62.4775 564.589 63.0273C551.4 63.5772 542.536 111.877 529.346 112.427C517.009 113.225 523.596 72.4394 510.407 72.9892C497.218 73.5391 500.541 55.4264 487.352 55.9763C474.163 56.5261 471.788 69.4637 458.599 70.0136C445.409 70.5634 446.834 62.8009 433.645 63.3507C420.455 63.9005 426.47 31.1253 413.28 31.6751C400.741 30.25 390.752 83.1129 377.563 83.6627C364.373 84.2125 359.15 112.675 345.961 113.225C332.771 113.775 342.901 58.5745 329.712 59.1244C316.522 59.6742 318.738 47.5991 305.549 48.149C292.359 48.6988 291.251 54.7364 278.062 55.2862C264.872 55.836 260.915 77.3987 247.726 77.9485C234.536 78.4984 236.119 69.8733 222.93 70.4232C209.74 70.973 209.582 71.8355 196.393 72.3853C183.203 72.9352 188.901 41.8849 175.712 42.4348C162.522 42.9846 159.04 61.9598 145.851 62.5096C132.661 63.0595 127.913 88.9347 114.723 89.4845C101.534 90.0344 102.009 87.4468 88.8193 87.9967C75.6299 88.5465 81.9612 54.0463 68.7718 54.5961C55.5823 55.1459 48.4595 93.9587 35.2701 94.5085Z" fill="url(#paint0_linear)"/>
<path opacity="0.5" d="M0 102.368C13.1895 101.818 22.0806 95.0583 35.2701 94.5085C48.4595 93.9587 55.5823 55.1459 68.7718 54.5961C81.9612 54.0463 75.6299 88.5465 88.8193 87.9967C102.009 87.4468 101.534 90.0344 114.723 89.4845C127.913 88.9347 132.661 63.0595 145.851 62.5096C159.04 61.9598 162.522 42.9846 175.712 42.4348C188.901 41.8849 183.203 72.9352 196.393 72.3853C209.582 71.8355 209.74 70.973 222.93 70.4232C236.119 69.8733 234.536 78.4984 247.726 77.9485C260.915 77.3987 264.872 55.836 278.062 55.2862C291.251 54.7364 292.359 48.6988 305.549 48.149C318.738 47.5991 316.522 59.6742 329.712 59.1244C342.901 58.5745 332.771 113.775 345.961 113.225C359.15 112.675 364.373 84.2125 377.563 83.6627C390.752 83.1129 400.091 32.225 413.28 31.6751C426.47 31.1253 420.455 63.9005 433.645 63.3507C446.834 62.8009 445.409 70.5634 458.599 70.0136C471.788 69.4637 474.163 56.5261 487.352 55.9763C500.541 55.4264 497.218 73.5391 510.407 72.9892C523.596 72.4394 516.157 112.977 529.346 112.427C542.536 111.877 551.4 63.5772 564.589 63.0273C577.779 62.4775 570.814 100.428 584.004 99.8778C597.193 99.328 599.409 87.253 612.599 86.7031C625.788 86.1533 634.494 38.7154 647.683 38.1656C660.873 37.6157 659.448 45.3783 672.638 44.8285C685.827 44.2786 674.747 104.654 687.937 104.104C701.126 103.554 707.616 68.1916 720.805 67.6418C733.995 67.0919 741.434 26.5541 754.623 26.0043C767.813 25.4544 759.107 72.8923 772.297 72.3425C785.486 71.7926 780.896 96.8052 794.085 96.2554C807.275 95.7056 819.938 26.7051 833.127 26.1553C846.316 25.6054 838.402 68.7307 851.592 68.1809C864.781 67.6311 860.508 90.9187 873.697 90.3689C886.886 89.8191 890.369 70.8439 903.558 70.2941C916.748 69.7442 917.381 66.2942 930.57 65.7444C943.76 65.1945 948.825 37.5943 962.014 37.0445C975.203 36.4946 978.686 17.5195 991.875 16.9696C1005.06 16.4198 1001.9 33.6699 1015.09 33.1201C1028.28 32.5702 1025.9 45.5078 1039.09 44.958C1052.28 44.4081 1057.82 14.2204 1071.01 13.6706C1084.2 13.1207 1083.88 14.8457 1097.07 14.2959C1110.26 13.7461 1103.62 49.9713 1116.81 49.4215C1129.99 48.8717 1132.21 36.7966 1145.4 36.2467C1158.59 35.6969 1155.74 51.222 1168.93 50.6722C1182.12 50.1223 1189.88 7.85949 1203.06 7.30965C1216.25 6.7598 1229.02 79.8357 1242.21 79.2859C1255.4 78.736 1257.93 64.9359 1271.12 64.3861C1284.31 63.8362 1283.04 70.7363 1296.23 70.1864C1309.42 69.6366 1317.34 26.5112 1330.53 25.9614C1343.72 25.4116 1342.61 31.4491 1355.8 30.8993C1368.99 30.3494 1364.56 54.4996 1377.75 53.9498C1390.93 53.3999 1392.2 46.4999 1405.39 45.95C1418.58 45.4002 1426.81 0.549842 1440 0" stroke="#67789D" stroke-width="2"/>
</g>
<defs>
<linearGradient id="paint0_linear" x1="720" y1="0" x2="720" y2="391.81" gradientUnits="userSpaceOnUse">
<stop stop-color="#67789D"/>
<stop offset="1" stop-color="#67789D" stop-opacity="0"/>
</linearGradient>
<clipPath id="clip0">
<rect width="1440" height="392" fill="white"/>
</clipPath>
</defs>
</svg>
