<svg width="508" height="324" viewBox="0 0 508 324" fill="none" xmlns="http://www.w3.org/2000/svg">
<rect width="736" height="344" rx="8" fill="white"/>
<rect x="312.25" y="87.25" width="0.5" height="257.5" stroke="#D9DDE7" stroke-width="0.5" stroke-dasharray="2 2"/>
<rect x="384.25" y="87.25" width="0.5" height="257.5" stroke="#D9DDE7" stroke-width="0.5" stroke-dasharray="2 2"/>
<rect x="456.25" y="87.25" width="0.5" height="257.5" stroke="#D9DDE7" stroke-width="0.5" stroke-dasharray="2 2"/>
<path d="M27.7314 29.2363H23.2607V26.8369H27.4785V25.2031H23.2607V22.8994H27.7314V21.1357H21.1963V31H27.7314V29.2363ZM36.5225 23.46H34.4238L32.8789 29.0791H32.7559L31.1973 23.46H29.0576L31.6758 31H33.918L36.5225 23.46ZM40.8154 24.8203C41.7451 24.8203 42.3467 25.4424 42.3877 26.4404H39.1748C39.2432 25.4629 39.8926 24.8203 40.8154 24.8203ZM42.4287 28.8535C42.2168 29.3525 41.6768 29.6328 40.8906 29.6328C39.8516 29.6328 39.1953 28.9355 39.168 27.8145V27.7119H44.3428V27.1035C44.3428 24.7109 43.0303 23.2959 40.8086 23.2959C38.5664 23.2959 37.1855 24.8135 37.1855 27.2676C37.1855 29.7148 38.5391 31.1641 40.8359 31.1641C42.6816 31.1641 43.9873 30.2686 44.2812 28.8535H42.4287ZM45.9766 31H47.9658V26.6523C47.9658 25.6611 48.5332 25.0117 49.4561 25.0117C50.3994 25.0117 50.8438 25.5586 50.8438 26.5977V31H52.833V26.126C52.833 24.3213 51.9307 23.2959 50.2559 23.2959C49.1416 23.2959 48.376 23.8223 48.0273 24.6699H47.9043V23.46H45.9766V31ZM55.335 21.6689V23.5352H54.1592V25.1006H55.335V28.9629C55.335 30.4326 56.0596 31.0273 57.8916 31.0273C58.2744 31.0273 58.6436 30.9863 58.8896 30.9385V29.4209C58.6982 29.4414 58.5615 29.4482 58.3018 29.4482C57.625 29.4482 57.3242 29.1475 57.3242 28.4912V25.1006H58.8896V23.5352H57.3242V21.6689H55.335ZM68.8154 31V22.8994H71.7754V21.1357H63.791V22.8994H66.751V31H68.8154ZM73.2793 31H75.2686V23.46H73.2793V31ZM74.2773 22.332C74.8994 22.332 75.4053 21.8262 75.4053 21.1904C75.4053 20.5547 74.8994 20.0557 74.2773 20.0557C73.6621 20.0557 73.1494 20.5547 73.1494 21.1904C73.1494 21.8262 73.6621 22.332 74.2773 22.332ZM77.2852 31H79.2744V26.4609C79.2744 25.6201 79.8281 25.0117 80.6074 25.0117C81.3867 25.0117 81.8516 25.4697 81.8516 26.2695V31H83.7656V26.3857C83.7656 25.5859 84.2852 25.0117 85.0918 25.0117C85.9326 25.0117 86.3496 25.4561 86.3496 26.3516V31H88.3389V25.8252C88.3389 24.2734 87.4023 23.2959 85.8984 23.2959C84.8457 23.2959 83.9775 23.8496 83.6289 24.6904H83.5059C83.2051 23.8154 82.4805 23.2959 81.4209 23.2959C80.4297 23.2959 79.6436 23.8291 79.3359 24.6904H79.2129V23.46H77.2852V31ZM93.5342 24.8203C94.4639 24.8203 95.0654 25.4424 95.1064 26.4404H91.8936C91.9619 25.4629 92.6113 24.8203 93.5342 24.8203ZM95.1475 28.8535C94.9355 29.3525 94.3955 29.6328 93.6094 29.6328C92.5703 29.6328 91.9141 28.9355 91.8867 27.8145V27.7119H97.0615V27.1035C97.0615 24.7109 95.749 23.2959 93.5273 23.2959C91.2852 23.2959 89.9043 24.8135 89.9043 27.2676C89.9043 29.7148 91.2578 31.1641 93.5547 31.1641C95.4004 31.1641 96.7061 30.2686 97 28.8535H95.1475ZM98.7637 31H100.753V20.582H98.7637V31ZM102.838 31H104.827V23.46H102.838V31ZM103.836 22.332C104.458 22.332 104.964 21.8262 104.964 21.1904C104.964 20.5547 104.458 20.0557 103.836 20.0557C103.221 20.0557 102.708 20.5547 102.708 21.1904C102.708 21.8262 103.221 22.332 103.836 22.332ZM106.844 31H108.833V26.6523C108.833 25.6611 109.4 25.0117 110.323 25.0117C111.267 25.0117 111.711 25.5586 111.711 26.5977V31H113.7V26.126C113.7 24.3213 112.798 23.2959 111.123 23.2959C110.009 23.2959 109.243 23.8223 108.895 24.6699H108.771V23.46H106.844V31ZM118.896 24.8203C119.825 24.8203 120.427 25.4424 120.468 26.4404H117.255C117.323 25.4629 117.973 24.8203 118.896 24.8203ZM120.509 28.8535C120.297 29.3525 119.757 29.6328 118.971 29.6328C117.932 29.6328 117.275 28.9355 117.248 27.8145V27.7119H122.423V27.1035C122.423 24.7109 121.11 23.2959 118.889 23.2959C116.646 23.2959 115.266 24.8135 115.266 27.2676C115.266 29.7148 116.619 31.1641 118.916 31.1641C120.762 31.1641 122.067 30.2686 122.361 28.8535H120.509Z" fill="#203053"/>
<rect y="53" width="881" height="34" fill="#F5F7F9"/>
<path d="M213.594 65.5449V74H215.961C218.357 74 219.564 72.582 219.564 69.7578C219.564 66.957 218.357 65.5449 215.961 65.5449H213.594ZM214.631 66.4941H215.867C217.654 66.4941 218.51 67.5488 218.51 69.7637C218.51 72.002 217.66 73.0508 215.867 73.0508H214.631V66.4941ZM226.385 67.6426H225.389V71.3867C225.389 72.4707 224.686 73.2031 223.637 73.2031C222.646 73.2031 222.178 72.6641 222.178 71.5156V67.6426H221.182V71.7676C221.182 73.291 221.932 74.1172 223.314 74.1172C224.281 74.1172 225.008 73.6719 225.348 72.8809H225.43V74H226.385V67.6426ZM230.949 71.1523C230.949 69.5352 231.781 68.5625 233.188 68.5625C233.533 68.5625 233.943 68.6328 234.236 68.7383V67.6191C234.025 67.5312 233.68 67.4785 233.316 67.4785C232.092 67.4785 231.301 68.0879 231.066 69.2656H230.938V67.6426H228.564V68.4395H229.977V73.2031H228.693V74H232.918V73.2031H230.949V71.1523ZM237.975 74.1113C238.9 74.1113 239.592 73.7305 239.896 73.0508H239.996V74.0059H240.945V69.6523C240.945 68.3281 240.09 67.5664 238.596 67.5664C237.295 67.5664 236.311 68.2637 236.193 69.2832H237.172C237.336 68.7383 237.852 68.4277 238.584 68.4277C239.469 68.4277 239.955 68.8672 239.955 69.6641V70.2383L238.209 70.3262C236.762 70.4023 235.953 71.0703 235.953 72.1953C235.953 73.3496 236.762 74.1113 237.975 74.1113ZM238.262 73.2383C237.459 73.2383 236.961 72.8281 236.961 72.1602C236.961 71.498 237.43 71.1172 238.32 71.0762L239.955 71V71.75C239.955 72.5996 239.223 73.2383 238.262 73.2383ZM244.953 65.9375V67.6602H243.26V68.5098H244.953V72.1074C244.953 73.4316 245.686 74.0293 247.262 74.0293C247.566 74.0293 248.34 74 248.498 73.9707V73.127C248.328 73.1445 247.689 73.1621 247.332 73.1621C246.436 73.1621 245.949 72.7871 245.949 72.0957V68.5098H248.516V67.6602H245.938V65.9375H244.953ZM253.566 66.084C254.035 66.084 254.393 65.7324 254.393 65.2637C254.393 64.8008 254.035 64.4492 253.566 64.4492C253.098 64.4492 252.74 64.8008 252.74 65.2637C252.74 65.7324 253.098 66.084 253.566 66.084ZM256.232 74V73.1738H254.129V67.6426H250.982V68.4688H253.145V73.1738H250.965V74H256.232ZM260.873 74.1172C262.555 74.1172 263.627 73.0215 263.627 71.3047V70.3438C263.627 68.627 262.555 67.5312 260.873 67.5312C259.191 67.5312 258.119 68.627 258.119 70.3438V71.3047C258.119 73.0215 259.191 74.1172 260.873 74.1172ZM260.873 68.4102C261.963 68.4102 262.643 69.1836 262.643 70.4316V71.2109C262.643 72.4648 261.963 73.2324 260.873 73.2324C259.783 73.2324 259.104 72.4648 259.104 71.2109V70.4316C259.104 69.1836 259.783 68.4102 260.873 68.4102ZM265.689 74H266.686V70.2559C266.686 69.1719 267.389 68.4395 268.438 68.4395C269.428 68.4395 269.896 68.9785 269.896 70.127V74H270.893V69.875C270.893 68.3516 270.143 67.5254 268.76 67.5254C267.793 67.5254 267.066 67.9707 266.727 68.7617H266.645V67.6426H265.689V74Z" fill="#67789D"/>
<path d="M315.715 74.1934C317.549 74.1934 318.568 72.623 318.568 69.7754C318.568 66.9277 317.549 65.3574 315.715 65.3574C313.875 65.3574 312.861 66.9277 312.861 69.7754C312.861 72.623 313.875 74.1934 315.715 74.1934ZM313.887 69.7754C313.887 67.4785 314.52 66.2715 315.715 66.2715C316.512 66.2715 317.062 66.8105 317.338 67.8594L313.928 70.707C313.904 70.4199 313.887 70.1094 313.887 69.7754ZM315.715 73.2793C314.918 73.2793 314.373 72.7402 314.098 71.7031L317.496 68.832C317.525 69.125 317.537 69.4355 317.537 69.7754C317.537 72.0664 316.91 73.2793 315.715 73.2793ZM333.609 69.3184C333.609 68.1406 333.146 67.5254 332.262 67.5254C331.623 67.5254 331.113 67.9121 330.949 68.5215H330.844C330.709 67.8945 330.287 67.5254 329.689 67.5254C329.092 67.5254 328.635 67.9004 328.477 68.5391H328.371V67.6426H327.48V74H328.377V69.7109C328.377 68.9199 328.729 68.4336 329.291 68.4336C329.83 68.4336 330.111 68.8379 330.111 69.6055V74H331.002V69.7109C331.002 68.9199 331.342 68.4336 331.898 68.4336C332.432 68.4336 332.713 68.8379 332.713 69.6113V74H333.609V69.3184ZM335.648 69.3594C335.648 70.2617 336.217 70.8418 337.365 71.1055L338.309 71.3223C339.117 71.5039 339.428 71.7734 339.428 72.2773C339.428 72.8867 338.877 73.2793 338.01 73.2793C337.189 73.2793 336.627 72.9395 336.48 72.3535H335.467C335.578 73.4434 336.533 74.1172 337.975 74.1172C339.48 74.1172 340.459 73.3555 340.459 72.1836C340.459 71.2637 339.896 70.7246 338.66 70.4434L337.764 70.2383C336.967 70.0625 336.639 69.7871 336.639 69.3008C336.639 68.7207 337.16 68.3457 337.969 68.3457C338.713 68.3457 339.246 68.6855 339.363 69.2422H340.324C340.207 68.1816 339.311 67.5195 337.986 67.5195C336.586 67.5195 335.648 68.2578 335.648 69.3594Z" fill="#67789D"/>
<path d="M385.014 67.9238V67.959H386.01V67.9238C386.01 66.9277 386.654 66.2773 387.627 66.2773C388.611 66.2773 389.25 66.875 389.25 67.7832C389.25 68.4512 388.992 68.9023 387.92 70.1035L385.061 73.2852V74H390.41V73.0625H386.537V72.9629L388.529 70.7949C389.877 69.3242 390.275 68.6211 390.275 67.7422C390.275 66.3301 389.209 65.3691 387.656 65.3691C386.115 65.3691 385.014 66.4355 385.014 67.9238ZM395.133 74.1934C396.967 74.1934 397.986 72.623 397.986 69.7754C397.986 66.9277 396.967 65.3574 395.133 65.3574C393.293 65.3574 392.279 66.9277 392.279 69.7754C392.279 72.623 393.293 74.1934 395.133 74.1934ZM393.305 69.7754C393.305 67.4785 393.938 66.2715 395.133 66.2715C395.93 66.2715 396.48 66.8105 396.756 67.8594L393.346 70.707C393.322 70.4199 393.305 70.1094 393.305 69.7754ZM395.133 73.2793C394.336 73.2793 393.791 72.7402 393.516 71.7031L396.914 68.832C396.943 69.125 396.955 69.4355 396.955 69.7754C396.955 72.0664 396.328 73.2793 395.133 73.2793ZM402.551 74.1934C404.385 74.1934 405.404 72.623 405.404 69.7754C405.404 66.9277 404.385 65.3574 402.551 65.3574C400.711 65.3574 399.697 66.9277 399.697 69.7754C399.697 72.623 400.711 74.1934 402.551 74.1934ZM400.723 69.7754C400.723 67.4785 401.355 66.2715 402.551 66.2715C403.348 66.2715 403.898 66.8105 404.174 67.8594L400.764 70.707C400.74 70.4199 400.723 70.1094 400.723 69.7754ZM402.551 73.2793C401.754 73.2793 401.209 72.7402 400.934 71.7031L404.332 68.832C404.361 69.125 404.373 69.4355 404.373 69.7754C404.373 72.0664 403.746 73.2793 402.551 73.2793ZM420.445 69.3184C420.445 68.1406 419.982 67.5254 419.098 67.5254C418.459 67.5254 417.949 67.9121 417.785 68.5215H417.68C417.545 67.8945 417.123 67.5254 416.525 67.5254C415.928 67.5254 415.471 67.9004 415.312 68.5391H415.207V67.6426H414.316V74H415.213V69.7109C415.213 68.9199 415.564 68.4336 416.127 68.4336C416.666 68.4336 416.947 68.8379 416.947 69.6055V74H417.838V69.7109C417.838 68.9199 418.178 68.4336 418.734 68.4336C419.268 68.4336 419.549 68.8379 419.549 69.6113V74H420.445V69.3184ZM422.484 69.3594C422.484 70.2617 423.053 70.8418 424.201 71.1055L425.145 71.3223C425.953 71.5039 426.264 71.7734 426.264 72.2773C426.264 72.8867 425.713 73.2793 424.846 73.2793C424.025 73.2793 423.463 72.9395 423.316 72.3535H422.303C422.414 73.4434 423.369 74.1172 424.811 74.1172C426.316 74.1172 427.295 73.3555 427.295 72.1836C427.295 71.2637 426.732 70.7246 425.496 70.4434L424.6 70.2383C423.803 70.0625 423.475 69.7871 423.475 69.3008C423.475 68.7207 423.996 68.3457 424.805 68.3457C425.549 68.3457 426.082 68.6855 426.199 69.2422H427.16C427.043 68.1816 426.146 67.5195 424.822 67.5195C423.422 67.5195 422.484 68.2578 422.484 69.3594Z" fill="#67789D"/>
<path d="M460.699 74H461.643V72.2129H462.938V71.3047H461.648V68.9023H460.711V71.3164H457.939V71.2402L460.77 65.5449H459.715L456.844 71.375V72.2129H460.699V74ZM467.133 74.1934C468.967 74.1934 469.986 72.623 469.986 69.7754C469.986 66.9277 468.967 65.3574 467.133 65.3574C465.293 65.3574 464.279 66.9277 464.279 69.7754C464.279 72.623 465.293 74.1934 467.133 74.1934ZM465.305 69.7754C465.305 67.4785 465.938 66.2715 467.133 66.2715C467.93 66.2715 468.48 66.8105 468.756 67.8594L465.346 70.707C465.322 70.4199 465.305 70.1094 465.305 69.7754ZM467.133 73.2793C466.336 73.2793 465.791 72.7402 465.516 71.7031L468.914 68.832C468.943 69.125 468.955 69.4355 468.955 69.7754C468.955 72.0664 468.328 73.2793 467.133 73.2793ZM474.551 74.1934C476.385 74.1934 477.404 72.623 477.404 69.7754C477.404 66.9277 476.385 65.3574 474.551 65.3574C472.711 65.3574 471.697 66.9277 471.697 69.7754C471.697 72.623 472.711 74.1934 474.551 74.1934ZM472.723 69.7754C472.723 67.4785 473.355 66.2715 474.551 66.2715C475.348 66.2715 475.898 66.8105 476.174 67.8594L472.764 70.707C472.74 70.4199 472.723 70.1094 472.723 69.7754ZM474.551 73.2793C473.754 73.2793 473.209 72.7402 472.934 71.7031L476.332 68.832C476.361 69.125 476.373 69.4355 476.373 69.7754C476.373 72.0664 475.746 73.2793 474.551 73.2793ZM492.445 69.3184C492.445 68.1406 491.982 67.5254 491.098 67.5254C490.459 67.5254 489.949 67.9121 489.785 68.5215H489.68C489.545 67.8945 489.123 67.5254 488.525 67.5254C487.928 67.5254 487.471 67.9004 487.312 68.5391H487.207V67.6426H486.316V74H487.213V69.7109C487.213 68.9199 487.564 68.4336 488.127 68.4336C488.666 68.4336 488.947 68.8379 488.947 69.6055V74H489.838V69.7109C489.838 68.9199 490.178 68.4336 490.734 68.4336C491.268 68.4336 491.549 68.8379 491.549 69.6113V74H492.445V69.3184ZM494.484 69.3594C494.484 70.2617 495.053 70.8418 496.201 71.1055L497.145 71.3223C497.953 71.5039 498.264 71.7734 498.264 72.2773C498.264 72.8867 497.713 73.2793 496.846 73.2793C496.025 73.2793 495.463 72.9395 495.316 72.3535H494.303C494.414 73.4434 495.369 74.1172 496.811 74.1172C498.316 74.1172 499.295 73.3555 499.295 72.1836C499.295 71.2637 498.732 70.7246 497.496 70.4434L496.6 70.2383C495.803 70.0625 495.475 69.7871 495.475 69.3008C495.475 68.7207 495.996 68.3457 496.805 68.3457C497.549 68.3457 498.082 68.6855 498.199 69.2422H499.16C499.043 68.1816 498.146 67.5195 496.822 67.5195C495.422 67.5195 494.484 68.2578 494.484 69.3594Z" fill="#67789D"/>
<rect x="0.25" y="86.25" width="880.5" height="0.5" stroke="#E4E7F0" stroke-width="0.5"/>
<path d="M26.3398 73.0508H22.3848V70.1445H26.123V69.2363H22.3848V66.4941H26.3398V65.5449H21.3477V74H26.3398V73.0508ZM28.2559 67.6426L30.582 74H31.6777L33.998 67.6426H32.9375L31.1738 72.9336H31.0977L29.3223 67.6426H28.2559ZM40.2617 72.3594C40.0859 72.916 39.4941 73.2559 38.6914 73.2559C37.6074 73.2559 36.916 72.5059 36.916 71.3398V71.082H41.2461V70.4609C41.2461 68.6211 40.2734 67.5254 38.6211 67.5254C37.0039 67.5254 35.9316 68.627 35.9316 70.3027V71.2578C35.9316 73.0684 36.9453 74.1172 38.6914 74.1172C40.0273 74.1172 41.0352 73.4082 41.2285 72.3594H40.2617ZM38.6152 68.3809C39.6406 68.3809 40.2617 69.1133 40.2617 70.3262H36.916C36.916 69.1074 37.5547 68.3809 38.6152 68.3809ZM43.3613 74H44.3574V70.2559C44.3574 69.1719 45.0605 68.4395 46.1094 68.4395C47.0996 68.4395 47.5684 68.9785 47.5684 70.127V74H48.5645V69.875C48.5645 68.3516 47.8145 67.5254 46.4316 67.5254C45.4648 67.5254 44.7383 67.9707 44.3984 68.7617H44.3164V67.6426H43.3613V74ZM52.2969 65.9375V67.6602H50.6035V68.5098H52.2969V72.1074C52.2969 73.4316 53.0293 74.0293 54.6055 74.0293C54.9102 74.0293 55.6836 74 55.8418 73.9707V73.127C55.6719 73.1445 55.0332 73.1621 54.6758 73.1621C53.7793 73.1621 53.293 72.7871 53.293 72.0957V68.5098H55.8594V67.6602H53.2812V65.9375H52.2969ZM65.6152 74H66.6113V70.2559C66.6113 69.1719 67.3145 68.4395 68.3633 68.4395C69.3535 68.4395 69.8223 68.9785 69.8223 70.127V74H70.8184V69.875C70.8184 68.3516 70.0684 67.5254 68.6855 67.5254C67.7188 67.5254 66.9922 67.9707 66.6523 68.7617H66.5703V67.6426H65.6152V74ZM74.9902 74.1113C75.916 74.1113 76.6074 73.7305 76.9121 73.0508H77.0117V74.0059H77.9609V69.6523C77.9609 68.3281 77.1055 67.5664 75.6113 67.5664C74.3105 67.5664 73.3262 68.2637 73.209 69.2832H74.1875C74.3516 68.7383 74.8672 68.4277 75.5996 68.4277C76.4844 68.4277 76.9707 68.8672 76.9707 69.6641V70.2383L75.2246 70.3262C73.7773 70.4023 72.9688 71.0703 72.9688 72.1953C72.9688 73.3496 73.7773 74.1113 74.9902 74.1113ZM75.2773 73.2383C74.4746 73.2383 73.9766 72.8281 73.9766 72.1602C73.9766 71.498 74.4453 71.1172 75.3359 71.0762L76.9707 71V71.75C76.9707 72.5996 76.2383 73.2383 75.2773 73.2383ZM86.1172 69.3184C86.1172 68.1406 85.6543 67.5254 84.7695 67.5254C84.1309 67.5254 83.6211 67.9121 83.457 68.5215H83.3516C83.2168 67.8945 82.7949 67.5254 82.1973 67.5254C81.5996 67.5254 81.1426 67.9004 80.9844 68.5391H80.8789V67.6426H79.9883V74H80.8848V69.7109C80.8848 68.9199 81.2363 68.4336 81.7988 68.4336C82.3379 68.4336 82.6191 68.8379 82.6191 69.6055V74H83.5098V69.7109C83.5098 68.9199 83.8496 68.4336 84.4062 68.4336C84.9395 68.4336 85.2207 68.8379 85.2207 69.6113V74H86.1172V69.3184ZM92.1875 72.3594C92.0117 72.916 91.4199 73.2559 90.6172 73.2559C89.5332 73.2559 88.8418 72.5059 88.8418 71.3398V71.082H93.1719V70.4609C93.1719 68.6211 92.1992 67.5254 90.5469 67.5254C88.9297 67.5254 87.8574 68.627 87.8574 70.3027V71.2578C87.8574 73.0684 88.8711 74.1172 90.6172 74.1172C91.9531 74.1172 92.9609 73.4082 93.1543 72.3594H92.1875ZM90.541 68.3809C91.5664 68.3809 92.1875 69.1133 92.1875 70.3262H88.8418C88.8418 69.1074 89.4805 68.3809 90.541 68.3809Z" fill="#67789D"/>
<rect x="0.25" y="52.25" width="880.5" height="0.5" stroke="#E4E7F0" stroke-width="0.5"/>
<rect x="0.25" y="129.25" width="880.5" height="0.5" stroke="#E4E7F0" stroke-width="0.5"/>
<path d="M21.1016 112H22.0977V108.262C22.0977 107.178 22.8066 106.445 23.8555 106.445C24.8516 106.445 25.3203 106.99 25.3203 108.133V112H26.3164V107.881C26.3164 106.363 25.5664 105.531 24.1836 105.531C23.2109 105.531 22.4785 105.977 22.1445 106.768H22.0625V103.146H21.1016V112ZM30.043 103.938V105.66H28.3496V106.51H30.043V110.107C30.043 111.432 30.7754 112.029 32.3516 112.029C32.6562 112.029 33.4297 112 33.5879 111.971V111.127C33.418 111.145 32.7793 111.162 32.4219 111.162C31.5254 111.162 31.0391 110.787 31.0391 110.096V106.51H33.6055V105.66H31.0273V103.938H30.043ZM37.4609 103.938V105.66H35.7676V106.51H37.4609V110.107C37.4609 111.432 38.1934 112.029 39.7695 112.029C40.0742 112.029 40.8477 112 41.0059 111.971V111.127C40.8359 111.145 40.1973 111.162 39.8398 111.162C38.9434 111.162 38.457 110.787 38.457 110.096V106.51H41.0234V105.66H38.4453V103.938H37.4609ZM46.3613 105.537C45.4531 105.537 44.791 105.912 44.457 106.615H44.3516V105.643H43.3672V114.145H44.3809V111.016H44.4922C44.7676 111.713 45.4414 112.105 46.3613 112.105C47.832 112.105 48.793 111.045 48.793 109.416V108.232C48.793 106.598 47.832 105.537 46.3613 105.537ZM46.0742 106.451C47.123 106.451 47.791 107.201 47.791 108.373V109.287C47.791 110.459 47.123 111.215 46.0742 111.215C45.0254 111.215 44.3574 110.465 44.3574 109.287V108.373C44.3574 107.201 45.0254 106.451 46.0742 106.451ZM53.3809 112.035C53.9609 112.035 54.4414 111.549 54.4414 110.951C54.4414 110.359 53.9609 109.873 53.3809 109.873C52.8008 109.873 52.3203 110.359 52.3203 110.951C52.3203 111.549 52.8008 112.035 53.3809 112.035ZM62.5156 110.359C62.3398 110.916 61.748 111.256 60.9453 111.256C59.8613 111.256 59.1699 110.506 59.1699 109.34V109.082H63.5V108.461C63.5 106.621 62.5273 105.525 60.875 105.525C59.2578 105.525 58.1855 106.627 58.1855 108.303V109.258C58.1855 111.068 59.1992 112.117 60.9453 112.117C62.2812 112.117 63.2891 111.408 63.4824 110.359H62.5156ZM60.8691 106.381C61.8945 106.381 62.5156 107.113 62.5156 108.326H59.1699C59.1699 107.107 59.8086 106.381 60.8691 106.381ZM68.2402 109.551L69.8398 112H70.9941L68.8027 108.777L70.9766 105.643H69.8574L68.2812 108.051H68.1992L66.6172 105.643H65.4395L67.6367 108.818L65.457 112H66.5586L68.1641 109.551H68.2402ZM76.0332 105.537C75.125 105.537 74.4629 105.912 74.1289 106.615H74.0234V105.643H73.0391V114.145H74.0527V111.016H74.1641C74.4395 111.713 75.1133 112.105 76.0332 112.105C77.5039 112.105 78.4648 111.045 78.4648 109.416V108.232C78.4648 106.598 77.5039 105.537 76.0332 105.537ZM75.7461 106.451C76.7949 106.451 77.4629 107.201 77.4629 108.373V109.287C77.4629 110.459 76.7949 111.215 75.7461 111.215C74.6973 111.215 74.0293 110.465 74.0293 109.287V108.373C74.0293 107.201 74.6973 106.451 75.7461 106.451ZM82.8008 109.152C82.8008 107.535 83.6328 106.562 85.0391 106.562C85.3848 106.562 85.7949 106.633 86.0879 106.738V105.619C85.877 105.531 85.5312 105.479 85.168 105.479C83.9434 105.479 83.1523 106.088 82.918 107.266H82.7891V105.643H80.416V106.439H81.8281V111.203H80.5449V112H84.7695V111.203H82.8008V109.152ZM92.1875 110.359C92.0117 110.916 91.4199 111.256 90.6172 111.256C89.5332 111.256 88.8418 110.506 88.8418 109.34V109.082H93.1719V108.461C93.1719 106.621 92.1992 105.525 90.5469 105.525C88.9297 105.525 87.8574 106.627 87.8574 108.303V109.258C87.8574 111.068 88.8711 112.117 90.6172 112.117C91.9531 112.117 92.9609 111.408 93.1543 110.359H92.1875ZM90.541 106.381C91.5664 106.381 92.1875 107.113 92.1875 108.326H88.8418C88.8418 107.107 89.4805 106.381 90.541 106.381ZM95.5742 107.359C95.5742 108.262 96.1426 108.842 97.291 109.105L98.2344 109.322C99.043 109.504 99.3535 109.773 99.3535 110.277C99.3535 110.887 98.8027 111.279 97.9355 111.279C97.1152 111.279 96.5527 110.939 96.4062 110.354H95.3926C95.5039 111.443 96.459 112.117 97.9004 112.117C99.4062 112.117 100.385 111.355 100.385 110.184C100.385 109.264 99.8223 108.725 98.5859 108.443L97.6895 108.238C96.8926 108.062 96.5645 107.787 96.5645 107.301C96.5645 106.721 97.0859 106.346 97.8945 106.346C98.6387 106.346 99.1719 106.686 99.2891 107.242H100.25C100.133 106.182 99.2363 105.52 97.9121 105.52C96.5117 105.52 95.5742 106.258 95.5742 107.359ZM102.992 107.359C102.992 108.262 103.561 108.842 104.709 109.105L105.652 109.322C106.461 109.504 106.771 109.773 106.771 110.277C106.771 110.887 106.221 111.279 105.354 111.279C104.533 111.279 103.971 110.939 103.824 110.354H102.811C102.922 111.443 103.877 112.117 105.318 112.117C106.824 112.117 107.803 111.355 107.803 110.184C107.803 109.264 107.24 108.725 106.004 108.443L105.107 108.238C104.311 108.062 103.982 107.787 103.982 107.301C103.982 106.721 104.504 106.346 105.312 106.346C106.057 106.346 106.59 106.686 106.707 107.242H107.668C107.551 106.182 106.654 105.52 105.33 105.52C103.93 105.52 102.992 106.258 102.992 107.359Z" fill="#336ABC"/>
<path d="M20 113.465H109.016V114.051H20V113.465Z" fill="#336ABC"/>
<path d="M219.559 112V111.092H217.18V103.545H216.166L213.646 105.18V106.281L216.066 104.717H216.16V111.092H213.664V112H219.559ZM223.25 113.945L224.352 110.137H223.033L222.307 113.945H223.25ZM231.207 112.193C233.041 112.193 234.061 110.623 234.061 107.775C234.061 104.928 233.041 103.357 231.207 103.357C229.367 103.357 228.354 104.928 228.354 107.775C228.354 110.623 229.367 112.193 231.207 112.193ZM229.379 107.775C229.379 105.479 230.012 104.271 231.207 104.271C232.004 104.271 232.555 104.811 232.83 105.859L229.42 108.707C229.396 108.42 229.379 108.109 229.379 107.775ZM231.207 111.279C230.41 111.279 229.865 110.74 229.59 109.703L232.988 106.832C233.018 107.125 233.029 107.436 233.029 107.775C233.029 110.066 232.402 111.279 231.207 111.279ZM237.588 108.08H238.555C239.727 108.08 240.471 108.707 240.471 109.691C240.471 110.646 239.75 111.244 238.59 111.244C237.535 111.244 236.785 110.658 236.691 109.756H235.713C235.789 111.215 236.949 112.176 238.619 112.176C240.307 112.176 241.514 111.15 241.514 109.715C241.514 108.561 240.846 107.77 239.721 107.623V107.529C240.629 107.307 241.162 106.58 241.162 105.561C241.162 104.277 240.084 103.369 238.572 103.369C237.008 103.369 235.977 104.277 235.877 105.742H236.867C236.949 104.834 237.582 104.277 238.531 104.277C239.486 104.277 240.119 104.846 240.119 105.707C240.119 106.592 239.457 107.213 238.508 107.213H237.588V108.08Z" fill="#203053"/>
<path d="M251.141 107.359C251.141 108.262 251.709 108.842 252.857 109.105L253.801 109.322C254.609 109.504 254.92 109.773 254.92 110.277C254.92 110.887 254.369 111.279 253.502 111.279C252.682 111.279 252.119 110.939 251.973 110.354H250.959C251.07 111.443 252.025 112.117 253.467 112.117C254.973 112.117 255.951 111.355 255.951 110.184C255.951 109.264 255.389 108.725 254.152 108.443L253.256 108.238C252.459 108.062 252.131 107.787 252.131 107.301C252.131 106.721 252.652 106.346 253.461 106.346C254.205 106.346 254.738 106.686 254.855 107.242H255.816C255.699 106.182 254.803 105.52 253.479 105.52C252.078 105.52 251.141 106.258 251.141 107.359ZM262.59 110.359C262.414 110.916 261.822 111.256 261.02 111.256C259.936 111.256 259.244 110.506 259.244 109.34V109.082H263.574V108.461C263.574 106.621 262.602 105.525 260.949 105.525C259.332 105.525 258.26 106.627 258.26 108.303V109.258C258.26 111.068 259.273 112.117 261.02 112.117C262.355 112.117 263.363 111.408 263.557 110.359H262.59ZM260.943 106.381C261.969 106.381 262.59 107.113 262.59 108.326H259.244C259.244 107.107 259.883 106.381 260.943 106.381ZM270.939 107.623C270.775 106.316 269.814 105.52 268.408 105.52C266.68 105.52 265.672 106.58 265.672 108.402V109.234C265.672 111.057 266.68 112.117 268.408 112.117C269.814 112.117 270.781 111.326 270.939 110.031H269.955C269.832 110.758 269.211 111.221 268.391 111.221C267.283 111.221 266.668 110.471 266.668 109.105V108.531C266.668 107.166 267.283 106.41 268.391 106.41C269.211 106.41 269.832 106.879 269.955 107.623H270.939Z" fill="#67789D"/>
<path d="M312 106H689C690.105 106 691 106.895 691 108V108C691 109.105 690.105 110 689 110H312V106Z" fill="#29A575"/>
<path d="M239.609 155H240.553V153.213H241.848V152.305H240.559V149.902H239.621V152.316H236.85V152.24L239.68 146.545H238.625L235.754 152.375V153.213H239.609V155ZM247.027 155H247.971V153.213H249.266V152.305H247.977V149.902H247.039V152.316H244.268V152.24L247.098 146.545H246.043L243.172 152.375V153.213H247.027V155Z" fill="#203053"/>
<path d="M263.938 150.318C263.938 149.141 263.475 148.525 262.59 148.525C261.951 148.525 261.441 148.912 261.277 149.521H261.172C261.037 148.895 260.615 148.525 260.018 148.525C259.42 148.525 258.963 148.9 258.805 149.539H258.699V148.643H257.809V155H258.705V150.711C258.705 149.92 259.057 149.434 259.619 149.434C260.158 149.434 260.439 149.838 260.439 150.605V155H261.33V150.711C261.33 149.92 261.67 149.434 262.227 149.434C262.76 149.434 263.041 149.838 263.041 150.611V155H263.938V150.318ZM265.977 150.359C265.977 151.262 266.545 151.842 267.693 152.105L268.637 152.322C269.445 152.504 269.756 152.773 269.756 153.277C269.756 153.887 269.205 154.279 268.338 154.279C267.518 154.279 266.955 153.939 266.809 153.354H265.795C265.906 154.443 266.861 155.117 268.303 155.117C269.809 155.117 270.787 154.355 270.787 153.184C270.787 152.264 270.225 151.725 268.988 151.443L268.092 151.238C267.295 151.062 266.967 150.787 266.967 150.301C266.967 149.721 267.488 149.346 268.297 149.346C269.041 149.346 269.574 149.686 269.691 150.242H270.652C270.535 149.182 269.639 148.52 268.314 148.52C266.914 148.52 265.977 149.258 265.977 150.359Z" fill="#67789D"/>
<path d="M41.3945 150.359C41.3945 151.262 41.9629 151.842 43.1113 152.105L44.0547 152.322C44.8633 152.504 45.1738 152.773 45.1738 153.277C45.1738 153.887 44.623 154.279 43.7559 154.279C42.9355 154.279 42.373 153.939 42.2266 153.354H41.2129C41.3242 154.443 42.2793 155.117 43.7207 155.117C45.2266 155.117 46.2051 154.355 46.2051 153.184C46.2051 152.264 45.6426 151.725 44.4062 151.443L43.5098 151.238C42.7129 151.062 42.3848 150.787 42.3848 150.301C42.3848 149.721 42.9062 149.346 43.7148 149.346C44.459 149.346 44.9922 149.686 45.1094 150.242H46.0703C45.9531 149.182 45.0566 148.52 43.7324 148.52C42.332 148.52 41.3945 149.258 41.3945 150.359ZM50.7285 148.537C49.2578 148.537 48.2969 149.598 48.2969 151.232V152.416C48.2969 154.045 49.2578 155.105 50.7285 155.105C51.6484 155.105 52.3223 154.713 52.5977 154.016H52.709V157.145H53.7227V148.643H52.7383V149.615H52.6328C52.2988 148.912 51.6367 148.537 50.7285 148.537ZM51.0156 149.451C52.0645 149.451 52.7324 150.201 52.7324 151.373V152.287C52.7324 153.465 52.0645 154.215 51.0156 154.215C49.9668 154.215 49.2988 153.459 49.2988 152.287V151.373C49.2988 150.201 49.9668 149.451 51.0156 149.451ZM61.3223 155V154.174H59.2246V146.146H56.0723V146.973H58.2285V154.174H56.0547V155H61.3223ZM65.9629 155.035C66.543 155.035 67.0234 154.549 67.0234 153.951C67.0234 153.359 66.543 152.873 65.9629 152.873C65.3828 152.873 64.9023 153.359 64.9023 153.951C64.9023 154.549 65.3828 155.035 65.9629 155.035ZM73.7793 148.537C72.8711 148.537 72.209 148.912 71.875 149.615H71.7695V148.643H70.7852V157.145H71.7988V154.016H71.9102C72.1855 154.713 72.8594 155.105 73.7793 155.105C75.25 155.105 76.2109 154.045 76.2109 152.416V151.232C76.2109 149.598 75.25 148.537 73.7793 148.537ZM73.4922 149.451C74.541 149.451 75.209 150.201 75.209 151.373V152.287C75.209 153.459 74.541 154.215 73.4922 154.215C72.4434 154.215 71.7754 153.465 71.7754 152.287V151.373C71.7754 150.201 72.4434 149.451 73.4922 149.451ZM80.7988 155.117C82.4805 155.117 83.5527 154.021 83.5527 152.305V151.344C83.5527 149.627 82.4805 148.531 80.7988 148.531C79.1172 148.531 78.0449 149.627 78.0449 151.344V152.305C78.0449 154.021 79.1172 155.117 80.7988 155.117ZM80.7988 149.41C81.8887 149.41 82.5684 150.184 82.5684 151.432V152.211C82.5684 153.465 81.8887 154.232 80.7988 154.232C79.709 154.232 79.0293 153.465 79.0293 152.211V151.432C79.0293 150.184 79.709 149.41 80.7988 149.41ZM85.9023 150.359C85.9023 151.262 86.4707 151.842 87.6191 152.105L88.5625 152.322C89.3711 152.504 89.6816 152.773 89.6816 153.277C89.6816 153.887 89.1309 154.279 88.2637 154.279C87.4434 154.279 86.8809 153.939 86.7344 153.354H85.7207C85.832 154.443 86.7871 155.117 88.2285 155.117C89.7344 155.117 90.7129 154.355 90.7129 153.184C90.7129 152.264 90.1504 151.725 88.9141 151.443L88.0176 151.238C87.2207 151.062 86.8926 150.787 86.8926 150.301C86.8926 149.721 87.4141 149.346 88.2227 149.346C88.9668 149.346 89.5 149.686 89.6172 150.242H90.5781C90.4609 149.182 89.5645 148.52 88.2402 148.52C86.8398 148.52 85.9023 149.258 85.9023 150.359ZM94.5508 146.938V148.66H92.8574V149.51H94.5508V153.107C94.5508 154.432 95.2832 155.029 96.8594 155.029C97.1641 155.029 97.9375 155 98.0957 154.971V154.127C97.9258 154.145 97.2871 154.162 96.9297 154.162C96.0332 154.162 95.5469 153.787 95.5469 153.096V149.51H98.1133V148.66H95.5352V146.938H94.5508ZM102.865 157.385C104.588 157.385 105.607 156.494 105.607 155V148.643H104.623V149.627H104.512C104.236 148.941 103.539 148.537 102.619 148.537C101.131 148.537 100.158 149.592 100.158 151.227V152.369C100.158 153.998 101.125 155.059 102.596 155.059C103.521 155.059 104.225 154.654 104.506 153.986H104.611V154.977C104.611 155.996 103.996 156.559 102.883 156.559C102.033 156.559 101.395 156.213 101.266 155.686H100.281C100.41 156.74 101.395 157.385 102.865 157.385ZM101.16 152.229V151.355C101.16 150.189 101.84 149.434 102.895 149.434C103.943 149.434 104.617 150.184 104.617 151.355V152.229C104.617 153.4 103.943 154.156 102.895 154.156C101.84 154.156 101.16 153.395 101.16 152.229ZM110.219 152.152C110.219 150.535 111.051 149.562 112.457 149.562C112.803 149.562 113.213 149.633 113.506 149.738V148.619C113.295 148.531 112.949 148.479 112.586 148.479C111.361 148.479 110.57 149.088 110.336 150.266H110.207V148.643H107.834V149.439H109.246V154.203H107.963V155H112.188V154.203H110.219V152.152ZM119.605 153.359C119.43 153.916 118.838 154.256 118.035 154.256C116.951 154.256 116.26 153.506 116.26 152.34V152.082H120.59V151.461C120.59 149.621 119.617 148.525 117.965 148.525C116.348 148.525 115.275 149.627 115.275 151.303V152.258C115.275 154.068 116.289 155.117 118.035 155.117C119.371 155.117 120.379 154.408 120.572 153.359H119.605ZM117.959 149.381C118.984 149.381 119.605 150.113 119.605 151.326H116.26C116.26 150.107 116.898 149.381 117.959 149.381ZM122.992 150.359C122.992 151.262 123.561 151.842 124.709 152.105L125.652 152.322C126.461 152.504 126.771 152.773 126.771 153.277C126.771 153.887 126.221 154.279 125.354 154.279C124.533 154.279 123.971 153.939 123.824 153.354H122.811C122.922 154.443 123.877 155.117 125.318 155.117C126.824 155.117 127.803 154.355 127.803 153.184C127.803 152.264 127.24 151.725 126.004 151.443L125.107 151.238C124.311 151.062 123.982 150.787 123.982 150.301C123.982 149.721 124.504 149.346 125.312 149.346C126.057 149.346 126.59 149.686 126.707 150.242H127.668C127.551 149.182 126.654 148.52 125.33 148.52C123.93 148.52 122.992 149.258 122.992 150.359Z" fill="#336ABC"/>
<path d="M40 156.465H129.016V157.051H40V156.465Z" fill="#336ABC"/>
<path d="M27.418 151.713V150.787H20V151.713H27.418Z" fill="#67789D"/>
<path d="M312 149H327C328.105 149 329 149.895 329 151V151C329 152.105 328.105 153 327 153H312V149Z" fill="#0E3828"/>
<rect x="0.25" y="172.25" width="880.5" height="0.5" stroke="#E4E7F0" stroke-width="0.5"/>
<path d="M234.395 198V197.092H232.016V189.545H231.002L228.482 191.18V192.281L230.902 190.717H230.996V197.092H228.5V198H234.395ZM238.648 198.188C240.406 198.188 241.625 197.18 241.625 195.738C241.625 194.672 240.928 193.799 239.902 193.582V193.488C240.764 193.248 241.285 192.527 241.285 191.607C241.285 190.289 240.189 189.357 238.648 189.357C237.107 189.357 236.006 190.289 236.006 191.607C236.006 192.527 236.539 193.254 237.389 193.488V193.582C236.346 193.834 235.666 194.689 235.666 195.738C235.666 197.18 236.891 198.188 238.648 198.188ZM238.648 193.137C237.67 193.137 237.02 192.562 237.02 191.695C237.02 190.834 237.67 190.26 238.648 190.26C239.627 190.26 240.271 190.834 240.271 191.695C240.271 192.562 239.627 193.137 238.648 193.137ZM238.648 197.291C237.5 197.291 236.709 196.623 236.709 195.656C236.709 194.689 237.5 194.021 238.648 194.021C239.797 194.021 240.588 194.689 240.588 195.656C240.588 196.623 239.797 197.291 238.648 197.291ZM247.027 198H247.971V196.213H249.266V195.305H247.977V192.902H247.039V195.316H244.268V195.24L247.098 189.545H246.043L243.172 195.375V196.213H247.027V198Z" fill="#203053"/>
<path d="M263.938 193.318C263.938 192.141 263.475 191.525 262.59 191.525C261.951 191.525 261.441 191.912 261.277 192.521H261.172C261.037 191.895 260.615 191.525 260.018 191.525C259.42 191.525 258.963 191.9 258.805 192.539H258.699V191.643H257.809V198H258.705V193.711C258.705 192.92 259.057 192.434 259.619 192.434C260.158 192.434 260.439 192.838 260.439 193.605V198H261.33V193.711C261.33 192.92 261.67 192.434 262.227 192.434C262.76 192.434 263.041 192.838 263.041 193.611V198H263.938V193.318ZM265.977 193.359C265.977 194.262 266.545 194.842 267.693 195.105L268.637 195.322C269.445 195.504 269.756 195.773 269.756 196.277C269.756 196.887 269.205 197.279 268.338 197.279C267.518 197.279 266.955 196.939 266.809 196.354H265.795C265.906 197.443 266.861 198.117 268.303 198.117C269.809 198.117 270.787 197.355 270.787 196.184C270.787 195.264 270.225 194.725 268.988 194.443L268.092 194.238C267.295 194.062 266.967 193.787 266.967 193.301C266.967 192.721 267.488 192.346 268.297 192.346C269.041 192.346 269.574 192.686 269.691 193.242H270.652C270.535 192.182 269.639 191.52 268.314 191.52C266.914 191.52 265.977 192.258 265.977 193.359Z" fill="#67789D"/>
<path d="M41.3945 193.359C41.3945 194.262 41.9629 194.842 43.1113 195.105L44.0547 195.322C44.8633 195.504 45.1738 195.773 45.1738 196.277C45.1738 196.887 44.623 197.279 43.7559 197.279C42.9355 197.279 42.373 196.939 42.2266 196.354H41.2129C41.3242 197.443 42.2793 198.117 43.7207 198.117C45.2266 198.117 46.2051 197.355 46.2051 196.184C46.2051 195.264 45.6426 194.725 44.4062 194.443L43.5098 194.238C42.7129 194.062 42.3848 193.787 42.3848 193.301C42.3848 192.721 42.9062 192.346 43.7148 192.346C44.459 192.346 44.9922 192.686 45.1094 193.242H46.0703C45.9531 192.182 45.0566 191.52 43.7324 191.52C42.332 191.52 41.3945 192.258 41.3945 193.359ZM50.7285 191.537C49.2578 191.537 48.2969 192.598 48.2969 194.232V195.416C48.2969 197.045 49.2578 198.105 50.7285 198.105C51.6484 198.105 52.3223 197.713 52.5977 197.016H52.709V200.145H53.7227V191.643H52.7383V192.615H52.6328C52.2988 191.912 51.6367 191.537 50.7285 191.537ZM51.0156 192.451C52.0645 192.451 52.7324 193.201 52.7324 194.373V195.287C52.7324 196.465 52.0645 197.215 51.0156 197.215C49.9668 197.215 49.2988 196.459 49.2988 195.287V194.373C49.2988 193.201 49.9668 192.451 51.0156 192.451ZM61.3223 198V197.174H59.2246V189.146H56.0723V189.973H58.2285V197.174H56.0547V198H61.3223ZM65.9629 198.035C66.543 198.035 67.0234 197.549 67.0234 196.951C67.0234 196.359 66.543 195.873 65.9629 195.873C65.3828 195.873 64.9023 196.359 64.9023 196.951C64.9023 197.549 65.3828 198.035 65.9629 198.035ZM73.7793 191.537C72.8711 191.537 72.209 191.912 71.875 192.615H71.7695V191.643H70.7852V200.145H71.7988V197.016H71.9102C72.1855 197.713 72.8594 198.105 73.7793 198.105C75.25 198.105 76.2109 197.045 76.2109 195.416V194.232C76.2109 192.598 75.25 191.537 73.7793 191.537ZM73.4922 192.451C74.541 192.451 75.209 193.201 75.209 194.373V195.287C75.209 196.459 74.541 197.215 73.4922 197.215C72.4434 197.215 71.7754 196.465 71.7754 195.287V194.373C71.7754 193.201 72.4434 192.451 73.4922 192.451ZM80.7988 198.117C82.4805 198.117 83.5527 197.021 83.5527 195.305V194.344C83.5527 192.627 82.4805 191.531 80.7988 191.531C79.1172 191.531 78.0449 192.627 78.0449 194.344V195.305C78.0449 197.021 79.1172 198.117 80.7988 198.117ZM80.7988 192.41C81.8887 192.41 82.5684 193.184 82.5684 194.432V195.211C82.5684 196.465 81.8887 197.232 80.7988 197.232C79.709 197.232 79.0293 196.465 79.0293 195.211V194.432C79.0293 193.184 79.709 192.41 80.7988 192.41ZM85.9023 193.359C85.9023 194.262 86.4707 194.842 87.6191 195.105L88.5625 195.322C89.3711 195.504 89.6816 195.773 89.6816 196.277C89.6816 196.887 89.1309 197.279 88.2637 197.279C87.4434 197.279 86.8809 196.939 86.7344 196.354H85.7207C85.832 197.443 86.7871 198.117 88.2285 198.117C89.7344 198.117 90.7129 197.355 90.7129 196.184C90.7129 195.264 90.1504 194.725 88.9141 194.443L88.0176 194.238C87.2207 194.062 86.8926 193.787 86.8926 193.301C86.8926 192.721 87.4141 192.346 88.2227 192.346C88.9668 192.346 89.5 192.686 89.6172 193.242H90.5781C90.4609 192.182 89.5645 191.52 88.2402 191.52C86.8398 191.52 85.9023 192.258 85.9023 193.359ZM94.5508 189.938V191.66H92.8574V192.51H94.5508V196.107C94.5508 197.432 95.2832 198.029 96.8594 198.029C97.1641 198.029 97.9375 198 98.0957 197.971V197.127C97.9258 197.145 97.2871 197.162 96.9297 197.162C96.0332 197.162 95.5469 196.787 95.5469 196.096V192.51H98.1133V191.66H95.5352V189.938H94.5508ZM102.865 200.385C104.588 200.385 105.607 199.494 105.607 198V191.643H104.623V192.627H104.512C104.236 191.941 103.539 191.537 102.619 191.537C101.131 191.537 100.158 192.592 100.158 194.227V195.369C100.158 196.998 101.125 198.059 102.596 198.059C103.521 198.059 104.225 197.654 104.506 196.986H104.611V197.977C104.611 198.996 103.996 199.559 102.883 199.559C102.033 199.559 101.395 199.213 101.266 198.686H100.281C100.41 199.74 101.395 200.385 102.865 200.385ZM101.16 195.229V194.355C101.16 193.189 101.84 192.434 102.895 192.434C103.943 192.434 104.617 193.184 104.617 194.355V195.229C104.617 196.4 103.943 197.156 102.895 197.156C101.84 197.156 101.16 196.395 101.16 195.229ZM110.219 195.152C110.219 193.535 111.051 192.562 112.457 192.562C112.803 192.562 113.213 192.633 113.506 192.738V191.619C113.295 191.531 112.949 191.479 112.586 191.479C111.361 191.479 110.57 192.088 110.336 193.266H110.207V191.643H107.834V192.439H109.246V197.203H107.963V198H112.188V197.203H110.219V195.152ZM119.605 196.359C119.43 196.916 118.838 197.256 118.035 197.256C116.951 197.256 116.26 196.506 116.26 195.34V195.082H120.59V194.461C120.59 192.621 119.617 191.525 117.965 191.525C116.348 191.525 115.275 192.627 115.275 194.303V195.258C115.275 197.068 116.289 198.117 118.035 198.117C119.371 198.117 120.379 197.408 120.572 196.359H119.605ZM117.959 192.381C118.984 192.381 119.605 193.113 119.605 194.326H116.26C116.26 193.107 116.898 192.381 117.959 192.381ZM122.992 193.359C122.992 194.262 123.561 194.842 124.709 195.105L125.652 195.322C126.461 195.504 126.771 195.773 126.771 196.277C126.771 196.887 126.221 197.279 125.354 197.279C124.533 197.279 123.971 196.939 123.824 196.354H122.811C122.922 197.443 123.877 198.117 125.318 198.117C126.824 198.117 127.803 197.355 127.803 196.184C127.803 195.264 127.24 194.725 126.004 194.443L125.107 194.238C124.311 194.062 123.982 193.787 123.982 193.301C123.982 192.721 124.504 192.346 125.312 192.346C126.057 192.346 126.59 192.686 126.707 193.242H127.668C127.551 192.182 126.654 191.52 125.33 191.52C123.93 191.52 122.992 192.258 122.992 193.359Z" fill="#336ABC"/>
<path d="M40 199.465H129.016V200.051H40V199.465Z" fill="#336ABC"/>
<path d="M27.418 194.713V193.787H20V194.713H27.418Z" fill="#67789D"/>
<rect x="343" y="192" width="67" height="4" rx="2" fill="#0E3828"/>
<rect x="0.25" y="215.25" width="880.5" height="0.5" stroke="#E4E7F0" stroke-width="0.5"/>
<path d="M234.395 241V240.092H232.016V232.545H231.002L228.482 234.18V235.281L230.902 233.717H230.996V240.092H228.5V241H234.395ZM241.812 241V240.092H239.434V232.545H238.42L235.9 234.18V235.281L238.32 233.717H238.414V240.092H235.918V241H241.812ZM249.23 241V240.092H246.852V232.545H245.838L243.318 234.18V235.281L245.738 233.717H245.832V240.092H243.336V241H249.23Z" fill="#203053"/>
<path d="M263.938 236.318C263.938 235.141 263.475 234.525 262.59 234.525C261.951 234.525 261.441 234.912 261.277 235.521H261.172C261.037 234.895 260.615 234.525 260.018 234.525C259.42 234.525 258.963 234.9 258.805 235.539H258.699V234.643H257.809V241H258.705V236.711C258.705 235.92 259.057 235.434 259.619 235.434C260.158 235.434 260.439 235.838 260.439 236.605V241H261.33V236.711C261.33 235.92 261.67 235.434 262.227 235.434C262.76 235.434 263.041 235.838 263.041 236.611V241H263.938V236.318ZM265.977 236.359C265.977 237.262 266.545 237.842 267.693 238.105L268.637 238.322C269.445 238.504 269.756 238.773 269.756 239.277C269.756 239.887 269.205 240.279 268.338 240.279C267.518 240.279 266.955 239.939 266.809 239.354H265.795C265.906 240.443 266.861 241.117 268.303 241.117C269.809 241.117 270.787 240.355 270.787 239.184C270.787 238.264 270.225 237.725 268.988 237.443L268.092 237.238C267.295 237.062 266.967 236.787 266.967 236.301C266.967 235.721 267.488 235.346 268.297 235.346C269.041 235.346 269.574 235.686 269.691 236.242H270.652C270.535 235.182 269.639 234.52 268.314 234.52C266.914 234.52 265.977 235.258 265.977 236.359Z" fill="#67789D"/>
<path d="M41.3945 236.359C41.3945 237.262 41.9629 237.842 43.1113 238.105L44.0547 238.322C44.8633 238.504 45.1738 238.773 45.1738 239.277C45.1738 239.887 44.623 240.279 43.7559 240.279C42.9355 240.279 42.373 239.939 42.2266 239.354H41.2129C41.3242 240.443 42.2793 241.117 43.7207 241.117C45.2266 241.117 46.2051 240.355 46.2051 239.184C46.2051 238.264 45.6426 237.725 44.4062 237.443L43.5098 237.238C42.7129 237.062 42.3848 236.787 42.3848 236.301C42.3848 235.721 42.9062 235.346 43.7148 235.346C44.459 235.346 44.9922 235.686 45.1094 236.242H46.0703C45.9531 235.182 45.0566 234.52 43.7324 234.52C42.332 234.52 41.3945 235.258 41.3945 236.359ZM50.7285 234.537C49.2578 234.537 48.2969 235.598 48.2969 237.232V238.416C48.2969 240.045 49.2578 241.105 50.7285 241.105C51.6484 241.105 52.3223 240.713 52.5977 240.016H52.709V243.145H53.7227V234.643H52.7383V235.615H52.6328C52.2988 234.912 51.6367 234.537 50.7285 234.537ZM51.0156 235.451C52.0645 235.451 52.7324 236.201 52.7324 237.373V238.287C52.7324 239.465 52.0645 240.215 51.0156 240.215C49.9668 240.215 49.2988 239.459 49.2988 238.287V237.373C49.2988 236.201 49.9668 235.451 51.0156 235.451ZM61.3223 241V240.174H59.2246V232.146H56.0723V232.973H58.2285V240.174H56.0547V241H61.3223ZM65.9629 241.035C66.543 241.035 67.0234 240.549 67.0234 239.951C67.0234 239.359 66.543 238.873 65.9629 238.873C65.3828 238.873 64.9023 239.359 64.9023 239.951C64.9023 240.549 65.3828 241.035 65.9629 241.035ZM73.7793 234.537C72.8711 234.537 72.209 234.912 71.875 235.615H71.7695V234.643H70.7852V243.145H71.7988V240.016H71.9102C72.1855 240.713 72.8594 241.105 73.7793 241.105C75.25 241.105 76.2109 240.045 76.2109 238.416V237.232C76.2109 235.598 75.25 234.537 73.7793 234.537ZM73.4922 235.451C74.541 235.451 75.209 236.201 75.209 237.373V238.287C75.209 239.459 74.541 240.215 73.4922 240.215C72.4434 240.215 71.7754 239.465 71.7754 238.287V237.373C71.7754 236.201 72.4434 235.451 73.4922 235.451ZM80.7988 241.117C82.4805 241.117 83.5527 240.021 83.5527 238.305V237.344C83.5527 235.627 82.4805 234.531 80.7988 234.531C79.1172 234.531 78.0449 235.627 78.0449 237.344V238.305C78.0449 240.021 79.1172 241.117 80.7988 241.117ZM80.7988 235.41C81.8887 235.41 82.5684 236.184 82.5684 237.432V238.211C82.5684 239.465 81.8887 240.232 80.7988 240.232C79.709 240.232 79.0293 239.465 79.0293 238.211V237.432C79.0293 236.184 79.709 235.41 80.7988 235.41ZM85.9023 236.359C85.9023 237.262 86.4707 237.842 87.6191 238.105L88.5625 238.322C89.3711 238.504 89.6816 238.773 89.6816 239.277C89.6816 239.887 89.1309 240.279 88.2637 240.279C87.4434 240.279 86.8809 239.939 86.7344 239.354H85.7207C85.832 240.443 86.7871 241.117 88.2285 241.117C89.7344 241.117 90.7129 240.355 90.7129 239.184C90.7129 238.264 90.1504 237.725 88.9141 237.443L88.0176 237.238C87.2207 237.062 86.8926 236.787 86.8926 236.301C86.8926 235.721 87.4141 235.346 88.2227 235.346C88.9668 235.346 89.5 235.686 89.6172 236.242H90.5781C90.4609 235.182 89.5645 234.52 88.2402 234.52C86.8398 234.52 85.9023 235.258 85.9023 236.359ZM94.5508 232.938V234.66H92.8574V235.51H94.5508V239.107C94.5508 240.432 95.2832 241.029 96.8594 241.029C97.1641 241.029 97.9375 241 98.0957 240.971V240.127C97.9258 240.145 97.2871 240.162 96.9297 240.162C96.0332 240.162 95.5469 239.787 95.5469 239.096V235.51H98.1133V234.66H95.5352V232.938H94.5508ZM102.865 243.385C104.588 243.385 105.607 242.494 105.607 241V234.643H104.623V235.627H104.512C104.236 234.941 103.539 234.537 102.619 234.537C101.131 234.537 100.158 235.592 100.158 237.227V238.369C100.158 239.998 101.125 241.059 102.596 241.059C103.521 241.059 104.225 240.654 104.506 239.986H104.611V240.977C104.611 241.996 103.996 242.559 102.883 242.559C102.033 242.559 101.395 242.213 101.266 241.686H100.281C100.41 242.74 101.395 243.385 102.865 243.385ZM101.16 238.229V237.355C101.16 236.189 101.84 235.434 102.895 235.434C103.943 235.434 104.617 236.184 104.617 237.355V238.229C104.617 239.4 103.943 240.156 102.895 240.156C101.84 240.156 101.16 239.395 101.16 238.229ZM110.219 238.152C110.219 236.535 111.051 235.562 112.457 235.562C112.803 235.562 113.213 235.633 113.506 235.738V234.619C113.295 234.531 112.949 234.479 112.586 234.479C111.361 234.479 110.57 235.088 110.336 236.266H110.207V234.643H107.834V235.439H109.246V240.203H107.963V241H112.188V240.203H110.219V238.152ZM119.605 239.359C119.43 239.916 118.838 240.256 118.035 240.256C116.951 240.256 116.26 239.506 116.26 238.34V238.082H120.59V237.461C120.59 235.621 119.617 234.525 117.965 234.525C116.348 234.525 115.275 235.627 115.275 237.303V238.258C115.275 240.068 116.289 241.117 118.035 241.117C119.371 241.117 120.379 240.408 120.572 239.359H119.605ZM117.959 235.381C118.984 235.381 119.605 236.113 119.605 237.326H116.26C116.26 236.107 116.898 235.381 117.959 235.381ZM122.992 236.359C122.992 237.262 123.561 237.842 124.709 238.105L125.652 238.322C126.461 238.504 126.771 238.773 126.771 239.277C126.771 239.887 126.221 240.279 125.354 240.279C124.533 240.279 123.971 239.939 123.824 239.354H122.811C122.922 240.443 123.877 241.117 125.318 241.117C126.824 241.117 127.803 240.355 127.803 239.184C127.803 238.264 127.24 237.725 126.004 237.443L125.107 237.238C124.311 237.062 123.982 236.787 123.982 236.301C123.982 235.721 124.504 235.346 125.312 235.346C126.057 235.346 126.59 235.686 126.707 236.242H127.668C127.551 235.182 126.654 234.52 125.33 234.52C123.93 234.52 122.992 235.258 122.992 236.359Z" fill="#336ABC"/>
<path d="M40 242.465H129.016V243.051H40V242.465Z" fill="#336ABC"/>
<path d="M27.418 237.713V236.787H20V237.713H27.418Z" fill="#67789D"/>
<rect x="433" y="235" width="47" height="4" rx="2" fill="#0E3828"/>
<rect x="0.25" y="258.25" width="880.5" height="0.5" stroke="#E4E7F0" stroke-width="0.5"/>
<path d="M231.131 284.17C232.848 284.17 234.014 283.01 234.014 281.299C234.014 279.635 232.924 278.469 231.359 278.469C230.615 278.469 230.012 278.732 229.596 279.236H229.502L229.736 276.477H233.545V275.545H228.922L228.494 280.32H229.473C229.807 279.723 230.434 279.377 231.189 279.377C232.273 279.377 233.006 280.162 233.006 281.322C233.006 282.471 232.279 283.238 231.189 283.238C230.199 283.238 229.443 282.629 229.35 281.744H228.354C228.441 283.197 229.555 284.17 231.131 284.17ZM237.588 280.08H238.555C239.727 280.08 240.471 280.707 240.471 281.691C240.471 282.646 239.75 283.244 238.59 283.244C237.535 283.244 236.785 282.658 236.691 281.756H235.713C235.789 283.215 236.949 284.176 238.619 284.176C240.307 284.176 241.514 283.15 241.514 281.715C241.514 280.561 240.846 279.77 239.721 279.623V279.529C240.629 279.307 241.162 278.58 241.162 277.561C241.162 276.277 240.084 275.369 238.572 275.369C237.008 275.369 235.977 276.277 235.877 277.742H236.867C236.949 276.834 237.582 276.277 238.531 276.277C239.486 276.277 240.119 276.846 240.119 277.707C240.119 278.592 239.457 279.213 238.508 279.213H237.588V280.08ZM245.967 284.17C247.684 284.17 248.85 283.01 248.85 281.299C248.85 279.635 247.76 278.469 246.195 278.469C245.451 278.469 244.848 278.732 244.432 279.236H244.338L244.572 276.477H248.381V275.545H243.758L243.33 280.32H244.309C244.643 279.723 245.27 279.377 246.025 279.377C247.109 279.377 247.842 280.162 247.842 281.322C247.842 282.471 247.115 283.238 246.025 283.238C245.035 283.238 244.279 282.629 244.186 281.744H243.189C243.277 283.197 244.391 284.17 245.967 284.17Z" fill="#203053"/>
<path d="M263.938 279.318C263.938 278.141 263.475 277.525 262.59 277.525C261.951 277.525 261.441 277.912 261.277 278.521H261.172C261.037 277.895 260.615 277.525 260.018 277.525C259.42 277.525 258.963 277.9 258.805 278.539H258.699V277.643H257.809V284H258.705V279.711C258.705 278.92 259.057 278.434 259.619 278.434C260.158 278.434 260.439 278.838 260.439 279.605V284H261.33V279.711C261.33 278.92 261.67 278.434 262.227 278.434C262.76 278.434 263.041 278.838 263.041 279.611V284H263.938V279.318ZM265.977 279.359C265.977 280.262 266.545 280.842 267.693 281.105L268.637 281.322C269.445 281.504 269.756 281.773 269.756 282.277C269.756 282.887 269.205 283.279 268.338 283.279C267.518 283.279 266.955 282.939 266.809 282.354H265.795C265.906 283.443 266.861 284.117 268.303 284.117C269.809 284.117 270.787 283.355 270.787 282.184C270.787 281.264 270.225 280.725 268.988 280.443L268.092 280.238C267.295 280.062 266.967 279.787 266.967 279.301C266.967 278.721 267.488 278.346 268.297 278.346C269.041 278.346 269.574 278.686 269.691 279.242H270.652C270.535 278.182 269.639 277.52 268.314 277.52C266.914 277.52 265.977 278.258 265.977 279.359Z" fill="#67789D"/>
<path d="M41.3945 279.359C41.3945 280.262 41.9629 280.842 43.1113 281.105L44.0547 281.322C44.8633 281.504 45.1738 281.773 45.1738 282.277C45.1738 282.887 44.623 283.279 43.7559 283.279C42.9355 283.279 42.373 282.939 42.2266 282.354H41.2129C41.3242 283.443 42.2793 284.117 43.7207 284.117C45.2266 284.117 46.2051 283.355 46.2051 282.184C46.2051 281.264 45.6426 280.725 44.4062 280.443L43.5098 280.238C42.7129 280.062 42.3848 279.787 42.3848 279.301C42.3848 278.721 42.9062 278.346 43.7148 278.346C44.459 278.346 44.9922 278.686 45.1094 279.242H46.0703C45.9531 278.182 45.0566 277.52 43.7324 277.52C42.332 277.52 41.3945 278.258 41.3945 279.359ZM50.7285 277.537C49.2578 277.537 48.2969 278.598 48.2969 280.232V281.416C48.2969 283.045 49.2578 284.105 50.7285 284.105C51.6484 284.105 52.3223 283.713 52.5977 283.016H52.709V286.145H53.7227V277.643H52.7383V278.615H52.6328C52.2988 277.912 51.6367 277.537 50.7285 277.537ZM51.0156 278.451C52.0645 278.451 52.7324 279.201 52.7324 280.373V281.287C52.7324 282.465 52.0645 283.215 51.0156 283.215C49.9668 283.215 49.2988 282.459 49.2988 281.287V280.373C49.2988 279.201 49.9668 278.451 51.0156 278.451ZM61.3223 284V283.174H59.2246V275.146H56.0723V275.973H58.2285V283.174H56.0547V284H61.3223ZM65.9629 284.035C66.543 284.035 67.0234 283.549 67.0234 282.951C67.0234 282.359 66.543 281.873 65.9629 281.873C65.3828 281.873 64.9023 282.359 64.9023 282.951C64.9023 283.549 65.3828 284.035 65.9629 284.035ZM73.7793 277.537C72.8711 277.537 72.209 277.912 71.875 278.615H71.7695V277.643H70.7852V286.145H71.7988V283.016H71.9102C72.1855 283.713 72.8594 284.105 73.7793 284.105C75.25 284.105 76.2109 283.045 76.2109 281.416V280.232C76.2109 278.598 75.25 277.537 73.7793 277.537ZM73.4922 278.451C74.541 278.451 75.209 279.201 75.209 280.373V281.287C75.209 282.459 74.541 283.215 73.4922 283.215C72.4434 283.215 71.7754 282.465 71.7754 281.287V280.373C71.7754 279.201 72.4434 278.451 73.4922 278.451ZM80.7988 284.117C82.4805 284.117 83.5527 283.021 83.5527 281.305V280.344C83.5527 278.627 82.4805 277.531 80.7988 277.531C79.1172 277.531 78.0449 278.627 78.0449 280.344V281.305C78.0449 283.021 79.1172 284.117 80.7988 284.117ZM80.7988 278.41C81.8887 278.41 82.5684 279.184 82.5684 280.432V281.211C82.5684 282.465 81.8887 283.232 80.7988 283.232C79.709 283.232 79.0293 282.465 79.0293 281.211V280.432C79.0293 279.184 79.709 278.41 80.7988 278.41ZM85.9023 279.359C85.9023 280.262 86.4707 280.842 87.6191 281.105L88.5625 281.322C89.3711 281.504 89.6816 281.773 89.6816 282.277C89.6816 282.887 89.1309 283.279 88.2637 283.279C87.4434 283.279 86.8809 282.939 86.7344 282.354H85.7207C85.832 283.443 86.7871 284.117 88.2285 284.117C89.7344 284.117 90.7129 283.355 90.7129 282.184C90.7129 281.264 90.1504 280.725 88.9141 280.443L88.0176 280.238C87.2207 280.062 86.8926 279.787 86.8926 279.301C86.8926 278.721 87.4141 278.346 88.2227 278.346C88.9668 278.346 89.5 278.686 89.6172 279.242H90.5781C90.4609 278.182 89.5645 277.52 88.2402 277.52C86.8398 277.52 85.9023 278.258 85.9023 279.359ZM94.5508 275.938V277.66H92.8574V278.51H94.5508V282.107C94.5508 283.432 95.2832 284.029 96.8594 284.029C97.1641 284.029 97.9375 284 98.0957 283.971V283.127C97.9258 283.145 97.2871 283.162 96.9297 283.162C96.0332 283.162 95.5469 282.787 95.5469 282.096V278.51H98.1133V277.66H95.5352V275.938H94.5508ZM102.865 286.385C104.588 286.385 105.607 285.494 105.607 284V277.643H104.623V278.627H104.512C104.236 277.941 103.539 277.537 102.619 277.537C101.131 277.537 100.158 278.592 100.158 280.227V281.369C100.158 282.998 101.125 284.059 102.596 284.059C103.521 284.059 104.225 283.654 104.506 282.986H104.611V283.977C104.611 284.996 103.996 285.559 102.883 285.559C102.033 285.559 101.395 285.213 101.266 284.686H100.281C100.41 285.74 101.395 286.385 102.865 286.385ZM101.16 281.229V280.355C101.16 279.189 101.84 278.434 102.895 278.434C103.943 278.434 104.617 279.184 104.617 280.355V281.229C104.617 282.4 103.943 283.156 102.895 283.156C101.84 283.156 101.16 282.395 101.16 281.229ZM110.219 281.152C110.219 279.535 111.051 278.562 112.457 278.562C112.803 278.562 113.213 278.633 113.506 278.738V277.619C113.295 277.531 112.949 277.479 112.586 277.479C111.361 277.479 110.57 278.088 110.336 279.266H110.207V277.643H107.834V278.439H109.246V283.203H107.963V284H112.188V283.203H110.219V281.152ZM119.605 282.359C119.43 282.916 118.838 283.256 118.035 283.256C116.951 283.256 116.26 282.506 116.26 281.34V281.082H120.59V280.461C120.59 278.621 119.617 277.525 117.965 277.525C116.348 277.525 115.275 278.627 115.275 280.303V281.258C115.275 283.068 116.289 284.117 118.035 284.117C119.371 284.117 120.379 283.408 120.572 282.359H119.605ZM117.959 278.381C118.984 278.381 119.605 279.113 119.605 280.326H116.26C116.26 279.107 116.898 278.381 117.959 278.381ZM122.992 279.359C122.992 280.262 123.561 280.842 124.709 281.105L125.652 281.322C126.461 281.504 126.771 281.773 126.771 282.277C126.771 282.887 126.221 283.279 125.354 283.279C124.533 283.279 123.971 282.939 123.824 282.354H122.811C122.922 283.443 123.877 284.117 125.318 284.117C126.824 284.117 127.803 283.355 127.803 282.184C127.803 281.264 127.24 280.725 126.004 280.443L125.107 280.238C124.311 280.062 123.982 279.787 123.982 279.301C123.982 278.721 124.504 278.346 125.312 278.346C126.057 278.346 126.59 278.686 126.707 279.242H127.668C127.551 278.182 126.654 277.52 125.33 277.52C123.93 277.52 122.992 278.258 122.992 279.359Z" fill="#336ABC"/>
<path d="M40 285.465H129.016V286.051H40V285.465Z" fill="#336ABC"/>
<rect x="138" y="271" width="34" height="18" rx="2" fill="#C8223D"/>
<path d="M149.182 281.633L150.676 284.018H151.871L149.697 280.818L151.842 277.701H150.699L149.217 280.051H149.123L147.623 277.701H146.422L148.607 280.859L146.445 284.018H147.588L149.088 281.633H149.182ZM159.436 284.199C161.164 284.199 162.342 283.004 162.342 281.264C162.342 279.588 161.17 278.475 159.752 278.475C158.908 278.475 158.281 278.732 157.871 279.242H157.777L158.041 276.488H161.908V275.545H157.215L156.729 280.379H157.719C158.053 279.752 158.686 279.383 159.488 279.383C160.555 279.383 161.287 280.15 161.287 281.293C161.287 282.477 160.555 283.273 159.447 283.273C158.451 283.273 157.725 282.67 157.631 281.768H156.594C156.688 283.215 157.836 284.199 159.436 284.199Z" fill="white"/>
<path d="M27.418 280.713V279.787H20V280.713H27.418Z" fill="#67789D"/>
<rect x="487" y="278" width="155" height="4" rx="2" fill="#0E3828"/>
<rect x="0.25" y="301.25" width="880.5" height="0.5" stroke="#E4E7F0" stroke-width="0.5"/>
<path d="M241.812 327V326.092H239.434V318.545H238.42L235.9 320.18V321.281L238.32 319.717H238.414V326.092H235.918V327H241.812ZM246.066 327.188C247.824 327.188 249.043 326.18 249.043 324.738C249.043 323.672 248.346 322.799 247.32 322.582V322.488C248.182 322.248 248.703 321.527 248.703 320.607C248.703 319.289 247.607 318.357 246.066 318.357C244.525 318.357 243.424 319.289 243.424 320.607C243.424 321.527 243.957 322.254 244.807 322.488V322.582C243.764 322.834 243.084 323.689 243.084 324.738C243.084 326.18 244.309 327.188 246.066 327.188ZM246.066 322.137C245.088 322.137 244.438 321.562 244.438 320.695C244.438 319.834 245.088 319.26 246.066 319.26C247.045 319.26 247.689 319.834 247.689 320.695C247.689 321.562 247.045 322.137 246.066 322.137ZM246.066 326.291C244.918 326.291 244.127 325.623 244.127 324.656C244.127 323.689 244.918 323.021 246.066 323.021C247.215 323.021 248.006 323.689 248.006 324.656C248.006 325.623 247.215 326.291 246.066 326.291Z" fill="#203053"/>
<path d="M263.938 322.318C263.938 321.141 263.475 320.525 262.59 320.525C261.951 320.525 261.441 320.912 261.277 321.521H261.172C261.037 320.895 260.615 320.525 260.018 320.525C259.42 320.525 258.963 320.9 258.805 321.539H258.699V320.643H257.809V327H258.705V322.711C258.705 321.92 259.057 321.434 259.619 321.434C260.158 321.434 260.439 321.838 260.439 322.605V327H261.33V322.711C261.33 321.92 261.67 321.434 262.227 321.434C262.76 321.434 263.041 321.838 263.041 322.611V327H263.938V322.318ZM265.977 322.359C265.977 323.262 266.545 323.842 267.693 324.105L268.637 324.322C269.445 324.504 269.756 324.773 269.756 325.277C269.756 325.887 269.205 326.279 268.338 326.279C267.518 326.279 266.955 325.939 266.809 325.354H265.795C265.906 326.443 266.861 327.117 268.303 327.117C269.809 327.117 270.787 326.355 270.787 325.184C270.787 324.264 270.225 323.725 268.988 323.443L268.092 323.238C267.295 323.062 266.967 322.787 266.967 322.301C266.967 321.721 267.488 321.346 268.297 321.346C269.041 321.346 269.574 321.686 269.691 322.242H270.652C270.535 321.182 269.639 320.52 268.314 320.52C266.914 320.52 265.977 321.258 265.977 322.359Z" fill="#67789D"/>
<path d="M41.3945 322.359C41.3945 323.262 41.9629 323.842 43.1113 324.105L44.0547 324.322C44.8633 324.504 45.1738 324.773 45.1738 325.277C45.1738 325.887 44.623 326.279 43.7559 326.279C42.9355 326.279 42.373 325.939 42.2266 325.354H41.2129C41.3242 326.443 42.2793 327.117 43.7207 327.117C45.2266 327.117 46.2051 326.355 46.2051 325.184C46.2051 324.264 45.6426 323.725 44.4062 323.443L43.5098 323.238C42.7129 323.062 42.3848 322.787 42.3848 322.301C42.3848 321.721 42.9062 321.346 43.7148 321.346C44.459 321.346 44.9922 321.686 45.1094 322.242H46.0703C45.9531 321.182 45.0566 320.52 43.7324 320.52C42.332 320.52 41.3945 321.258 41.3945 322.359ZM50.7285 320.537C49.2578 320.537 48.2969 321.598 48.2969 323.232V324.416C48.2969 326.045 49.2578 327.105 50.7285 327.105C51.6484 327.105 52.3223 326.713 52.5977 326.016H52.709V329.145H53.7227V320.643H52.7383V321.615H52.6328C52.2988 320.912 51.6367 320.537 50.7285 320.537ZM51.0156 321.451C52.0645 321.451 52.7324 322.201 52.7324 323.373V324.287C52.7324 325.465 52.0645 326.215 51.0156 326.215C49.9668 326.215 49.2988 325.459 49.2988 324.287V323.373C49.2988 322.201 49.9668 321.451 51.0156 321.451ZM61.3223 327V326.174H59.2246V318.146H56.0723V318.973H58.2285V326.174H56.0547V327H61.3223ZM65.9629 327.035C66.543 327.035 67.0234 326.549 67.0234 325.951C67.0234 325.359 66.543 324.873 65.9629 324.873C65.3828 324.873 64.9023 325.359 64.9023 325.951C64.9023 326.549 65.3828 327.035 65.9629 327.035ZM73.7793 320.537C72.8711 320.537 72.209 320.912 71.875 321.615H71.7695V320.643H70.7852V329.145H71.7988V326.016H71.9102C72.1855 326.713 72.8594 327.105 73.7793 327.105C75.25 327.105 76.2109 326.045 76.2109 324.416V323.232C76.2109 321.598 75.25 320.537 73.7793 320.537ZM73.4922 321.451C74.541 321.451 75.209 322.201 75.209 323.373V324.287C75.209 325.459 74.541 326.215 73.4922 326.215C72.4434 326.215 71.7754 325.465 71.7754 324.287V323.373C71.7754 322.201 72.4434 321.451 73.4922 321.451ZM80.7988 327.117C82.4805 327.117 83.5527 326.021 83.5527 324.305V323.344C83.5527 321.627 82.4805 320.531 80.7988 320.531C79.1172 320.531 78.0449 321.627 78.0449 323.344V324.305C78.0449 326.021 79.1172 327.117 80.7988 327.117ZM80.7988 321.41C81.8887 321.41 82.5684 322.184 82.5684 323.432V324.211C82.5684 325.465 81.8887 326.232 80.7988 326.232C79.709 326.232 79.0293 325.465 79.0293 324.211V323.432C79.0293 322.184 79.709 321.41 80.7988 321.41ZM85.9023 322.359C85.9023 323.262 86.4707 323.842 87.6191 324.105L88.5625 324.322C89.3711 324.504 89.6816 324.773 89.6816 325.277C89.6816 325.887 89.1309 326.279 88.2637 326.279C87.4434 326.279 86.8809 325.939 86.7344 325.354H85.7207C85.832 326.443 86.7871 327.117 88.2285 327.117C89.7344 327.117 90.7129 326.355 90.7129 325.184C90.7129 324.264 90.1504 323.725 88.9141 323.443L88.0176 323.238C87.2207 323.062 86.8926 322.787 86.8926 322.301C86.8926 321.721 87.4141 321.346 88.2227 321.346C88.9668 321.346 89.5 321.686 89.6172 322.242H90.5781C90.4609 321.182 89.5645 320.52 88.2402 320.52C86.8398 320.52 85.9023 321.258 85.9023 322.359ZM94.5508 318.938V320.66H92.8574V321.51H94.5508V325.107C94.5508 326.432 95.2832 327.029 96.8594 327.029C97.1641 327.029 97.9375 327 98.0957 326.971V326.127C97.9258 326.145 97.2871 326.162 96.9297 326.162C96.0332 326.162 95.5469 325.787 95.5469 325.096V321.51H98.1133V320.66H95.5352V318.938H94.5508ZM102.865 329.385C104.588 329.385 105.607 328.494 105.607 327V320.643H104.623V321.627H104.512C104.236 320.941 103.539 320.537 102.619 320.537C101.131 320.537 100.158 321.592 100.158 323.227V324.369C100.158 325.998 101.125 327.059 102.596 327.059C103.521 327.059 104.225 326.654 104.506 325.986H104.611V326.977C104.611 327.996 103.996 328.559 102.883 328.559C102.033 328.559 101.395 328.213 101.266 327.686H100.281C100.41 328.74 101.395 329.385 102.865 329.385ZM101.16 324.229V323.355C101.16 322.189 101.84 321.434 102.895 321.434C103.943 321.434 104.617 322.184 104.617 323.355V324.229C104.617 325.4 103.943 326.156 102.895 326.156C101.84 326.156 101.16 325.395 101.16 324.229ZM110.219 324.152C110.219 322.535 111.051 321.562 112.457 321.562C112.803 321.562 113.213 321.633 113.506 321.738V320.619C113.295 320.531 112.949 320.479 112.586 320.479C111.361 320.479 110.57 321.088 110.336 322.266H110.207V320.643H107.834V321.439H109.246V326.203H107.963V327H112.188V326.203H110.219V324.152ZM119.605 325.359C119.43 325.916 118.838 326.256 118.035 326.256C116.951 326.256 116.26 325.506 116.26 324.34V324.082H120.59V323.461C120.59 321.621 119.617 320.525 117.965 320.525C116.348 320.525 115.275 321.627 115.275 323.303V324.258C115.275 326.068 116.289 327.117 118.035 327.117C119.371 327.117 120.379 326.408 120.572 325.359H119.605ZM117.959 321.381C118.984 321.381 119.605 322.113 119.605 323.326H116.26C116.26 322.107 116.898 321.381 117.959 321.381ZM122.992 322.359C122.992 323.262 123.561 323.842 124.709 324.105L125.652 324.322C126.461 324.504 126.771 324.773 126.771 325.277C126.771 325.887 126.221 326.279 125.354 326.279C124.533 326.279 123.971 325.939 123.824 325.354H122.811C122.922 326.443 123.877 327.117 125.318 327.117C126.824 327.117 127.803 326.355 127.803 325.184C127.803 324.264 127.24 323.725 126.004 323.443L125.107 323.238C124.311 323.062 123.982 322.787 123.982 322.301C123.982 321.721 124.504 321.346 125.312 321.346C126.057 321.346 126.59 321.686 126.707 322.242H127.668C127.551 321.182 126.654 320.52 125.33 320.52C123.93 320.52 122.992 321.258 122.992 322.359Z" fill="#336ABC"/>
<path d="M40 328.465H129.016V329.051H40V328.465Z" fill="#336ABC"/>
<path d="M27.418 323.713V322.787H20V323.713H27.418Z" fill="#67789D"/>
<rect width="508" height="324" fill="url(#paint0_linear)"/>
<defs>
<filter id="filter0_d" x="-2" y="-1" width="740" height="348" filterUnits="userSpaceOnUse" color-interpolation-filters="sRGB">
<feFlood flood-opacity="0" result="BackgroundImageFix"/>
<feColorMatrix in="SourceAlpha" type="matrix" values="0 0 0 0 0 0 0 0 0 0 0 0 0 0 0 0 0 0 127 0"/>
<feOffset dy="1"/>
<feGaussianBlur stdDeviation="1"/>
<feColorMatrix type="matrix" values="0 0 0 0 0.0392157 0 0 0 0 0.0823529 0 0 0 0 0.188235 0 0 0 0.05 0"/>
<feBlend mode="normal" in2="BackgroundImageFix" result="effect1_dropShadow"/>
<feBlend mode="normal" in="SourceGraphic" in2="effect1_dropShadow" result="shape"/>
</filter>
<linearGradient id="paint0_linear" x1="254" y1="0" x2="254" y2="324" gradientUnits="userSpaceOnUse">
<stop offset="0.520833" stop-color="#1A294A" stop-opacity="0"/>
<stop offset="1" stop-color="#1A294A" stop-opacity="0.16"/>
</linearGradient>
<clipPath id="clip0">
<rect width="508" height="324" fill="white"/>
</clipPath>
<clipPath id="clip1">
<rect width="736" height="344" rx="8" fill="white"/>
</clipPath>
</defs>
</svg>
